%TF.GenerationSoftware,KiCad,Pcbnew,9.0.6*%
%TF.CreationDate,2025-12-07T00:05:39-06:00*%
%TF.ProjectId,SplitKeyboard,53706c69-744b-4657-9962-6f6172642e6b,rev?*%
%TF.SameCoordinates,Original*%
%TF.FileFunction,Legend,Top*%
%TF.FilePolarity,Positive*%
%FSLAX46Y46*%
G04 Gerber Fmt 4.6, Leading zero omitted, Abs format (unit mm)*
G04 Created by KiCad (PCBNEW 9.0.6) date 2025-12-07 00:05:39*
%MOMM*%
%LPD*%
G01*
G04 APERTURE LIST*
%ADD10C,0.150000*%
%ADD11C,0.120000*%
%ADD12C,0.200000*%
%ADD13R,1.752600X1.752600*%
%ADD14C,1.752600*%
G04 APERTURE END LIST*
D10*
X125091807Y-130463428D02*
X125191715Y-130576096D01*
X125191715Y-130576096D02*
X125397912Y-130695144D01*
X125397912Y-130695144D02*
X125504200Y-130701523D01*
X125504200Y-130701523D02*
X125569249Y-130684094D01*
X125569249Y-130684094D02*
X125658107Y-130625425D01*
X125658107Y-130625425D02*
X125705726Y-130542946D01*
X125705726Y-130542946D02*
X125712106Y-130436658D01*
X125712106Y-130436658D02*
X125694676Y-130371609D01*
X125694676Y-130371609D02*
X125636007Y-130282751D01*
X125636007Y-130282751D02*
X125494859Y-130146273D01*
X125494859Y-130146273D02*
X125436190Y-130057415D01*
X125436190Y-130057415D02*
X125418761Y-129992366D01*
X125418761Y-129992366D02*
X125425140Y-129886078D01*
X125425140Y-129886078D02*
X125472759Y-129803599D01*
X125472759Y-129803599D02*
X125561618Y-129744930D01*
X125561618Y-129744930D02*
X125626666Y-129727500D01*
X125626666Y-129727500D02*
X125732955Y-129733880D01*
X125732955Y-129733880D02*
X125939151Y-129852928D01*
X125939151Y-129852928D02*
X126039060Y-129965596D01*
X126351544Y-130091023D02*
X126057741Y-131076096D01*
X126057741Y-131076096D02*
X126579841Y-130552745D01*
X126579841Y-130552745D02*
X126387655Y-131266572D01*
X126387655Y-131266572D02*
X127093852Y-130519594D01*
X127334908Y-130768740D02*
X127399957Y-130751310D01*
X127399957Y-130751310D02*
X127506245Y-130757690D01*
X127506245Y-130757690D02*
X127712441Y-130876737D01*
X127712441Y-130876737D02*
X127771110Y-130965596D01*
X127771110Y-130965596D02*
X127788540Y-131030644D01*
X127788540Y-131030644D02*
X127782160Y-131136933D01*
X127782160Y-131136933D02*
X127734541Y-131219411D01*
X127734541Y-131219411D02*
X127621873Y-131319320D01*
X127621873Y-131319320D02*
X126841287Y-131528477D01*
X126841287Y-131528477D02*
X127377398Y-131838001D01*
X128202185Y-132314191D02*
X127707313Y-132028477D01*
X127954749Y-132171334D02*
X128454749Y-131305309D01*
X128454749Y-131305309D02*
X128300842Y-131381408D01*
X128300842Y-131381408D02*
X128170744Y-131416267D01*
X128170744Y-131416267D02*
X128064456Y-131409887D01*
X136388095Y-125723569D02*
X136388095Y-124723569D01*
X136388095Y-125199759D02*
X136959523Y-125199759D01*
X136959523Y-125723569D02*
X136959523Y-124723569D01*
X137483333Y-125723569D02*
X137673809Y-125723569D01*
X137673809Y-125723569D02*
X137769047Y-125675950D01*
X137769047Y-125675950D02*
X137816666Y-125628330D01*
X137816666Y-125628330D02*
X137911904Y-125485473D01*
X137911904Y-125485473D02*
X137959523Y-125294997D01*
X137959523Y-125294997D02*
X137959523Y-124914045D01*
X137959523Y-124914045D02*
X137911904Y-124818807D01*
X137911904Y-124818807D02*
X137864285Y-124771188D01*
X137864285Y-124771188D02*
X137769047Y-124723569D01*
X137769047Y-124723569D02*
X137578571Y-124723569D01*
X137578571Y-124723569D02*
X137483333Y-124771188D01*
X137483333Y-124771188D02*
X137435714Y-124818807D01*
X137435714Y-124818807D02*
X137388095Y-124914045D01*
X137388095Y-124914045D02*
X137388095Y-125152140D01*
X137388095Y-125152140D02*
X137435714Y-125247378D01*
X137435714Y-125247378D02*
X137483333Y-125294997D01*
X137483333Y-125294997D02*
X137578571Y-125342616D01*
X137578571Y-125342616D02*
X137769047Y-125342616D01*
X137769047Y-125342616D02*
X137864285Y-125294997D01*
X137864285Y-125294997D02*
X137911904Y-125247378D01*
X137911904Y-125247378D02*
X137959523Y-125152140D01*
X189515999Y-142392540D02*
X189515999Y-141392540D01*
X189515999Y-141868730D02*
X190087427Y-141868730D01*
X190087427Y-142392540D02*
X190087427Y-141392540D01*
X190468380Y-141392540D02*
X191087427Y-141392540D01*
X191087427Y-141392540D02*
X190754094Y-141773492D01*
X190754094Y-141773492D02*
X190896951Y-141773492D01*
X190896951Y-141773492D02*
X190992189Y-141821111D01*
X190992189Y-141821111D02*
X191039808Y-141868730D01*
X191039808Y-141868730D02*
X191087427Y-141963968D01*
X191087427Y-141963968D02*
X191087427Y-142202063D01*
X191087427Y-142202063D02*
X191039808Y-142297301D01*
X191039808Y-142297301D02*
X190992189Y-142344921D01*
X190992189Y-142344921D02*
X190896951Y-142392540D01*
X190896951Y-142392540D02*
X190611237Y-142392540D01*
X190611237Y-142392540D02*
X190515999Y-142344921D01*
X190515999Y-142344921D02*
X190468380Y-142297301D01*
X16754167Y-63675950D02*
X16897024Y-63723569D01*
X16897024Y-63723569D02*
X17135119Y-63723569D01*
X17135119Y-63723569D02*
X17230357Y-63675950D01*
X17230357Y-63675950D02*
X17277976Y-63628330D01*
X17277976Y-63628330D02*
X17325595Y-63533092D01*
X17325595Y-63533092D02*
X17325595Y-63437854D01*
X17325595Y-63437854D02*
X17277976Y-63342616D01*
X17277976Y-63342616D02*
X17230357Y-63294997D01*
X17230357Y-63294997D02*
X17135119Y-63247378D01*
X17135119Y-63247378D02*
X16944643Y-63199759D01*
X16944643Y-63199759D02*
X16849405Y-63152140D01*
X16849405Y-63152140D02*
X16801786Y-63104521D01*
X16801786Y-63104521D02*
X16754167Y-63009283D01*
X16754167Y-63009283D02*
X16754167Y-62914045D01*
X16754167Y-62914045D02*
X16801786Y-62818807D01*
X16801786Y-62818807D02*
X16849405Y-62771188D01*
X16849405Y-62771188D02*
X16944643Y-62723569D01*
X16944643Y-62723569D02*
X17182738Y-62723569D01*
X17182738Y-62723569D02*
X17325595Y-62771188D01*
X17658929Y-62723569D02*
X17897024Y-63723569D01*
X17897024Y-63723569D02*
X18087500Y-63009283D01*
X18087500Y-63009283D02*
X18277976Y-63723569D01*
X18277976Y-63723569D02*
X18516072Y-62723569D01*
X19420833Y-63723569D02*
X18849405Y-63723569D01*
X19135119Y-63723569D02*
X19135119Y-62723569D01*
X19135119Y-62723569D02*
X19039881Y-62866426D01*
X19039881Y-62866426D02*
X18944643Y-62961664D01*
X18944643Y-62961664D02*
X18849405Y-63009283D01*
X128717274Y-80044795D02*
X128717274Y-79244795D01*
X128717274Y-79244795D02*
X128907750Y-79244795D01*
X128907750Y-79244795D02*
X129022036Y-79282890D01*
X129022036Y-79282890D02*
X129098226Y-79359080D01*
X129098226Y-79359080D02*
X129136321Y-79435271D01*
X129136321Y-79435271D02*
X129174417Y-79587652D01*
X129174417Y-79587652D02*
X129174417Y-79701938D01*
X129174417Y-79701938D02*
X129136321Y-79854319D01*
X129136321Y-79854319D02*
X129098226Y-79930509D01*
X129098226Y-79930509D02*
X129022036Y-80006700D01*
X129022036Y-80006700D02*
X128907750Y-80044795D01*
X128907750Y-80044795D02*
X128717274Y-80044795D01*
X129860131Y-79511461D02*
X129860131Y-80044795D01*
X129669655Y-79206700D02*
X129479178Y-79778128D01*
X129479178Y-79778128D02*
X129974417Y-79778128D01*
X139000482Y-88780543D02*
X139457625Y-88780543D01*
X139229053Y-89580543D02*
X139229053Y-88780543D01*
X139648101Y-88780543D02*
X140181435Y-89580543D01*
X140181435Y-88780543D02*
X139648101Y-89580543D01*
X140638578Y-88780543D02*
X140714768Y-88780543D01*
X140714768Y-88780543D02*
X140790959Y-88818638D01*
X140790959Y-88818638D02*
X140829054Y-88856733D01*
X140829054Y-88856733D02*
X140867149Y-88932924D01*
X140867149Y-88932924D02*
X140905244Y-89085305D01*
X140905244Y-89085305D02*
X140905244Y-89275781D01*
X140905244Y-89275781D02*
X140867149Y-89428162D01*
X140867149Y-89428162D02*
X140829054Y-89504352D01*
X140829054Y-89504352D02*
X140790959Y-89542448D01*
X140790959Y-89542448D02*
X140714768Y-89580543D01*
X140714768Y-89580543D02*
X140638578Y-89580543D01*
X140638578Y-89580543D02*
X140562387Y-89542448D01*
X140562387Y-89542448D02*
X140524292Y-89504352D01*
X140524292Y-89504352D02*
X140486197Y-89428162D01*
X140486197Y-89428162D02*
X140448101Y-89275781D01*
X140448101Y-89275781D02*
X140448101Y-89085305D01*
X140448101Y-89085305D02*
X140486197Y-88932924D01*
X140486197Y-88932924D02*
X140524292Y-88856733D01*
X140524292Y-88856733D02*
X140562387Y-88818638D01*
X140562387Y-88818638D02*
X140638578Y-88780543D01*
X141819530Y-88742448D02*
X141133816Y-89771019D01*
X142086197Y-89580543D02*
X142086197Y-88780543D01*
X142086197Y-88780543D02*
X142276673Y-88780543D01*
X142276673Y-88780543D02*
X142390959Y-88818638D01*
X142390959Y-88818638D02*
X142467149Y-88894828D01*
X142467149Y-88894828D02*
X142505244Y-88971019D01*
X142505244Y-88971019D02*
X142543340Y-89123400D01*
X142543340Y-89123400D02*
X142543340Y-89237686D01*
X142543340Y-89237686D02*
X142505244Y-89390067D01*
X142505244Y-89390067D02*
X142467149Y-89466257D01*
X142467149Y-89466257D02*
X142390959Y-89542448D01*
X142390959Y-89542448D02*
X142276673Y-89580543D01*
X142276673Y-89580543D02*
X142086197Y-89580543D01*
X142810006Y-88780543D02*
X143305244Y-88780543D01*
X143305244Y-88780543D02*
X143038578Y-89085305D01*
X143038578Y-89085305D02*
X143152863Y-89085305D01*
X143152863Y-89085305D02*
X143229054Y-89123400D01*
X143229054Y-89123400D02*
X143267149Y-89161495D01*
X143267149Y-89161495D02*
X143305244Y-89237686D01*
X143305244Y-89237686D02*
X143305244Y-89428162D01*
X143305244Y-89428162D02*
X143267149Y-89504352D01*
X143267149Y-89504352D02*
X143229054Y-89542448D01*
X143229054Y-89542448D02*
X143152863Y-89580543D01*
X143152863Y-89580543D02*
X142924292Y-89580543D01*
X142924292Y-89580543D02*
X142848101Y-89542448D01*
X142848101Y-89542448D02*
X142810006Y-89504352D01*
X128698226Y-69122890D02*
X128622036Y-69084795D01*
X128622036Y-69084795D02*
X128507750Y-69084795D01*
X128507750Y-69084795D02*
X128393464Y-69122890D01*
X128393464Y-69122890D02*
X128317274Y-69199080D01*
X128317274Y-69199080D02*
X128279179Y-69275271D01*
X128279179Y-69275271D02*
X128241083Y-69427652D01*
X128241083Y-69427652D02*
X128241083Y-69541938D01*
X128241083Y-69541938D02*
X128279179Y-69694319D01*
X128279179Y-69694319D02*
X128317274Y-69770509D01*
X128317274Y-69770509D02*
X128393464Y-69846700D01*
X128393464Y-69846700D02*
X128507750Y-69884795D01*
X128507750Y-69884795D02*
X128583941Y-69884795D01*
X128583941Y-69884795D02*
X128698226Y-69846700D01*
X128698226Y-69846700D02*
X128736322Y-69808604D01*
X128736322Y-69808604D02*
X128736322Y-69541938D01*
X128736322Y-69541938D02*
X128583941Y-69541938D01*
X129079179Y-69884795D02*
X129079179Y-69084795D01*
X129079179Y-69084795D02*
X129536322Y-69884795D01*
X129536322Y-69884795D02*
X129536322Y-69084795D01*
X129917274Y-69884795D02*
X129917274Y-69084795D01*
X129917274Y-69084795D02*
X130107750Y-69084795D01*
X130107750Y-69084795D02*
X130222036Y-69122890D01*
X130222036Y-69122890D02*
X130298226Y-69199080D01*
X130298226Y-69199080D02*
X130336321Y-69275271D01*
X130336321Y-69275271D02*
X130374417Y-69427652D01*
X130374417Y-69427652D02*
X130374417Y-69541938D01*
X130374417Y-69541938D02*
X130336321Y-69694319D01*
X130336321Y-69694319D02*
X130298226Y-69770509D01*
X130298226Y-69770509D02*
X130222036Y-69846700D01*
X130222036Y-69846700D02*
X130107750Y-69884795D01*
X130107750Y-69884795D02*
X129917274Y-69884795D01*
X129174417Y-82508604D02*
X129136321Y-82546700D01*
X129136321Y-82546700D02*
X129022036Y-82584795D01*
X129022036Y-82584795D02*
X128945845Y-82584795D01*
X128945845Y-82584795D02*
X128831559Y-82546700D01*
X128831559Y-82546700D02*
X128755369Y-82470509D01*
X128755369Y-82470509D02*
X128717274Y-82394319D01*
X128717274Y-82394319D02*
X128679178Y-82241938D01*
X128679178Y-82241938D02*
X128679178Y-82127652D01*
X128679178Y-82127652D02*
X128717274Y-81975271D01*
X128717274Y-81975271D02*
X128755369Y-81899080D01*
X128755369Y-81899080D02*
X128831559Y-81822890D01*
X128831559Y-81822890D02*
X128945845Y-81784795D01*
X128945845Y-81784795D02*
X129022036Y-81784795D01*
X129022036Y-81784795D02*
X129136321Y-81822890D01*
X129136321Y-81822890D02*
X129174417Y-81860985D01*
X129860131Y-81784795D02*
X129707750Y-81784795D01*
X129707750Y-81784795D02*
X129631559Y-81822890D01*
X129631559Y-81822890D02*
X129593464Y-81860985D01*
X129593464Y-81860985D02*
X129517274Y-81975271D01*
X129517274Y-81975271D02*
X129479178Y-82127652D01*
X129479178Y-82127652D02*
X129479178Y-82432414D01*
X129479178Y-82432414D02*
X129517274Y-82508604D01*
X129517274Y-82508604D02*
X129555369Y-82546700D01*
X129555369Y-82546700D02*
X129631559Y-82584795D01*
X129631559Y-82584795D02*
X129783940Y-82584795D01*
X129783940Y-82584795D02*
X129860131Y-82546700D01*
X129860131Y-82546700D02*
X129898226Y-82508604D01*
X129898226Y-82508604D02*
X129936321Y-82432414D01*
X129936321Y-82432414D02*
X129936321Y-82241938D01*
X129936321Y-82241938D02*
X129898226Y-82165747D01*
X129898226Y-82165747D02*
X129860131Y-82127652D01*
X129860131Y-82127652D02*
X129783940Y-82089557D01*
X129783940Y-82089557D02*
X129631559Y-82089557D01*
X129631559Y-82089557D02*
X129555369Y-82127652D01*
X129555369Y-82127652D02*
X129517274Y-82165747D01*
X129517274Y-82165747D02*
X129479178Y-82241938D01*
X128717274Y-74964795D02*
X128717274Y-74164795D01*
X128717274Y-74164795D02*
X128907750Y-74164795D01*
X128907750Y-74164795D02*
X129022036Y-74202890D01*
X129022036Y-74202890D02*
X129098226Y-74279080D01*
X129098226Y-74279080D02*
X129136321Y-74355271D01*
X129136321Y-74355271D02*
X129174417Y-74507652D01*
X129174417Y-74507652D02*
X129174417Y-74621938D01*
X129174417Y-74621938D02*
X129136321Y-74774319D01*
X129136321Y-74774319D02*
X129098226Y-74850509D01*
X129098226Y-74850509D02*
X129022036Y-74926700D01*
X129022036Y-74926700D02*
X128907750Y-74964795D01*
X128907750Y-74964795D02*
X128717274Y-74964795D01*
X129936321Y-74964795D02*
X129479178Y-74964795D01*
X129707750Y-74964795D02*
X129707750Y-74164795D01*
X129707750Y-74164795D02*
X129631559Y-74279080D01*
X129631559Y-74279080D02*
X129555369Y-74355271D01*
X129555369Y-74355271D02*
X129479178Y-74393366D01*
X128717274Y-67344795D02*
X128717274Y-66544795D01*
X128717274Y-66544795D02*
X128907750Y-66544795D01*
X128907750Y-66544795D02*
X129022036Y-66582890D01*
X129022036Y-66582890D02*
X129098226Y-66659080D01*
X129098226Y-66659080D02*
X129136321Y-66735271D01*
X129136321Y-66735271D02*
X129174417Y-66887652D01*
X129174417Y-66887652D02*
X129174417Y-67001938D01*
X129174417Y-67001938D02*
X129136321Y-67154319D01*
X129136321Y-67154319D02*
X129098226Y-67230509D01*
X129098226Y-67230509D02*
X129022036Y-67306700D01*
X129022036Y-67306700D02*
X128907750Y-67344795D01*
X128907750Y-67344795D02*
X128717274Y-67344795D01*
X129479178Y-66620985D02*
X129517274Y-66582890D01*
X129517274Y-66582890D02*
X129593464Y-66544795D01*
X129593464Y-66544795D02*
X129783940Y-66544795D01*
X129783940Y-66544795D02*
X129860131Y-66582890D01*
X129860131Y-66582890D02*
X129898226Y-66620985D01*
X129898226Y-66620985D02*
X129936321Y-66697176D01*
X129936321Y-66697176D02*
X129936321Y-66773366D01*
X129936321Y-66773366D02*
X129898226Y-66887652D01*
X129898226Y-66887652D02*
X129441083Y-67344795D01*
X129441083Y-67344795D02*
X129936321Y-67344795D01*
X128983940Y-89785747D02*
X129098226Y-89823842D01*
X129098226Y-89823842D02*
X129136321Y-89861938D01*
X129136321Y-89861938D02*
X129174417Y-89938128D01*
X129174417Y-89938128D02*
X129174417Y-90052414D01*
X129174417Y-90052414D02*
X129136321Y-90128604D01*
X129136321Y-90128604D02*
X129098226Y-90166700D01*
X129098226Y-90166700D02*
X129022036Y-90204795D01*
X129022036Y-90204795D02*
X128717274Y-90204795D01*
X128717274Y-90204795D02*
X128717274Y-89404795D01*
X128717274Y-89404795D02*
X128983940Y-89404795D01*
X128983940Y-89404795D02*
X129060131Y-89442890D01*
X129060131Y-89442890D02*
X129098226Y-89480985D01*
X129098226Y-89480985D02*
X129136321Y-89557176D01*
X129136321Y-89557176D02*
X129136321Y-89633366D01*
X129136321Y-89633366D02*
X129098226Y-89709557D01*
X129098226Y-89709557D02*
X129060131Y-89747652D01*
X129060131Y-89747652D02*
X128983940Y-89785747D01*
X128983940Y-89785747D02*
X128717274Y-89785747D01*
X129860131Y-89671461D02*
X129860131Y-90204795D01*
X129669655Y-89366700D02*
X129479178Y-89938128D01*
X129479178Y-89938128D02*
X129974417Y-89938128D01*
X149900021Y-117101495D02*
X150014307Y-117139590D01*
X150014307Y-117139590D02*
X150052402Y-117177686D01*
X150052402Y-117177686D02*
X150090498Y-117253876D01*
X150090498Y-117253876D02*
X150090498Y-117368162D01*
X150090498Y-117368162D02*
X150052402Y-117444352D01*
X150052402Y-117444352D02*
X150014307Y-117482448D01*
X150014307Y-117482448D02*
X149938117Y-117520543D01*
X149938117Y-117520543D02*
X149633355Y-117520543D01*
X149633355Y-117520543D02*
X149633355Y-116720543D01*
X149633355Y-116720543D02*
X149900021Y-116720543D01*
X149900021Y-116720543D02*
X149976212Y-116758638D01*
X149976212Y-116758638D02*
X150014307Y-116796733D01*
X150014307Y-116796733D02*
X150052402Y-116872924D01*
X150052402Y-116872924D02*
X150052402Y-116949114D01*
X150052402Y-116949114D02*
X150014307Y-117025305D01*
X150014307Y-117025305D02*
X149976212Y-117063400D01*
X149976212Y-117063400D02*
X149900021Y-117101495D01*
X149900021Y-117101495D02*
X149633355Y-117101495D01*
X150776212Y-116720543D02*
X150623831Y-116720543D01*
X150623831Y-116720543D02*
X150547640Y-116758638D01*
X150547640Y-116758638D02*
X150509545Y-116796733D01*
X150509545Y-116796733D02*
X150433355Y-116911019D01*
X150433355Y-116911019D02*
X150395259Y-117063400D01*
X150395259Y-117063400D02*
X150395259Y-117368162D01*
X150395259Y-117368162D02*
X150433355Y-117444352D01*
X150433355Y-117444352D02*
X150471450Y-117482448D01*
X150471450Y-117482448D02*
X150547640Y-117520543D01*
X150547640Y-117520543D02*
X150700021Y-117520543D01*
X150700021Y-117520543D02*
X150776212Y-117482448D01*
X150776212Y-117482448D02*
X150814307Y-117444352D01*
X150814307Y-117444352D02*
X150852402Y-117368162D01*
X150852402Y-117368162D02*
X150852402Y-117177686D01*
X150852402Y-117177686D02*
X150814307Y-117101495D01*
X150814307Y-117101495D02*
X150776212Y-117063400D01*
X150776212Y-117063400D02*
X150700021Y-117025305D01*
X150700021Y-117025305D02*
X150547640Y-117025305D01*
X150547640Y-117025305D02*
X150471450Y-117063400D01*
X150471450Y-117063400D02*
X150433355Y-117101495D01*
X150433355Y-117101495D02*
X150395259Y-117177686D01*
X128755369Y-87245747D02*
X129022035Y-87245747D01*
X129136321Y-87664795D02*
X128755369Y-87664795D01*
X128755369Y-87664795D02*
X128755369Y-86864795D01*
X128755369Y-86864795D02*
X129136321Y-86864795D01*
X129822036Y-86864795D02*
X129669655Y-86864795D01*
X129669655Y-86864795D02*
X129593464Y-86902890D01*
X129593464Y-86902890D02*
X129555369Y-86940985D01*
X129555369Y-86940985D02*
X129479179Y-87055271D01*
X129479179Y-87055271D02*
X129441083Y-87207652D01*
X129441083Y-87207652D02*
X129441083Y-87512414D01*
X129441083Y-87512414D02*
X129479179Y-87588604D01*
X129479179Y-87588604D02*
X129517274Y-87626700D01*
X129517274Y-87626700D02*
X129593464Y-87664795D01*
X129593464Y-87664795D02*
X129745845Y-87664795D01*
X129745845Y-87664795D02*
X129822036Y-87626700D01*
X129822036Y-87626700D02*
X129860131Y-87588604D01*
X129860131Y-87588604D02*
X129898226Y-87512414D01*
X129898226Y-87512414D02*
X129898226Y-87321938D01*
X129898226Y-87321938D02*
X129860131Y-87245747D01*
X129860131Y-87245747D02*
X129822036Y-87207652D01*
X129822036Y-87207652D02*
X129745845Y-87169557D01*
X129745845Y-87169557D02*
X129593464Y-87169557D01*
X129593464Y-87169557D02*
X129517274Y-87207652D01*
X129517274Y-87207652D02*
X129479179Y-87245747D01*
X129479179Y-87245747D02*
X129441083Y-87321938D01*
X128717274Y-85124795D02*
X128717274Y-84324795D01*
X128717274Y-84324795D02*
X128907750Y-84324795D01*
X128907750Y-84324795D02*
X129022036Y-84362890D01*
X129022036Y-84362890D02*
X129098226Y-84439080D01*
X129098226Y-84439080D02*
X129136321Y-84515271D01*
X129136321Y-84515271D02*
X129174417Y-84667652D01*
X129174417Y-84667652D02*
X129174417Y-84781938D01*
X129174417Y-84781938D02*
X129136321Y-84934319D01*
X129136321Y-84934319D02*
X129098226Y-85010509D01*
X129098226Y-85010509D02*
X129022036Y-85086700D01*
X129022036Y-85086700D02*
X128907750Y-85124795D01*
X128907750Y-85124795D02*
X128717274Y-85124795D01*
X129441083Y-84324795D02*
X129974417Y-84324795D01*
X129974417Y-84324795D02*
X129631559Y-85124795D01*
X128698226Y-71662890D02*
X128622036Y-71624795D01*
X128622036Y-71624795D02*
X128507750Y-71624795D01*
X128507750Y-71624795D02*
X128393464Y-71662890D01*
X128393464Y-71662890D02*
X128317274Y-71739080D01*
X128317274Y-71739080D02*
X128279179Y-71815271D01*
X128279179Y-71815271D02*
X128241083Y-71967652D01*
X128241083Y-71967652D02*
X128241083Y-72081938D01*
X128241083Y-72081938D02*
X128279179Y-72234319D01*
X128279179Y-72234319D02*
X128317274Y-72310509D01*
X128317274Y-72310509D02*
X128393464Y-72386700D01*
X128393464Y-72386700D02*
X128507750Y-72424795D01*
X128507750Y-72424795D02*
X128583941Y-72424795D01*
X128583941Y-72424795D02*
X128698226Y-72386700D01*
X128698226Y-72386700D02*
X128736322Y-72348604D01*
X128736322Y-72348604D02*
X128736322Y-72081938D01*
X128736322Y-72081938D02*
X128583941Y-72081938D01*
X129079179Y-72424795D02*
X129079179Y-71624795D01*
X129079179Y-71624795D02*
X129536322Y-72424795D01*
X129536322Y-72424795D02*
X129536322Y-71624795D01*
X129917274Y-72424795D02*
X129917274Y-71624795D01*
X129917274Y-71624795D02*
X130107750Y-71624795D01*
X130107750Y-71624795D02*
X130222036Y-71662890D01*
X130222036Y-71662890D02*
X130298226Y-71739080D01*
X130298226Y-71739080D02*
X130336321Y-71815271D01*
X130336321Y-71815271D02*
X130374417Y-71967652D01*
X130374417Y-71967652D02*
X130374417Y-72081938D01*
X130374417Y-72081938D02*
X130336321Y-72234319D01*
X130336321Y-72234319D02*
X130298226Y-72310509D01*
X130298226Y-72310509D02*
X130222036Y-72386700D01*
X130222036Y-72386700D02*
X130107750Y-72424795D01*
X130107750Y-72424795D02*
X129917274Y-72424795D01*
X128983940Y-92325747D02*
X129098226Y-92363842D01*
X129098226Y-92363842D02*
X129136321Y-92401938D01*
X129136321Y-92401938D02*
X129174417Y-92478128D01*
X129174417Y-92478128D02*
X129174417Y-92592414D01*
X129174417Y-92592414D02*
X129136321Y-92668604D01*
X129136321Y-92668604D02*
X129098226Y-92706700D01*
X129098226Y-92706700D02*
X129022036Y-92744795D01*
X129022036Y-92744795D02*
X128717274Y-92744795D01*
X128717274Y-92744795D02*
X128717274Y-91944795D01*
X128717274Y-91944795D02*
X128983940Y-91944795D01*
X128983940Y-91944795D02*
X129060131Y-91982890D01*
X129060131Y-91982890D02*
X129098226Y-92020985D01*
X129098226Y-92020985D02*
X129136321Y-92097176D01*
X129136321Y-92097176D02*
X129136321Y-92173366D01*
X129136321Y-92173366D02*
X129098226Y-92249557D01*
X129098226Y-92249557D02*
X129060131Y-92287652D01*
X129060131Y-92287652D02*
X128983940Y-92325747D01*
X128983940Y-92325747D02*
X128717274Y-92325747D01*
X129898226Y-91944795D02*
X129517274Y-91944795D01*
X129517274Y-91944795D02*
X129479178Y-92325747D01*
X129479178Y-92325747D02*
X129517274Y-92287652D01*
X129517274Y-92287652D02*
X129593464Y-92249557D01*
X129593464Y-92249557D02*
X129783940Y-92249557D01*
X129783940Y-92249557D02*
X129860131Y-92287652D01*
X129860131Y-92287652D02*
X129898226Y-92325747D01*
X129898226Y-92325747D02*
X129936321Y-92401938D01*
X129936321Y-92401938D02*
X129936321Y-92592414D01*
X129936321Y-92592414D02*
X129898226Y-92668604D01*
X129898226Y-92668604D02*
X129860131Y-92706700D01*
X129860131Y-92706700D02*
X129783940Y-92744795D01*
X129783940Y-92744795D02*
X129593464Y-92744795D01*
X129593464Y-92744795D02*
X129517274Y-92706700D01*
X129517274Y-92706700D02*
X129479178Y-92668604D01*
X139968536Y-69816700D02*
X140082822Y-69854795D01*
X140082822Y-69854795D02*
X140273298Y-69854795D01*
X140273298Y-69854795D02*
X140349489Y-69816700D01*
X140349489Y-69816700D02*
X140387584Y-69778604D01*
X140387584Y-69778604D02*
X140425679Y-69702414D01*
X140425679Y-69702414D02*
X140425679Y-69626223D01*
X140425679Y-69626223D02*
X140387584Y-69550033D01*
X140387584Y-69550033D02*
X140349489Y-69511938D01*
X140349489Y-69511938D02*
X140273298Y-69473842D01*
X140273298Y-69473842D02*
X140120917Y-69435747D01*
X140120917Y-69435747D02*
X140044727Y-69397652D01*
X140044727Y-69397652D02*
X140006632Y-69359557D01*
X140006632Y-69359557D02*
X139968536Y-69283366D01*
X139968536Y-69283366D02*
X139968536Y-69207176D01*
X139968536Y-69207176D02*
X140006632Y-69130985D01*
X140006632Y-69130985D02*
X140044727Y-69092890D01*
X140044727Y-69092890D02*
X140120917Y-69054795D01*
X140120917Y-69054795D02*
X140311394Y-69054795D01*
X140311394Y-69054795D02*
X140425679Y-69092890D01*
X140654251Y-69054795D02*
X141111394Y-69054795D01*
X140882822Y-69854795D02*
X140882822Y-69054795D01*
X128717274Y-77504795D02*
X128717274Y-76704795D01*
X128717274Y-76704795D02*
X128907750Y-76704795D01*
X128907750Y-76704795D02*
X129022036Y-76742890D01*
X129022036Y-76742890D02*
X129098226Y-76819080D01*
X129098226Y-76819080D02*
X129136321Y-76895271D01*
X129136321Y-76895271D02*
X129174417Y-77047652D01*
X129174417Y-77047652D02*
X129174417Y-77161938D01*
X129174417Y-77161938D02*
X129136321Y-77314319D01*
X129136321Y-77314319D02*
X129098226Y-77390509D01*
X129098226Y-77390509D02*
X129022036Y-77466700D01*
X129022036Y-77466700D02*
X128907750Y-77504795D01*
X128907750Y-77504795D02*
X128717274Y-77504795D01*
X129669655Y-76704795D02*
X129745845Y-76704795D01*
X129745845Y-76704795D02*
X129822036Y-76742890D01*
X129822036Y-76742890D02*
X129860131Y-76780985D01*
X129860131Y-76780985D02*
X129898226Y-76857176D01*
X129898226Y-76857176D02*
X129936321Y-77009557D01*
X129936321Y-77009557D02*
X129936321Y-77200033D01*
X129936321Y-77200033D02*
X129898226Y-77352414D01*
X129898226Y-77352414D02*
X129860131Y-77428604D01*
X129860131Y-77428604D02*
X129822036Y-77466700D01*
X129822036Y-77466700D02*
X129745845Y-77504795D01*
X129745845Y-77504795D02*
X129669655Y-77504795D01*
X129669655Y-77504795D02*
X129593464Y-77466700D01*
X129593464Y-77466700D02*
X129555369Y-77428604D01*
X129555369Y-77428604D02*
X129517274Y-77352414D01*
X129517274Y-77352414D02*
X129479178Y-77200033D01*
X129479178Y-77200033D02*
X129479178Y-77009557D01*
X129479178Y-77009557D02*
X129517274Y-76857176D01*
X129517274Y-76857176D02*
X129555369Y-76780985D01*
X129555369Y-76780985D02*
X129593464Y-76742890D01*
X129593464Y-76742890D02*
X129669655Y-76704795D01*
X107813095Y-142392319D02*
X107813095Y-141392319D01*
X107813095Y-141868509D02*
X108384523Y-141868509D01*
X108384523Y-142392319D02*
X108384523Y-141392319D01*
X109003571Y-141820890D02*
X108908333Y-141773271D01*
X108908333Y-141773271D02*
X108860714Y-141725652D01*
X108860714Y-141725652D02*
X108813095Y-141630414D01*
X108813095Y-141630414D02*
X108813095Y-141582795D01*
X108813095Y-141582795D02*
X108860714Y-141487557D01*
X108860714Y-141487557D02*
X108908333Y-141439938D01*
X108908333Y-141439938D02*
X109003571Y-141392319D01*
X109003571Y-141392319D02*
X109194047Y-141392319D01*
X109194047Y-141392319D02*
X109289285Y-141439938D01*
X109289285Y-141439938D02*
X109336904Y-141487557D01*
X109336904Y-141487557D02*
X109384523Y-141582795D01*
X109384523Y-141582795D02*
X109384523Y-141630414D01*
X109384523Y-141630414D02*
X109336904Y-141725652D01*
X109336904Y-141725652D02*
X109289285Y-141773271D01*
X109289285Y-141773271D02*
X109194047Y-141820890D01*
X109194047Y-141820890D02*
X109003571Y-141820890D01*
X109003571Y-141820890D02*
X108908333Y-141868509D01*
X108908333Y-141868509D02*
X108860714Y-141916128D01*
X108860714Y-141916128D02*
X108813095Y-142011366D01*
X108813095Y-142011366D02*
X108813095Y-142201842D01*
X108813095Y-142201842D02*
X108860714Y-142297080D01*
X108860714Y-142297080D02*
X108908333Y-142344700D01*
X108908333Y-142344700D02*
X109003571Y-142392319D01*
X109003571Y-142392319D02*
X109194047Y-142392319D01*
X109194047Y-142392319D02*
X109289285Y-142344700D01*
X109289285Y-142344700D02*
X109336904Y-142297080D01*
X109336904Y-142297080D02*
X109384523Y-142201842D01*
X109384523Y-142201842D02*
X109384523Y-142011366D01*
X109384523Y-142011366D02*
X109336904Y-141916128D01*
X109336904Y-141916128D02*
X109289285Y-141868509D01*
X109289285Y-141868509D02*
X109194047Y-141820890D01*
X73427976Y-94632200D02*
X73570833Y-94679819D01*
X73570833Y-94679819D02*
X73808928Y-94679819D01*
X73808928Y-94679819D02*
X73904166Y-94632200D01*
X73904166Y-94632200D02*
X73951785Y-94584580D01*
X73951785Y-94584580D02*
X73999404Y-94489342D01*
X73999404Y-94489342D02*
X73999404Y-94394104D01*
X73999404Y-94394104D02*
X73951785Y-94298866D01*
X73951785Y-94298866D02*
X73904166Y-94251247D01*
X73904166Y-94251247D02*
X73808928Y-94203628D01*
X73808928Y-94203628D02*
X73618452Y-94156009D01*
X73618452Y-94156009D02*
X73523214Y-94108390D01*
X73523214Y-94108390D02*
X73475595Y-94060771D01*
X73475595Y-94060771D02*
X73427976Y-93965533D01*
X73427976Y-93965533D02*
X73427976Y-93870295D01*
X73427976Y-93870295D02*
X73475595Y-93775057D01*
X73475595Y-93775057D02*
X73523214Y-93727438D01*
X73523214Y-93727438D02*
X73618452Y-93679819D01*
X73618452Y-93679819D02*
X73856547Y-93679819D01*
X73856547Y-93679819D02*
X73999404Y-93727438D01*
X74332738Y-93679819D02*
X74570833Y-94679819D01*
X74570833Y-94679819D02*
X74761309Y-93965533D01*
X74761309Y-93965533D02*
X74951785Y-94679819D01*
X74951785Y-94679819D02*
X75189881Y-93679819D01*
X76094642Y-94679819D02*
X75523214Y-94679819D01*
X75808928Y-94679819D02*
X75808928Y-93679819D01*
X75808928Y-93679819D02*
X75713690Y-93822676D01*
X75713690Y-93822676D02*
X75618452Y-93917914D01*
X75618452Y-93917914D02*
X75523214Y-93965533D01*
X76951785Y-93679819D02*
X76761309Y-93679819D01*
X76761309Y-93679819D02*
X76666071Y-93727438D01*
X76666071Y-93727438D02*
X76618452Y-93775057D01*
X76618452Y-93775057D02*
X76523214Y-93917914D01*
X76523214Y-93917914D02*
X76475595Y-94108390D01*
X76475595Y-94108390D02*
X76475595Y-94489342D01*
X76475595Y-94489342D02*
X76523214Y-94584580D01*
X76523214Y-94584580D02*
X76570833Y-94632200D01*
X76570833Y-94632200D02*
X76666071Y-94679819D01*
X76666071Y-94679819D02*
X76856547Y-94679819D01*
X76856547Y-94679819D02*
X76951785Y-94632200D01*
X76951785Y-94632200D02*
X76999404Y-94584580D01*
X76999404Y-94584580D02*
X77047023Y-94489342D01*
X77047023Y-94489342D02*
X77047023Y-94251247D01*
X77047023Y-94251247D02*
X76999404Y-94156009D01*
X76999404Y-94156009D02*
X76951785Y-94108390D01*
X76951785Y-94108390D02*
X76856547Y-94060771D01*
X76856547Y-94060771D02*
X76666071Y-94060771D01*
X76666071Y-94060771D02*
X76570833Y-94108390D01*
X76570833Y-94108390D02*
X76523214Y-94156009D01*
X76523214Y-94156009D02*
X76475595Y-94251247D01*
X54377976Y-97013450D02*
X54520833Y-97061069D01*
X54520833Y-97061069D02*
X54758928Y-97061069D01*
X54758928Y-97061069D02*
X54854166Y-97013450D01*
X54854166Y-97013450D02*
X54901785Y-96965830D01*
X54901785Y-96965830D02*
X54949404Y-96870592D01*
X54949404Y-96870592D02*
X54949404Y-96775354D01*
X54949404Y-96775354D02*
X54901785Y-96680116D01*
X54901785Y-96680116D02*
X54854166Y-96632497D01*
X54854166Y-96632497D02*
X54758928Y-96584878D01*
X54758928Y-96584878D02*
X54568452Y-96537259D01*
X54568452Y-96537259D02*
X54473214Y-96489640D01*
X54473214Y-96489640D02*
X54425595Y-96442021D01*
X54425595Y-96442021D02*
X54377976Y-96346783D01*
X54377976Y-96346783D02*
X54377976Y-96251545D01*
X54377976Y-96251545D02*
X54425595Y-96156307D01*
X54425595Y-96156307D02*
X54473214Y-96108688D01*
X54473214Y-96108688D02*
X54568452Y-96061069D01*
X54568452Y-96061069D02*
X54806547Y-96061069D01*
X54806547Y-96061069D02*
X54949404Y-96108688D01*
X55282738Y-96061069D02*
X55520833Y-97061069D01*
X55520833Y-97061069D02*
X55711309Y-96346783D01*
X55711309Y-96346783D02*
X55901785Y-97061069D01*
X55901785Y-97061069D02*
X56139881Y-96061069D01*
X57044642Y-97061069D02*
X56473214Y-97061069D01*
X56758928Y-97061069D02*
X56758928Y-96061069D01*
X56758928Y-96061069D02*
X56663690Y-96203926D01*
X56663690Y-96203926D02*
X56568452Y-96299164D01*
X56568452Y-96299164D02*
X56473214Y-96346783D01*
X57949404Y-96061069D02*
X57473214Y-96061069D01*
X57473214Y-96061069D02*
X57425595Y-96537259D01*
X57425595Y-96537259D02*
X57473214Y-96489640D01*
X57473214Y-96489640D02*
X57568452Y-96442021D01*
X57568452Y-96442021D02*
X57806547Y-96442021D01*
X57806547Y-96442021D02*
X57901785Y-96489640D01*
X57901785Y-96489640D02*
X57949404Y-96537259D01*
X57949404Y-96537259D02*
X57997023Y-96632497D01*
X57997023Y-96632497D02*
X57997023Y-96870592D01*
X57997023Y-96870592D02*
X57949404Y-96965830D01*
X57949404Y-96965830D02*
X57901785Y-97013450D01*
X57901785Y-97013450D02*
X57806547Y-97061069D01*
X57806547Y-97061069D02*
X57568452Y-97061069D01*
X57568452Y-97061069D02*
X57473214Y-97013450D01*
X57473214Y-97013450D02*
X57425595Y-96965830D01*
X237218680Y-115032026D02*
X237218680Y-114032026D01*
X237218680Y-114508216D02*
X237790108Y-114508216D01*
X237790108Y-115032026D02*
X237790108Y-114032026D01*
X238742489Y-114032026D02*
X238266299Y-114032026D01*
X238266299Y-114032026D02*
X238218680Y-114508216D01*
X238218680Y-114508216D02*
X238266299Y-114460597D01*
X238266299Y-114460597D02*
X238361537Y-114412978D01*
X238361537Y-114412978D02*
X238599632Y-114412978D01*
X238599632Y-114412978D02*
X238694870Y-114460597D01*
X238694870Y-114460597D02*
X238742489Y-114508216D01*
X238742489Y-114508216D02*
X238790108Y-114603454D01*
X238790108Y-114603454D02*
X238790108Y-114841549D01*
X238790108Y-114841549D02*
X238742489Y-114936787D01*
X238742489Y-114936787D02*
X238694870Y-114984407D01*
X238694870Y-114984407D02*
X238599632Y-115032026D01*
X238599632Y-115032026D02*
X238361537Y-115032026D01*
X238361537Y-115032026D02*
X238266299Y-114984407D01*
X238266299Y-114984407D02*
X238218680Y-114936787D01*
X54854167Y-77963450D02*
X54997024Y-78011069D01*
X54997024Y-78011069D02*
X55235119Y-78011069D01*
X55235119Y-78011069D02*
X55330357Y-77963450D01*
X55330357Y-77963450D02*
X55377976Y-77915830D01*
X55377976Y-77915830D02*
X55425595Y-77820592D01*
X55425595Y-77820592D02*
X55425595Y-77725354D01*
X55425595Y-77725354D02*
X55377976Y-77630116D01*
X55377976Y-77630116D02*
X55330357Y-77582497D01*
X55330357Y-77582497D02*
X55235119Y-77534878D01*
X55235119Y-77534878D02*
X55044643Y-77487259D01*
X55044643Y-77487259D02*
X54949405Y-77439640D01*
X54949405Y-77439640D02*
X54901786Y-77392021D01*
X54901786Y-77392021D02*
X54854167Y-77296783D01*
X54854167Y-77296783D02*
X54854167Y-77201545D01*
X54854167Y-77201545D02*
X54901786Y-77106307D01*
X54901786Y-77106307D02*
X54949405Y-77058688D01*
X54949405Y-77058688D02*
X55044643Y-77011069D01*
X55044643Y-77011069D02*
X55282738Y-77011069D01*
X55282738Y-77011069D02*
X55425595Y-77058688D01*
X55758929Y-77011069D02*
X55997024Y-78011069D01*
X55997024Y-78011069D02*
X56187500Y-77296783D01*
X56187500Y-77296783D02*
X56377976Y-78011069D01*
X56377976Y-78011069D02*
X56616072Y-77011069D01*
X57044643Y-78011069D02*
X57235119Y-78011069D01*
X57235119Y-78011069D02*
X57330357Y-77963450D01*
X57330357Y-77963450D02*
X57377976Y-77915830D01*
X57377976Y-77915830D02*
X57473214Y-77772973D01*
X57473214Y-77772973D02*
X57520833Y-77582497D01*
X57520833Y-77582497D02*
X57520833Y-77201545D01*
X57520833Y-77201545D02*
X57473214Y-77106307D01*
X57473214Y-77106307D02*
X57425595Y-77058688D01*
X57425595Y-77058688D02*
X57330357Y-77011069D01*
X57330357Y-77011069D02*
X57139881Y-77011069D01*
X57139881Y-77011069D02*
X57044643Y-77058688D01*
X57044643Y-77058688D02*
X56997024Y-77106307D01*
X56997024Y-77106307D02*
X56949405Y-77201545D01*
X56949405Y-77201545D02*
X56949405Y-77439640D01*
X56949405Y-77439640D02*
X56997024Y-77534878D01*
X56997024Y-77534878D02*
X57044643Y-77582497D01*
X57044643Y-77582497D02*
X57139881Y-77630116D01*
X57139881Y-77630116D02*
X57330357Y-77630116D01*
X57330357Y-77630116D02*
X57425595Y-77582497D01*
X57425595Y-77582497D02*
X57473214Y-77534878D01*
X57473214Y-77534878D02*
X57520833Y-77439640D01*
X73904167Y-56532200D02*
X74047024Y-56579819D01*
X74047024Y-56579819D02*
X74285119Y-56579819D01*
X74285119Y-56579819D02*
X74380357Y-56532200D01*
X74380357Y-56532200D02*
X74427976Y-56484580D01*
X74427976Y-56484580D02*
X74475595Y-56389342D01*
X74475595Y-56389342D02*
X74475595Y-56294104D01*
X74475595Y-56294104D02*
X74427976Y-56198866D01*
X74427976Y-56198866D02*
X74380357Y-56151247D01*
X74380357Y-56151247D02*
X74285119Y-56103628D01*
X74285119Y-56103628D02*
X74094643Y-56056009D01*
X74094643Y-56056009D02*
X73999405Y-56008390D01*
X73999405Y-56008390D02*
X73951786Y-55960771D01*
X73951786Y-55960771D02*
X73904167Y-55865533D01*
X73904167Y-55865533D02*
X73904167Y-55770295D01*
X73904167Y-55770295D02*
X73951786Y-55675057D01*
X73951786Y-55675057D02*
X73999405Y-55627438D01*
X73999405Y-55627438D02*
X74094643Y-55579819D01*
X74094643Y-55579819D02*
X74332738Y-55579819D01*
X74332738Y-55579819D02*
X74475595Y-55627438D01*
X74808929Y-55579819D02*
X75047024Y-56579819D01*
X75047024Y-56579819D02*
X75237500Y-55865533D01*
X75237500Y-55865533D02*
X75427976Y-56579819D01*
X75427976Y-56579819D02*
X75666072Y-55579819D01*
X76475595Y-55913152D02*
X76475595Y-56579819D01*
X76237500Y-55532200D02*
X75999405Y-56246485D01*
X75999405Y-56246485D02*
X76618452Y-56246485D01*
X111527976Y-99394700D02*
X111670833Y-99442319D01*
X111670833Y-99442319D02*
X111908928Y-99442319D01*
X111908928Y-99442319D02*
X112004166Y-99394700D01*
X112004166Y-99394700D02*
X112051785Y-99347080D01*
X112051785Y-99347080D02*
X112099404Y-99251842D01*
X112099404Y-99251842D02*
X112099404Y-99156604D01*
X112099404Y-99156604D02*
X112051785Y-99061366D01*
X112051785Y-99061366D02*
X112004166Y-99013747D01*
X112004166Y-99013747D02*
X111908928Y-98966128D01*
X111908928Y-98966128D02*
X111718452Y-98918509D01*
X111718452Y-98918509D02*
X111623214Y-98870890D01*
X111623214Y-98870890D02*
X111575595Y-98823271D01*
X111575595Y-98823271D02*
X111527976Y-98728033D01*
X111527976Y-98728033D02*
X111527976Y-98632795D01*
X111527976Y-98632795D02*
X111575595Y-98537557D01*
X111575595Y-98537557D02*
X111623214Y-98489938D01*
X111623214Y-98489938D02*
X111718452Y-98442319D01*
X111718452Y-98442319D02*
X111956547Y-98442319D01*
X111956547Y-98442319D02*
X112099404Y-98489938D01*
X112432738Y-98442319D02*
X112670833Y-99442319D01*
X112670833Y-99442319D02*
X112861309Y-98728033D01*
X112861309Y-98728033D02*
X113051785Y-99442319D01*
X113051785Y-99442319D02*
X113289881Y-98442319D01*
X114194642Y-99442319D02*
X113623214Y-99442319D01*
X113908928Y-99442319D02*
X113908928Y-98442319D01*
X113908928Y-98442319D02*
X113813690Y-98585176D01*
X113813690Y-98585176D02*
X113718452Y-98680414D01*
X113718452Y-98680414D02*
X113623214Y-98728033D01*
X114766071Y-98870890D02*
X114670833Y-98823271D01*
X114670833Y-98823271D02*
X114623214Y-98775652D01*
X114623214Y-98775652D02*
X114575595Y-98680414D01*
X114575595Y-98680414D02*
X114575595Y-98632795D01*
X114575595Y-98632795D02*
X114623214Y-98537557D01*
X114623214Y-98537557D02*
X114670833Y-98489938D01*
X114670833Y-98489938D02*
X114766071Y-98442319D01*
X114766071Y-98442319D02*
X114956547Y-98442319D01*
X114956547Y-98442319D02*
X115051785Y-98489938D01*
X115051785Y-98489938D02*
X115099404Y-98537557D01*
X115099404Y-98537557D02*
X115147023Y-98632795D01*
X115147023Y-98632795D02*
X115147023Y-98680414D01*
X115147023Y-98680414D02*
X115099404Y-98775652D01*
X115099404Y-98775652D02*
X115051785Y-98823271D01*
X115051785Y-98823271D02*
X114956547Y-98870890D01*
X114956547Y-98870890D02*
X114766071Y-98870890D01*
X114766071Y-98870890D02*
X114670833Y-98918509D01*
X114670833Y-98918509D02*
X114623214Y-98966128D01*
X114623214Y-98966128D02*
X114575595Y-99061366D01*
X114575595Y-99061366D02*
X114575595Y-99251842D01*
X114575595Y-99251842D02*
X114623214Y-99347080D01*
X114623214Y-99347080D02*
X114670833Y-99394700D01*
X114670833Y-99394700D02*
X114766071Y-99442319D01*
X114766071Y-99442319D02*
X114956547Y-99442319D01*
X114956547Y-99442319D02*
X115051785Y-99394700D01*
X115051785Y-99394700D02*
X115099404Y-99347080D01*
X115099404Y-99347080D02*
X115147023Y-99251842D01*
X115147023Y-99251842D02*
X115147023Y-99061366D01*
X115147023Y-99061366D02*
X115099404Y-98966128D01*
X115099404Y-98966128D02*
X115051785Y-98918509D01*
X115051785Y-98918509D02*
X114956547Y-98870890D01*
X163322249Y-70955040D02*
X163322249Y-69955040D01*
X163322249Y-70431230D02*
X163893677Y-70431230D01*
X163893677Y-70955040D02*
X163893677Y-69955040D01*
X164893677Y-70955040D02*
X164322249Y-70955040D01*
X164607963Y-70955040D02*
X164607963Y-69955040D01*
X164607963Y-69955040D02*
X164512725Y-70097897D01*
X164512725Y-70097897D02*
X164417487Y-70193135D01*
X164417487Y-70193135D02*
X164322249Y-70240754D01*
X59643155Y-115073569D02*
X59643155Y-114073569D01*
X59643155Y-114549759D02*
X60214583Y-114549759D01*
X60214583Y-115073569D02*
X60214583Y-114073569D01*
X61214583Y-115073569D02*
X60643155Y-115073569D01*
X60928869Y-115073569D02*
X60928869Y-114073569D01*
X60928869Y-114073569D02*
X60833631Y-114216426D01*
X60833631Y-114216426D02*
X60738393Y-114311664D01*
X60738393Y-114311664D02*
X60643155Y-114359283D01*
X61833631Y-114073569D02*
X61928869Y-114073569D01*
X61928869Y-114073569D02*
X62024107Y-114121188D01*
X62024107Y-114121188D02*
X62071726Y-114168807D01*
X62071726Y-114168807D02*
X62119345Y-114264045D01*
X62119345Y-114264045D02*
X62166964Y-114454521D01*
X62166964Y-114454521D02*
X62166964Y-114692616D01*
X62166964Y-114692616D02*
X62119345Y-114883092D01*
X62119345Y-114883092D02*
X62071726Y-114978330D01*
X62071726Y-114978330D02*
X62024107Y-115025950D01*
X62024107Y-115025950D02*
X61928869Y-115073569D01*
X61928869Y-115073569D02*
X61833631Y-115073569D01*
X61833631Y-115073569D02*
X61738393Y-115025950D01*
X61738393Y-115025950D02*
X61690774Y-114978330D01*
X61690774Y-114978330D02*
X61643155Y-114883092D01*
X61643155Y-114883092D02*
X61595536Y-114692616D01*
X61595536Y-114692616D02*
X61595536Y-114454521D01*
X61595536Y-114454521D02*
X61643155Y-114264045D01*
X61643155Y-114264045D02*
X61690774Y-114168807D01*
X61690774Y-114168807D02*
X61738393Y-114121188D01*
X61738393Y-114121188D02*
X61833631Y-114073569D01*
X73427976Y-75582200D02*
X73570833Y-75629819D01*
X73570833Y-75629819D02*
X73808928Y-75629819D01*
X73808928Y-75629819D02*
X73904166Y-75582200D01*
X73904166Y-75582200D02*
X73951785Y-75534580D01*
X73951785Y-75534580D02*
X73999404Y-75439342D01*
X73999404Y-75439342D02*
X73999404Y-75344104D01*
X73999404Y-75344104D02*
X73951785Y-75248866D01*
X73951785Y-75248866D02*
X73904166Y-75201247D01*
X73904166Y-75201247D02*
X73808928Y-75153628D01*
X73808928Y-75153628D02*
X73618452Y-75106009D01*
X73618452Y-75106009D02*
X73523214Y-75058390D01*
X73523214Y-75058390D02*
X73475595Y-75010771D01*
X73475595Y-75010771D02*
X73427976Y-74915533D01*
X73427976Y-74915533D02*
X73427976Y-74820295D01*
X73427976Y-74820295D02*
X73475595Y-74725057D01*
X73475595Y-74725057D02*
X73523214Y-74677438D01*
X73523214Y-74677438D02*
X73618452Y-74629819D01*
X73618452Y-74629819D02*
X73856547Y-74629819D01*
X73856547Y-74629819D02*
X73999404Y-74677438D01*
X74332738Y-74629819D02*
X74570833Y-75629819D01*
X74570833Y-75629819D02*
X74761309Y-74915533D01*
X74761309Y-74915533D02*
X74951785Y-75629819D01*
X74951785Y-75629819D02*
X75189881Y-74629819D01*
X76094642Y-75629819D02*
X75523214Y-75629819D01*
X75808928Y-75629819D02*
X75808928Y-74629819D01*
X75808928Y-74629819D02*
X75713690Y-74772676D01*
X75713690Y-74772676D02*
X75618452Y-74867914D01*
X75618452Y-74867914D02*
X75523214Y-74915533D01*
X76713690Y-74629819D02*
X76808928Y-74629819D01*
X76808928Y-74629819D02*
X76904166Y-74677438D01*
X76904166Y-74677438D02*
X76951785Y-74725057D01*
X76951785Y-74725057D02*
X76999404Y-74820295D01*
X76999404Y-74820295D02*
X77047023Y-75010771D01*
X77047023Y-75010771D02*
X77047023Y-75248866D01*
X77047023Y-75248866D02*
X76999404Y-75439342D01*
X76999404Y-75439342D02*
X76951785Y-75534580D01*
X76951785Y-75534580D02*
X76904166Y-75582200D01*
X76904166Y-75582200D02*
X76808928Y-75629819D01*
X76808928Y-75629819D02*
X76713690Y-75629819D01*
X76713690Y-75629819D02*
X76618452Y-75582200D01*
X76618452Y-75582200D02*
X76570833Y-75534580D01*
X76570833Y-75534580D02*
X76523214Y-75439342D01*
X76523214Y-75439342D02*
X76475595Y-75248866D01*
X76475595Y-75248866D02*
X76475595Y-75010771D01*
X76475595Y-75010771D02*
X76523214Y-74820295D01*
X76523214Y-74820295D02*
X76570833Y-74725057D01*
X76570833Y-74725057D02*
X76618452Y-74677438D01*
X76618452Y-74677438D02*
X76713690Y-74629819D01*
X35327976Y-101775950D02*
X35470833Y-101823569D01*
X35470833Y-101823569D02*
X35708928Y-101823569D01*
X35708928Y-101823569D02*
X35804166Y-101775950D01*
X35804166Y-101775950D02*
X35851785Y-101728330D01*
X35851785Y-101728330D02*
X35899404Y-101633092D01*
X35899404Y-101633092D02*
X35899404Y-101537854D01*
X35899404Y-101537854D02*
X35851785Y-101442616D01*
X35851785Y-101442616D02*
X35804166Y-101394997D01*
X35804166Y-101394997D02*
X35708928Y-101347378D01*
X35708928Y-101347378D02*
X35518452Y-101299759D01*
X35518452Y-101299759D02*
X35423214Y-101252140D01*
X35423214Y-101252140D02*
X35375595Y-101204521D01*
X35375595Y-101204521D02*
X35327976Y-101109283D01*
X35327976Y-101109283D02*
X35327976Y-101014045D01*
X35327976Y-101014045D02*
X35375595Y-100918807D01*
X35375595Y-100918807D02*
X35423214Y-100871188D01*
X35423214Y-100871188D02*
X35518452Y-100823569D01*
X35518452Y-100823569D02*
X35756547Y-100823569D01*
X35756547Y-100823569D02*
X35899404Y-100871188D01*
X36232738Y-100823569D02*
X36470833Y-101823569D01*
X36470833Y-101823569D02*
X36661309Y-101109283D01*
X36661309Y-101109283D02*
X36851785Y-101823569D01*
X36851785Y-101823569D02*
X37089881Y-100823569D01*
X37994642Y-101823569D02*
X37423214Y-101823569D01*
X37708928Y-101823569D02*
X37708928Y-100823569D01*
X37708928Y-100823569D02*
X37613690Y-100966426D01*
X37613690Y-100966426D02*
X37518452Y-101061664D01*
X37518452Y-101061664D02*
X37423214Y-101109283D01*
X38851785Y-101156902D02*
X38851785Y-101823569D01*
X38613690Y-100775950D02*
X38375595Y-101490235D01*
X38375595Y-101490235D02*
X38994642Y-101490235D01*
X35804167Y-82725950D02*
X35947024Y-82773569D01*
X35947024Y-82773569D02*
X36185119Y-82773569D01*
X36185119Y-82773569D02*
X36280357Y-82725950D01*
X36280357Y-82725950D02*
X36327976Y-82678330D01*
X36327976Y-82678330D02*
X36375595Y-82583092D01*
X36375595Y-82583092D02*
X36375595Y-82487854D01*
X36375595Y-82487854D02*
X36327976Y-82392616D01*
X36327976Y-82392616D02*
X36280357Y-82344997D01*
X36280357Y-82344997D02*
X36185119Y-82297378D01*
X36185119Y-82297378D02*
X35994643Y-82249759D01*
X35994643Y-82249759D02*
X35899405Y-82202140D01*
X35899405Y-82202140D02*
X35851786Y-82154521D01*
X35851786Y-82154521D02*
X35804167Y-82059283D01*
X35804167Y-82059283D02*
X35804167Y-81964045D01*
X35804167Y-81964045D02*
X35851786Y-81868807D01*
X35851786Y-81868807D02*
X35899405Y-81821188D01*
X35899405Y-81821188D02*
X35994643Y-81773569D01*
X35994643Y-81773569D02*
X36232738Y-81773569D01*
X36232738Y-81773569D02*
X36375595Y-81821188D01*
X36708929Y-81773569D02*
X36947024Y-82773569D01*
X36947024Y-82773569D02*
X37137500Y-82059283D01*
X37137500Y-82059283D02*
X37327976Y-82773569D01*
X37327976Y-82773569D02*
X37566072Y-81773569D01*
X38089881Y-82202140D02*
X37994643Y-82154521D01*
X37994643Y-82154521D02*
X37947024Y-82106902D01*
X37947024Y-82106902D02*
X37899405Y-82011664D01*
X37899405Y-82011664D02*
X37899405Y-81964045D01*
X37899405Y-81964045D02*
X37947024Y-81868807D01*
X37947024Y-81868807D02*
X37994643Y-81821188D01*
X37994643Y-81821188D02*
X38089881Y-81773569D01*
X38089881Y-81773569D02*
X38280357Y-81773569D01*
X38280357Y-81773569D02*
X38375595Y-81821188D01*
X38375595Y-81821188D02*
X38423214Y-81868807D01*
X38423214Y-81868807D02*
X38470833Y-81964045D01*
X38470833Y-81964045D02*
X38470833Y-82011664D01*
X38470833Y-82011664D02*
X38423214Y-82106902D01*
X38423214Y-82106902D02*
X38375595Y-82154521D01*
X38375595Y-82154521D02*
X38280357Y-82202140D01*
X38280357Y-82202140D02*
X38089881Y-82202140D01*
X38089881Y-82202140D02*
X37994643Y-82249759D01*
X37994643Y-82249759D02*
X37947024Y-82297378D01*
X37947024Y-82297378D02*
X37899405Y-82392616D01*
X37899405Y-82392616D02*
X37899405Y-82583092D01*
X37899405Y-82583092D02*
X37947024Y-82678330D01*
X37947024Y-82678330D02*
X37994643Y-82725950D01*
X37994643Y-82725950D02*
X38089881Y-82773569D01*
X38089881Y-82773569D02*
X38280357Y-82773569D01*
X38280357Y-82773569D02*
X38375595Y-82725950D01*
X38375595Y-82725950D02*
X38423214Y-82678330D01*
X38423214Y-82678330D02*
X38470833Y-82583092D01*
X38470833Y-82583092D02*
X38470833Y-82392616D01*
X38470833Y-82392616D02*
X38423214Y-82297378D01*
X38423214Y-82297378D02*
X38375595Y-82249759D01*
X38375595Y-82249759D02*
X38280357Y-82202140D01*
X163322249Y-100720665D02*
X163322249Y-99720665D01*
X163322249Y-100196855D02*
X163893677Y-100196855D01*
X163893677Y-100720665D02*
X163893677Y-99720665D01*
X164798439Y-100053998D02*
X164798439Y-100720665D01*
X164560344Y-99673046D02*
X164322249Y-100387331D01*
X164322249Y-100387331D02*
X164941296Y-100387331D01*
X92477976Y-97013450D02*
X92620833Y-97061069D01*
X92620833Y-97061069D02*
X92858928Y-97061069D01*
X92858928Y-97061069D02*
X92954166Y-97013450D01*
X92954166Y-97013450D02*
X93001785Y-96965830D01*
X93001785Y-96965830D02*
X93049404Y-96870592D01*
X93049404Y-96870592D02*
X93049404Y-96775354D01*
X93049404Y-96775354D02*
X93001785Y-96680116D01*
X93001785Y-96680116D02*
X92954166Y-96632497D01*
X92954166Y-96632497D02*
X92858928Y-96584878D01*
X92858928Y-96584878D02*
X92668452Y-96537259D01*
X92668452Y-96537259D02*
X92573214Y-96489640D01*
X92573214Y-96489640D02*
X92525595Y-96442021D01*
X92525595Y-96442021D02*
X92477976Y-96346783D01*
X92477976Y-96346783D02*
X92477976Y-96251545D01*
X92477976Y-96251545D02*
X92525595Y-96156307D01*
X92525595Y-96156307D02*
X92573214Y-96108688D01*
X92573214Y-96108688D02*
X92668452Y-96061069D01*
X92668452Y-96061069D02*
X92906547Y-96061069D01*
X92906547Y-96061069D02*
X93049404Y-96108688D01*
X93382738Y-96061069D02*
X93620833Y-97061069D01*
X93620833Y-97061069D02*
X93811309Y-96346783D01*
X93811309Y-96346783D02*
X94001785Y-97061069D01*
X94001785Y-97061069D02*
X94239881Y-96061069D01*
X95144642Y-97061069D02*
X94573214Y-97061069D01*
X94858928Y-97061069D02*
X94858928Y-96061069D01*
X94858928Y-96061069D02*
X94763690Y-96203926D01*
X94763690Y-96203926D02*
X94668452Y-96299164D01*
X94668452Y-96299164D02*
X94573214Y-96346783D01*
X95477976Y-96061069D02*
X96144642Y-96061069D01*
X96144642Y-96061069D02*
X95716071Y-97061069D01*
X112004167Y-61294700D02*
X112147024Y-61342319D01*
X112147024Y-61342319D02*
X112385119Y-61342319D01*
X112385119Y-61342319D02*
X112480357Y-61294700D01*
X112480357Y-61294700D02*
X112527976Y-61247080D01*
X112527976Y-61247080D02*
X112575595Y-61151842D01*
X112575595Y-61151842D02*
X112575595Y-61056604D01*
X112575595Y-61056604D02*
X112527976Y-60961366D01*
X112527976Y-60961366D02*
X112480357Y-60913747D01*
X112480357Y-60913747D02*
X112385119Y-60866128D01*
X112385119Y-60866128D02*
X112194643Y-60818509D01*
X112194643Y-60818509D02*
X112099405Y-60770890D01*
X112099405Y-60770890D02*
X112051786Y-60723271D01*
X112051786Y-60723271D02*
X112004167Y-60628033D01*
X112004167Y-60628033D02*
X112004167Y-60532795D01*
X112004167Y-60532795D02*
X112051786Y-60437557D01*
X112051786Y-60437557D02*
X112099405Y-60389938D01*
X112099405Y-60389938D02*
X112194643Y-60342319D01*
X112194643Y-60342319D02*
X112432738Y-60342319D01*
X112432738Y-60342319D02*
X112575595Y-60389938D01*
X112908929Y-60342319D02*
X113147024Y-61342319D01*
X113147024Y-61342319D02*
X113337500Y-60628033D01*
X113337500Y-60628033D02*
X113527976Y-61342319D01*
X113527976Y-61342319D02*
X113766072Y-60342319D01*
X114575595Y-60342319D02*
X114385119Y-60342319D01*
X114385119Y-60342319D02*
X114289881Y-60389938D01*
X114289881Y-60389938D02*
X114242262Y-60437557D01*
X114242262Y-60437557D02*
X114147024Y-60580414D01*
X114147024Y-60580414D02*
X114099405Y-60770890D01*
X114099405Y-60770890D02*
X114099405Y-61151842D01*
X114099405Y-61151842D02*
X114147024Y-61247080D01*
X114147024Y-61247080D02*
X114194643Y-61294700D01*
X114194643Y-61294700D02*
X114289881Y-61342319D01*
X114289881Y-61342319D02*
X114480357Y-61342319D01*
X114480357Y-61342319D02*
X114575595Y-61294700D01*
X114575595Y-61294700D02*
X114623214Y-61247080D01*
X114623214Y-61247080D02*
X114670833Y-61151842D01*
X114670833Y-61151842D02*
X114670833Y-60913747D01*
X114670833Y-60913747D02*
X114623214Y-60818509D01*
X114623214Y-60818509D02*
X114575595Y-60770890D01*
X114575595Y-60770890D02*
X114480357Y-60723271D01*
X114480357Y-60723271D02*
X114289881Y-60723271D01*
X114289881Y-60723271D02*
X114194643Y-60770890D01*
X114194643Y-60770890D02*
X114147024Y-60818509D01*
X114147024Y-60818509D02*
X114099405Y-60913747D01*
X111527976Y-80344700D02*
X111670833Y-80392319D01*
X111670833Y-80392319D02*
X111908928Y-80392319D01*
X111908928Y-80392319D02*
X112004166Y-80344700D01*
X112004166Y-80344700D02*
X112051785Y-80297080D01*
X112051785Y-80297080D02*
X112099404Y-80201842D01*
X112099404Y-80201842D02*
X112099404Y-80106604D01*
X112099404Y-80106604D02*
X112051785Y-80011366D01*
X112051785Y-80011366D02*
X112004166Y-79963747D01*
X112004166Y-79963747D02*
X111908928Y-79916128D01*
X111908928Y-79916128D02*
X111718452Y-79868509D01*
X111718452Y-79868509D02*
X111623214Y-79820890D01*
X111623214Y-79820890D02*
X111575595Y-79773271D01*
X111575595Y-79773271D02*
X111527976Y-79678033D01*
X111527976Y-79678033D02*
X111527976Y-79582795D01*
X111527976Y-79582795D02*
X111575595Y-79487557D01*
X111575595Y-79487557D02*
X111623214Y-79439938D01*
X111623214Y-79439938D02*
X111718452Y-79392319D01*
X111718452Y-79392319D02*
X111956547Y-79392319D01*
X111956547Y-79392319D02*
X112099404Y-79439938D01*
X112432738Y-79392319D02*
X112670833Y-80392319D01*
X112670833Y-80392319D02*
X112861309Y-79678033D01*
X112861309Y-79678033D02*
X113051785Y-80392319D01*
X113051785Y-80392319D02*
X113289881Y-79392319D01*
X114194642Y-80392319D02*
X113623214Y-80392319D01*
X113908928Y-80392319D02*
X113908928Y-79392319D01*
X113908928Y-79392319D02*
X113813690Y-79535176D01*
X113813690Y-79535176D02*
X113718452Y-79630414D01*
X113718452Y-79630414D02*
X113623214Y-79678033D01*
X114575595Y-79487557D02*
X114623214Y-79439938D01*
X114623214Y-79439938D02*
X114718452Y-79392319D01*
X114718452Y-79392319D02*
X114956547Y-79392319D01*
X114956547Y-79392319D02*
X115051785Y-79439938D01*
X115051785Y-79439938D02*
X115099404Y-79487557D01*
X115099404Y-79487557D02*
X115147023Y-79582795D01*
X115147023Y-79582795D02*
X115147023Y-79678033D01*
X115147023Y-79678033D02*
X115099404Y-79820890D01*
X115099404Y-79820890D02*
X114527976Y-80392319D01*
X114527976Y-80392319D02*
X115147023Y-80392319D01*
X232414662Y-91099230D02*
X232414662Y-90099230D01*
X232414662Y-90575420D02*
X232986090Y-90575420D01*
X232986090Y-91099230D02*
X232986090Y-90099230D01*
X233414662Y-90194468D02*
X233462281Y-90146849D01*
X233462281Y-90146849D02*
X233557519Y-90099230D01*
X233557519Y-90099230D02*
X233795614Y-90099230D01*
X233795614Y-90099230D02*
X233890852Y-90146849D01*
X233890852Y-90146849D02*
X233938471Y-90194468D01*
X233938471Y-90194468D02*
X233986090Y-90289706D01*
X233986090Y-90289706D02*
X233986090Y-90384944D01*
X233986090Y-90384944D02*
X233938471Y-90527801D01*
X233938471Y-90527801D02*
X233367043Y-91099230D01*
X233367043Y-91099230D02*
X233986090Y-91099230D01*
X35804167Y-63675950D02*
X35947024Y-63723569D01*
X35947024Y-63723569D02*
X36185119Y-63723569D01*
X36185119Y-63723569D02*
X36280357Y-63675950D01*
X36280357Y-63675950D02*
X36327976Y-63628330D01*
X36327976Y-63628330D02*
X36375595Y-63533092D01*
X36375595Y-63533092D02*
X36375595Y-63437854D01*
X36375595Y-63437854D02*
X36327976Y-63342616D01*
X36327976Y-63342616D02*
X36280357Y-63294997D01*
X36280357Y-63294997D02*
X36185119Y-63247378D01*
X36185119Y-63247378D02*
X35994643Y-63199759D01*
X35994643Y-63199759D02*
X35899405Y-63152140D01*
X35899405Y-63152140D02*
X35851786Y-63104521D01*
X35851786Y-63104521D02*
X35804167Y-63009283D01*
X35804167Y-63009283D02*
X35804167Y-62914045D01*
X35804167Y-62914045D02*
X35851786Y-62818807D01*
X35851786Y-62818807D02*
X35899405Y-62771188D01*
X35899405Y-62771188D02*
X35994643Y-62723569D01*
X35994643Y-62723569D02*
X36232738Y-62723569D01*
X36232738Y-62723569D02*
X36375595Y-62771188D01*
X36708929Y-62723569D02*
X36947024Y-63723569D01*
X36947024Y-63723569D02*
X37137500Y-63009283D01*
X37137500Y-63009283D02*
X37327976Y-63723569D01*
X37327976Y-63723569D02*
X37566072Y-62723569D01*
X37899405Y-62818807D02*
X37947024Y-62771188D01*
X37947024Y-62771188D02*
X38042262Y-62723569D01*
X38042262Y-62723569D02*
X38280357Y-62723569D01*
X38280357Y-62723569D02*
X38375595Y-62771188D01*
X38375595Y-62771188D02*
X38423214Y-62818807D01*
X38423214Y-62818807D02*
X38470833Y-62914045D01*
X38470833Y-62914045D02*
X38470833Y-63009283D01*
X38470833Y-63009283D02*
X38423214Y-63152140D01*
X38423214Y-63152140D02*
X37851786Y-63723569D01*
X37851786Y-63723569D02*
X38470833Y-63723569D01*
X73427976Y-118444700D02*
X73570833Y-118492319D01*
X73570833Y-118492319D02*
X73808928Y-118492319D01*
X73808928Y-118492319D02*
X73904166Y-118444700D01*
X73904166Y-118444700D02*
X73951785Y-118397080D01*
X73951785Y-118397080D02*
X73999404Y-118301842D01*
X73999404Y-118301842D02*
X73999404Y-118206604D01*
X73999404Y-118206604D02*
X73951785Y-118111366D01*
X73951785Y-118111366D02*
X73904166Y-118063747D01*
X73904166Y-118063747D02*
X73808928Y-118016128D01*
X73808928Y-118016128D02*
X73618452Y-117968509D01*
X73618452Y-117968509D02*
X73523214Y-117920890D01*
X73523214Y-117920890D02*
X73475595Y-117873271D01*
X73475595Y-117873271D02*
X73427976Y-117778033D01*
X73427976Y-117778033D02*
X73427976Y-117682795D01*
X73427976Y-117682795D02*
X73475595Y-117587557D01*
X73475595Y-117587557D02*
X73523214Y-117539938D01*
X73523214Y-117539938D02*
X73618452Y-117492319D01*
X73618452Y-117492319D02*
X73856547Y-117492319D01*
X73856547Y-117492319D02*
X73999404Y-117539938D01*
X74332738Y-117492319D02*
X74570833Y-118492319D01*
X74570833Y-118492319D02*
X74761309Y-117778033D01*
X74761309Y-117778033D02*
X74951785Y-118492319D01*
X74951785Y-118492319D02*
X75189881Y-117492319D01*
X76094642Y-118492319D02*
X75523214Y-118492319D01*
X75808928Y-118492319D02*
X75808928Y-117492319D01*
X75808928Y-117492319D02*
X75713690Y-117635176D01*
X75713690Y-117635176D02*
X75618452Y-117730414D01*
X75618452Y-117730414D02*
X75523214Y-117778033D01*
X76570833Y-118492319D02*
X76761309Y-118492319D01*
X76761309Y-118492319D02*
X76856547Y-118444700D01*
X76856547Y-118444700D02*
X76904166Y-118397080D01*
X76904166Y-118397080D02*
X76999404Y-118254223D01*
X76999404Y-118254223D02*
X77047023Y-118063747D01*
X77047023Y-118063747D02*
X77047023Y-117682795D01*
X77047023Y-117682795D02*
X76999404Y-117587557D01*
X76999404Y-117587557D02*
X76951785Y-117539938D01*
X76951785Y-117539938D02*
X76856547Y-117492319D01*
X76856547Y-117492319D02*
X76666071Y-117492319D01*
X76666071Y-117492319D02*
X76570833Y-117539938D01*
X76570833Y-117539938D02*
X76523214Y-117587557D01*
X76523214Y-117587557D02*
X76475595Y-117682795D01*
X76475595Y-117682795D02*
X76475595Y-117920890D01*
X76475595Y-117920890D02*
X76523214Y-118016128D01*
X76523214Y-118016128D02*
X76570833Y-118063747D01*
X76570833Y-118063747D02*
X76666071Y-118111366D01*
X76666071Y-118111366D02*
X76856547Y-118111366D01*
X76856547Y-118111366D02*
X76951785Y-118063747D01*
X76951785Y-118063747D02*
X76999404Y-118016128D01*
X76999404Y-118016128D02*
X77047023Y-117920890D01*
X7229167Y-73200950D02*
X7372024Y-73248569D01*
X7372024Y-73248569D02*
X7610119Y-73248569D01*
X7610119Y-73248569D02*
X7705357Y-73200950D01*
X7705357Y-73200950D02*
X7752976Y-73153330D01*
X7752976Y-73153330D02*
X7800595Y-73058092D01*
X7800595Y-73058092D02*
X7800595Y-72962854D01*
X7800595Y-72962854D02*
X7752976Y-72867616D01*
X7752976Y-72867616D02*
X7705357Y-72819997D01*
X7705357Y-72819997D02*
X7610119Y-72772378D01*
X7610119Y-72772378D02*
X7419643Y-72724759D01*
X7419643Y-72724759D02*
X7324405Y-72677140D01*
X7324405Y-72677140D02*
X7276786Y-72629521D01*
X7276786Y-72629521D02*
X7229167Y-72534283D01*
X7229167Y-72534283D02*
X7229167Y-72439045D01*
X7229167Y-72439045D02*
X7276786Y-72343807D01*
X7276786Y-72343807D02*
X7324405Y-72296188D01*
X7324405Y-72296188D02*
X7419643Y-72248569D01*
X7419643Y-72248569D02*
X7657738Y-72248569D01*
X7657738Y-72248569D02*
X7800595Y-72296188D01*
X8133929Y-72248569D02*
X8372024Y-73248569D01*
X8372024Y-73248569D02*
X8562500Y-72534283D01*
X8562500Y-72534283D02*
X8752976Y-73248569D01*
X8752976Y-73248569D02*
X8991072Y-72248569D01*
X9276786Y-72248569D02*
X9943452Y-72248569D01*
X9943452Y-72248569D02*
X9514881Y-73248569D01*
X64950595Y-91195444D02*
X64950595Y-90195444D01*
X64950595Y-90671634D02*
X65522023Y-90671634D01*
X65522023Y-91195444D02*
X65522023Y-90195444D01*
X65902976Y-90195444D02*
X66569642Y-90195444D01*
X66569642Y-90195444D02*
X66141071Y-91195444D01*
X92477976Y-77963450D02*
X92620833Y-78011069D01*
X92620833Y-78011069D02*
X92858928Y-78011069D01*
X92858928Y-78011069D02*
X92954166Y-77963450D01*
X92954166Y-77963450D02*
X93001785Y-77915830D01*
X93001785Y-77915830D02*
X93049404Y-77820592D01*
X93049404Y-77820592D02*
X93049404Y-77725354D01*
X93049404Y-77725354D02*
X93001785Y-77630116D01*
X93001785Y-77630116D02*
X92954166Y-77582497D01*
X92954166Y-77582497D02*
X92858928Y-77534878D01*
X92858928Y-77534878D02*
X92668452Y-77487259D01*
X92668452Y-77487259D02*
X92573214Y-77439640D01*
X92573214Y-77439640D02*
X92525595Y-77392021D01*
X92525595Y-77392021D02*
X92477976Y-77296783D01*
X92477976Y-77296783D02*
X92477976Y-77201545D01*
X92477976Y-77201545D02*
X92525595Y-77106307D01*
X92525595Y-77106307D02*
X92573214Y-77058688D01*
X92573214Y-77058688D02*
X92668452Y-77011069D01*
X92668452Y-77011069D02*
X92906547Y-77011069D01*
X92906547Y-77011069D02*
X93049404Y-77058688D01*
X93382738Y-77011069D02*
X93620833Y-78011069D01*
X93620833Y-78011069D02*
X93811309Y-77296783D01*
X93811309Y-77296783D02*
X94001785Y-78011069D01*
X94001785Y-78011069D02*
X94239881Y-77011069D01*
X95144642Y-78011069D02*
X94573214Y-78011069D01*
X94858928Y-78011069D02*
X94858928Y-77011069D01*
X94858928Y-77011069D02*
X94763690Y-77153926D01*
X94763690Y-77153926D02*
X94668452Y-77249164D01*
X94668452Y-77249164D02*
X94573214Y-77296783D01*
X96097023Y-78011069D02*
X95525595Y-78011069D01*
X95811309Y-78011069D02*
X95811309Y-77011069D01*
X95811309Y-77011069D02*
X95716071Y-77153926D01*
X95716071Y-77153926D02*
X95620833Y-77249164D01*
X95620833Y-77249164D02*
X95525595Y-77296783D01*
X133997976Y-107075950D02*
X134140833Y-107123569D01*
X134140833Y-107123569D02*
X134378928Y-107123569D01*
X134378928Y-107123569D02*
X134474166Y-107075950D01*
X134474166Y-107075950D02*
X134521785Y-107028330D01*
X134521785Y-107028330D02*
X134569404Y-106933092D01*
X134569404Y-106933092D02*
X134569404Y-106837854D01*
X134569404Y-106837854D02*
X134521785Y-106742616D01*
X134521785Y-106742616D02*
X134474166Y-106694997D01*
X134474166Y-106694997D02*
X134378928Y-106647378D01*
X134378928Y-106647378D02*
X134188452Y-106599759D01*
X134188452Y-106599759D02*
X134093214Y-106552140D01*
X134093214Y-106552140D02*
X134045595Y-106504521D01*
X134045595Y-106504521D02*
X133997976Y-106409283D01*
X133997976Y-106409283D02*
X133997976Y-106314045D01*
X133997976Y-106314045D02*
X134045595Y-106218807D01*
X134045595Y-106218807D02*
X134093214Y-106171188D01*
X134093214Y-106171188D02*
X134188452Y-106123569D01*
X134188452Y-106123569D02*
X134426547Y-106123569D01*
X134426547Y-106123569D02*
X134569404Y-106171188D01*
X134902738Y-106123569D02*
X135140833Y-107123569D01*
X135140833Y-107123569D02*
X135331309Y-106409283D01*
X135331309Y-106409283D02*
X135521785Y-107123569D01*
X135521785Y-107123569D02*
X135759881Y-106123569D01*
X136569404Y-106456902D02*
X136569404Y-107123569D01*
X136331309Y-106075950D02*
X136093214Y-106790235D01*
X136093214Y-106790235D02*
X136712261Y-106790235D01*
X136997976Y-106123569D02*
X137617023Y-106123569D01*
X137617023Y-106123569D02*
X137283690Y-106504521D01*
X137283690Y-106504521D02*
X137426547Y-106504521D01*
X137426547Y-106504521D02*
X137521785Y-106552140D01*
X137521785Y-106552140D02*
X137569404Y-106599759D01*
X137569404Y-106599759D02*
X137617023Y-106694997D01*
X137617023Y-106694997D02*
X137617023Y-106933092D01*
X137617023Y-106933092D02*
X137569404Y-107028330D01*
X137569404Y-107028330D02*
X137521785Y-107075950D01*
X137521785Y-107075950D02*
X137426547Y-107123569D01*
X137426547Y-107123569D02*
X137140833Y-107123569D01*
X137140833Y-107123569D02*
X137045595Y-107075950D01*
X137045595Y-107075950D02*
X136997976Y-107028330D01*
X160940999Y-125723790D02*
X160940999Y-124723790D01*
X160940999Y-125199980D02*
X161512427Y-125199980D01*
X161512427Y-125723790D02*
X161512427Y-124723790D01*
X162417189Y-125057123D02*
X162417189Y-125723790D01*
X162179094Y-124676171D02*
X161940999Y-125390456D01*
X161940999Y-125390456D02*
X162560046Y-125390456D01*
X144000926Y-125496192D02*
X144000926Y-124496192D01*
X144000926Y-124972382D02*
X144572354Y-124972382D01*
X144572354Y-125496192D02*
X144572354Y-124496192D01*
X145477116Y-124829525D02*
X145477116Y-125496192D01*
X145239021Y-124448573D02*
X145000926Y-125162858D01*
X145000926Y-125162858D02*
X145619973Y-125162858D01*
X16277976Y-101775950D02*
X16420833Y-101823569D01*
X16420833Y-101823569D02*
X16658928Y-101823569D01*
X16658928Y-101823569D02*
X16754166Y-101775950D01*
X16754166Y-101775950D02*
X16801785Y-101728330D01*
X16801785Y-101728330D02*
X16849404Y-101633092D01*
X16849404Y-101633092D02*
X16849404Y-101537854D01*
X16849404Y-101537854D02*
X16801785Y-101442616D01*
X16801785Y-101442616D02*
X16754166Y-101394997D01*
X16754166Y-101394997D02*
X16658928Y-101347378D01*
X16658928Y-101347378D02*
X16468452Y-101299759D01*
X16468452Y-101299759D02*
X16373214Y-101252140D01*
X16373214Y-101252140D02*
X16325595Y-101204521D01*
X16325595Y-101204521D02*
X16277976Y-101109283D01*
X16277976Y-101109283D02*
X16277976Y-101014045D01*
X16277976Y-101014045D02*
X16325595Y-100918807D01*
X16325595Y-100918807D02*
X16373214Y-100871188D01*
X16373214Y-100871188D02*
X16468452Y-100823569D01*
X16468452Y-100823569D02*
X16706547Y-100823569D01*
X16706547Y-100823569D02*
X16849404Y-100871188D01*
X17182738Y-100823569D02*
X17420833Y-101823569D01*
X17420833Y-101823569D02*
X17611309Y-101109283D01*
X17611309Y-101109283D02*
X17801785Y-101823569D01*
X17801785Y-101823569D02*
X18039881Y-100823569D01*
X18944642Y-101823569D02*
X18373214Y-101823569D01*
X18658928Y-101823569D02*
X18658928Y-100823569D01*
X18658928Y-100823569D02*
X18563690Y-100966426D01*
X18563690Y-100966426D02*
X18468452Y-101061664D01*
X18468452Y-101061664D02*
X18373214Y-101109283D01*
X19277976Y-100823569D02*
X19897023Y-100823569D01*
X19897023Y-100823569D02*
X19563690Y-101204521D01*
X19563690Y-101204521D02*
X19706547Y-101204521D01*
X19706547Y-101204521D02*
X19801785Y-101252140D01*
X19801785Y-101252140D02*
X19849404Y-101299759D01*
X19849404Y-101299759D02*
X19897023Y-101394997D01*
X19897023Y-101394997D02*
X19897023Y-101633092D01*
X19897023Y-101633092D02*
X19849404Y-101728330D01*
X19849404Y-101728330D02*
X19801785Y-101775950D01*
X19801785Y-101775950D02*
X19706547Y-101823569D01*
X19706547Y-101823569D02*
X19420833Y-101823569D01*
X19420833Y-101823569D02*
X19325595Y-101775950D01*
X19325595Y-101775950D02*
X19277976Y-101728330D01*
X54854167Y-58913450D02*
X54997024Y-58961069D01*
X54997024Y-58961069D02*
X55235119Y-58961069D01*
X55235119Y-58961069D02*
X55330357Y-58913450D01*
X55330357Y-58913450D02*
X55377976Y-58865830D01*
X55377976Y-58865830D02*
X55425595Y-58770592D01*
X55425595Y-58770592D02*
X55425595Y-58675354D01*
X55425595Y-58675354D02*
X55377976Y-58580116D01*
X55377976Y-58580116D02*
X55330357Y-58532497D01*
X55330357Y-58532497D02*
X55235119Y-58484878D01*
X55235119Y-58484878D02*
X55044643Y-58437259D01*
X55044643Y-58437259D02*
X54949405Y-58389640D01*
X54949405Y-58389640D02*
X54901786Y-58342021D01*
X54901786Y-58342021D02*
X54854167Y-58246783D01*
X54854167Y-58246783D02*
X54854167Y-58151545D01*
X54854167Y-58151545D02*
X54901786Y-58056307D01*
X54901786Y-58056307D02*
X54949405Y-58008688D01*
X54949405Y-58008688D02*
X55044643Y-57961069D01*
X55044643Y-57961069D02*
X55282738Y-57961069D01*
X55282738Y-57961069D02*
X55425595Y-58008688D01*
X55758929Y-57961069D02*
X55997024Y-58961069D01*
X55997024Y-58961069D02*
X56187500Y-58246783D01*
X56187500Y-58246783D02*
X56377976Y-58961069D01*
X56377976Y-58961069D02*
X56616072Y-57961069D01*
X56901786Y-57961069D02*
X57520833Y-57961069D01*
X57520833Y-57961069D02*
X57187500Y-58342021D01*
X57187500Y-58342021D02*
X57330357Y-58342021D01*
X57330357Y-58342021D02*
X57425595Y-58389640D01*
X57425595Y-58389640D02*
X57473214Y-58437259D01*
X57473214Y-58437259D02*
X57520833Y-58532497D01*
X57520833Y-58532497D02*
X57520833Y-58770592D01*
X57520833Y-58770592D02*
X57473214Y-58865830D01*
X57473214Y-58865830D02*
X57425595Y-58913450D01*
X57425595Y-58913450D02*
X57330357Y-58961069D01*
X57330357Y-58961069D02*
X57044643Y-58961069D01*
X57044643Y-58961069D02*
X56949405Y-58913450D01*
X56949405Y-58913450D02*
X56901786Y-58865830D01*
X92954167Y-58913450D02*
X93097024Y-58961069D01*
X93097024Y-58961069D02*
X93335119Y-58961069D01*
X93335119Y-58961069D02*
X93430357Y-58913450D01*
X93430357Y-58913450D02*
X93477976Y-58865830D01*
X93477976Y-58865830D02*
X93525595Y-58770592D01*
X93525595Y-58770592D02*
X93525595Y-58675354D01*
X93525595Y-58675354D02*
X93477976Y-58580116D01*
X93477976Y-58580116D02*
X93430357Y-58532497D01*
X93430357Y-58532497D02*
X93335119Y-58484878D01*
X93335119Y-58484878D02*
X93144643Y-58437259D01*
X93144643Y-58437259D02*
X93049405Y-58389640D01*
X93049405Y-58389640D02*
X93001786Y-58342021D01*
X93001786Y-58342021D02*
X92954167Y-58246783D01*
X92954167Y-58246783D02*
X92954167Y-58151545D01*
X92954167Y-58151545D02*
X93001786Y-58056307D01*
X93001786Y-58056307D02*
X93049405Y-58008688D01*
X93049405Y-58008688D02*
X93144643Y-57961069D01*
X93144643Y-57961069D02*
X93382738Y-57961069D01*
X93382738Y-57961069D02*
X93525595Y-58008688D01*
X93858929Y-57961069D02*
X94097024Y-58961069D01*
X94097024Y-58961069D02*
X94287500Y-58246783D01*
X94287500Y-58246783D02*
X94477976Y-58961069D01*
X94477976Y-58961069D02*
X94716072Y-57961069D01*
X95573214Y-57961069D02*
X95097024Y-57961069D01*
X95097024Y-57961069D02*
X95049405Y-58437259D01*
X95049405Y-58437259D02*
X95097024Y-58389640D01*
X95097024Y-58389640D02*
X95192262Y-58342021D01*
X95192262Y-58342021D02*
X95430357Y-58342021D01*
X95430357Y-58342021D02*
X95525595Y-58389640D01*
X95525595Y-58389640D02*
X95573214Y-58437259D01*
X95573214Y-58437259D02*
X95620833Y-58532497D01*
X95620833Y-58532497D02*
X95620833Y-58770592D01*
X95620833Y-58770592D02*
X95573214Y-58865830D01*
X95573214Y-58865830D02*
X95525595Y-58913450D01*
X95525595Y-58913450D02*
X95430357Y-58961069D01*
X95430357Y-58961069D02*
X95192262Y-58961069D01*
X95192262Y-58961069D02*
X95097024Y-58913450D01*
X95097024Y-58913450D02*
X95049405Y-58865830D01*
X100499921Y-116016107D02*
X100625585Y-116099078D01*
X100625585Y-116099078D02*
X100855568Y-116160701D01*
X100855568Y-116160701D02*
X100959885Y-116139354D01*
X100959885Y-116139354D02*
X101018206Y-116105683D01*
X101018206Y-116105683D02*
X101088852Y-116026014D01*
X101088852Y-116026014D02*
X101113502Y-115934022D01*
X101113502Y-115934022D02*
X101092155Y-115829704D01*
X101092155Y-115829704D02*
X101058483Y-115771383D01*
X101058483Y-115771383D02*
X100978815Y-115700737D01*
X100978815Y-115700737D02*
X100807154Y-115605441D01*
X100807154Y-115605441D02*
X100727485Y-115534796D01*
X100727485Y-115534796D02*
X100693814Y-115476474D01*
X100693814Y-115476474D02*
X100672467Y-115372157D01*
X100672467Y-115372157D02*
X100697116Y-115280164D01*
X100697116Y-115280164D02*
X100767762Y-115200496D01*
X100767762Y-115200496D02*
X100826083Y-115166824D01*
X100826083Y-115166824D02*
X100930401Y-115145477D01*
X100930401Y-115145477D02*
X101160383Y-115207100D01*
X101160383Y-115207100D02*
X101286048Y-115290071D01*
X101620348Y-115330348D02*
X101591511Y-116357897D01*
X101591511Y-116357897D02*
X101960368Y-115717249D01*
X101960368Y-115717249D02*
X101959483Y-116456495D01*
X101959483Y-116456495D02*
X102448284Y-115552192D01*
X102745610Y-115730458D02*
X102803931Y-115696787D01*
X102803931Y-115696787D02*
X102908249Y-115675440D01*
X102908249Y-115675440D02*
X103138231Y-115737063D01*
X103138231Y-115737063D02*
X103217899Y-115807709D01*
X103217899Y-115807709D02*
X103251571Y-115866030D01*
X103251571Y-115866030D02*
X103272918Y-115970348D01*
X103272918Y-115970348D02*
X103248269Y-116062341D01*
X103248269Y-116062341D02*
X103165298Y-116188006D01*
X103165298Y-116188006D02*
X102465444Y-116592067D01*
X102465444Y-116592067D02*
X103063398Y-116752288D01*
X103920171Y-115946583D02*
X104012164Y-115971233D01*
X104012164Y-115971233D02*
X104091832Y-116041879D01*
X104091832Y-116041879D02*
X104125504Y-116100200D01*
X104125504Y-116100200D02*
X104146851Y-116204518D01*
X104146851Y-116204518D02*
X104143549Y-116400828D01*
X104143549Y-116400828D02*
X104081925Y-116630810D01*
X104081925Y-116630810D02*
X103986630Y-116802472D01*
X103986630Y-116802472D02*
X103915984Y-116882140D01*
X103915984Y-116882140D02*
X103857663Y-116915812D01*
X103857663Y-116915812D02*
X103753345Y-116937159D01*
X103753345Y-116937159D02*
X103661352Y-116912509D01*
X103661352Y-116912509D02*
X103581684Y-116841863D01*
X103581684Y-116841863D02*
X103548012Y-116783542D01*
X103548012Y-116783542D02*
X103526665Y-116679224D01*
X103526665Y-116679224D02*
X103529968Y-116482914D01*
X103529968Y-116482914D02*
X103591591Y-116252931D01*
X103591591Y-116252931D02*
X103686886Y-116081270D01*
X103686886Y-116081270D02*
X103757532Y-116001602D01*
X103757532Y-116001602D02*
X103815854Y-115967930D01*
X103815854Y-115967930D02*
X103920171Y-115946583D01*
D11*
%TO.C,SW22*%
X178415404Y-61787721D02*
X178415404Y-75987721D01*
X178415404Y-75987721D02*
X192615404Y-75987721D01*
X192615404Y-61787721D02*
X178415404Y-61787721D01*
X192615404Y-75987721D02*
X192615404Y-61787721D01*
%TO.C,SW21*%
X113163719Y-140542530D02*
X125461280Y-147642531D01*
X120263720Y-128244969D02*
X113163719Y-140542530D01*
X125461280Y-147642531D02*
X132561281Y-135344970D01*
X132561281Y-135344970D02*
X120263720Y-128244969D01*
%TO.C,SW37*%
X235565404Y-97506471D02*
X235565404Y-111706471D01*
X235565404Y-111706471D02*
X249765404Y-111706471D01*
X249765404Y-97506471D02*
X235565404Y-97506471D01*
X249765404Y-111706471D02*
X249765404Y-97506471D01*
%TO.C,SW1*%
X10987500Y-64168750D02*
X10987500Y-78368750D01*
X10987500Y-78368750D02*
X25187500Y-78368750D01*
X25187500Y-64168750D02*
X10987500Y-64168750D01*
X25187500Y-78368750D02*
X25187500Y-64168750D01*
D12*
%TO.C,U2*%
X125878750Y-60632500D02*
X125878750Y-93652500D01*
X125878750Y-93652500D02*
X143658750Y-93652500D01*
X128418750Y-63172500D02*
X125878750Y-63172500D01*
X128418750Y-63172500D02*
X128418750Y-65712500D01*
X128418750Y-65712500D02*
X125878750Y-65712500D01*
X143658750Y-60632500D02*
X125878750Y-60632500D01*
X143658750Y-93652500D02*
X143658750Y-60632500D01*
D10*
X139300318Y-69851860D02*
X139200318Y-69851860D01*
X139200318Y-69051860D01*
X139300318Y-69051860D01*
X139300318Y-69851860D01*
G36*
X139300318Y-69851860D02*
G01*
X139200318Y-69851860D01*
X139200318Y-69051860D01*
X139300318Y-69051860D01*
X139300318Y-69851860D01*
G37*
X139500318Y-69551860D02*
X139400318Y-69551860D01*
X139400318Y-69451860D01*
X139500318Y-69451860D01*
X139500318Y-69551860D01*
G36*
X139500318Y-69551860D02*
G01*
X139400318Y-69551860D01*
X139400318Y-69451860D01*
X139500318Y-69451860D01*
X139500318Y-69551860D01*
G37*
X139700318Y-69151860D02*
X139200318Y-69151860D01*
X139200318Y-69051860D01*
X139700318Y-69051860D01*
X139700318Y-69151860D01*
G36*
X139700318Y-69151860D02*
G01*
X139200318Y-69151860D01*
X139200318Y-69051860D01*
X139700318Y-69051860D01*
X139700318Y-69151860D01*
G37*
X139700318Y-69351860D02*
X139600318Y-69351860D01*
X139600318Y-69051860D01*
X139700318Y-69051860D01*
X139700318Y-69351860D01*
G36*
X139700318Y-69351860D02*
G01*
X139600318Y-69351860D01*
X139600318Y-69051860D01*
X139700318Y-69051860D01*
X139700318Y-69351860D01*
G37*
X139700318Y-69851860D02*
X139600318Y-69851860D01*
X139600318Y-69651860D01*
X139700318Y-69651860D01*
X139700318Y-69851860D01*
G36*
X139700318Y-69851860D02*
G01*
X139600318Y-69851860D01*
X139600318Y-69651860D01*
X139700318Y-69651860D01*
X139700318Y-69851860D01*
G37*
%TO.C,U4*%
X154590404Y-116093971D02*
X154590405Y-121693971D01*
X156590404Y-115843971D02*
X156590404Y-121943971D01*
X156590404Y-115843971D02*
X168690403Y-115843970D01*
X156590404Y-116093971D02*
X154590404Y-116093971D01*
X156590404Y-121693971D02*
X154590405Y-121693971D01*
X156590404Y-121943971D02*
X168690405Y-121943972D01*
X168690403Y-115843970D02*
X168690405Y-121943972D01*
D11*
%TO.C,SW36*%
X216515404Y-95125221D02*
X216515404Y-109325221D01*
X216515404Y-109325221D02*
X230715404Y-109325221D01*
X230715404Y-95125221D02*
X216515404Y-95125221D01*
X230715404Y-109325221D02*
X230715404Y-95125221D01*
%TO.C,SW23*%
X197465404Y-59406471D02*
X197465404Y-73606471D01*
X197465404Y-73606471D02*
X211665404Y-73606471D01*
X211665404Y-59406471D02*
X197465404Y-59406471D01*
X211665404Y-73606471D02*
X211665404Y-59406471D01*
%TO.C,SW35*%
X197465404Y-97506471D02*
X197465404Y-111706471D01*
X197465404Y-111706471D02*
X211665404Y-111706471D01*
X211665404Y-97506471D02*
X197465404Y-97506471D01*
X211665404Y-111706471D02*
X211665404Y-97506471D01*
%TO.C,SW16*%
X68137500Y-95125000D02*
X68137500Y-109325000D01*
X68137500Y-109325000D02*
X82337500Y-109325000D01*
X82337500Y-95125000D02*
X68137500Y-95125000D01*
X82337500Y-109325000D02*
X82337500Y-95125000D01*
%TO.C,SW15*%
X49087500Y-97506250D02*
X49087500Y-111706250D01*
X49087500Y-111706250D02*
X63287500Y-111706250D01*
X63287500Y-97506250D02*
X49087500Y-97506250D01*
X63287500Y-111706250D02*
X63287500Y-97506250D01*
%TO.C,SW44*%
X159471654Y-107518971D02*
X159471654Y-107978971D01*
X159471654Y-107978971D02*
X158471654Y-107978971D01*
X159471654Y-110758971D02*
X159471654Y-111218971D01*
X159471654Y-111218971D02*
X165671654Y-111218971D01*
X165671654Y-107518971D02*
X159471654Y-107518971D01*
X165671654Y-107518971D02*
X165671654Y-107978971D01*
X165671654Y-110758971D02*
X165671654Y-111218971D01*
X161071654Y-108818971D02*
X163921654Y-108818971D01*
X163921654Y-109868971D01*
X161071654Y-109868971D01*
X161071654Y-108818971D01*
%TO.C,SW38*%
X254615404Y-102268971D02*
X254615404Y-116468971D01*
X254615404Y-116468971D02*
X268815404Y-116468971D01*
X268815404Y-102268971D02*
X254615404Y-102268971D01*
X268815404Y-116468971D02*
X268815404Y-102268971D01*
%TO.C,SW9*%
X49087500Y-78456250D02*
X49087500Y-92656250D01*
X49087500Y-92656250D02*
X63287500Y-92656250D01*
X63287500Y-78456250D02*
X49087500Y-78456250D01*
X63287500Y-92656250D02*
X63287500Y-78456250D01*
%TO.C,SW30*%
X216515404Y-76075221D02*
X216515404Y-90275221D01*
X216515404Y-90275221D02*
X230715404Y-90275221D01*
X230715404Y-76075221D02*
X216515404Y-76075221D01*
X230715404Y-90275221D02*
X230715404Y-76075221D01*
%TO.C,SW27*%
X273665404Y-64168971D02*
X273665404Y-78368971D01*
X273665404Y-78368971D02*
X287865404Y-78368971D01*
X287865404Y-64168971D02*
X273665404Y-64168971D01*
X287865404Y-78368971D02*
X287865404Y-64168971D01*
%TO.C,SW26*%
X254615404Y-64168971D02*
X254615404Y-78368971D01*
X254615404Y-78368971D02*
X268815404Y-78368971D01*
X268815404Y-64168971D02*
X254615404Y-64168971D01*
X268815404Y-78368971D02*
X268815404Y-64168971D01*
%TO.C,SW4*%
X68137500Y-57025000D02*
X68137500Y-71225000D01*
X68137500Y-71225000D02*
X82337500Y-71225000D01*
X82337500Y-57025000D02*
X68137500Y-57025000D01*
X82337500Y-71225000D02*
X82337500Y-57025000D01*
%TO.C,SW18*%
X106237500Y-99887500D02*
X106237500Y-114087500D01*
X106237500Y-114087500D02*
X120437500Y-114087500D01*
X120437500Y-99887500D02*
X106237500Y-99887500D01*
X120437500Y-114087500D02*
X120437500Y-99887500D01*
%TO.C,SW42*%
X216515404Y-118937721D02*
X216515404Y-133137721D01*
X216515404Y-133137721D02*
X230715404Y-133137721D01*
X230715404Y-118937721D02*
X216515404Y-118937721D01*
X230715404Y-133137721D02*
X230715404Y-118937721D01*
%TO.C,SW31*%
X235565404Y-78456471D02*
X235565404Y-92656471D01*
X235565404Y-92656471D02*
X249765404Y-92656471D01*
X249765404Y-78456471D02*
X235565404Y-78456471D01*
X249765404Y-92656471D02*
X249765404Y-78456471D01*
%TO.C,SW32*%
X254615404Y-83218971D02*
X254615404Y-97418971D01*
X254615404Y-97418971D02*
X268815404Y-97418971D01*
X268815404Y-83218971D02*
X254615404Y-83218971D01*
X268815404Y-97418971D02*
X268815404Y-83218971D01*
D10*
%TO.C,U1*%
X129812499Y-121943751D02*
X129812501Y-115843749D01*
X141912500Y-115843750D02*
X129812501Y-115843749D01*
X141912500Y-116093750D02*
X143912500Y-116093750D01*
X141912500Y-121693750D02*
X143912499Y-121693750D01*
X141912500Y-121943750D02*
X129812499Y-121943751D01*
X141912500Y-121943750D02*
X141912500Y-115843750D01*
X143912499Y-121693750D02*
X143912500Y-116093750D01*
D11*
%TO.C,SW40*%
X166291623Y-135345191D02*
X173391624Y-147642752D01*
X173391624Y-147642752D02*
X185689185Y-140542751D01*
X178589184Y-128245190D02*
X166291623Y-135345191D01*
X185689185Y-140542751D02*
X178589184Y-128245190D01*
%TO.C,SW39*%
X273665404Y-102268971D02*
X273665404Y-116468971D01*
X273665404Y-116468971D02*
X287865404Y-116468971D01*
X287865404Y-102268971D02*
X273665404Y-102268971D01*
X287865404Y-116468971D02*
X287865404Y-102268971D01*
%TO.C,SW10*%
X68137500Y-76075000D02*
X68137500Y-90275000D01*
X68137500Y-90275000D02*
X82337500Y-90275000D01*
X82337500Y-76075000D02*
X68137500Y-76075000D01*
X82337500Y-90275000D02*
X82337500Y-76075000D01*
%TO.C,SW33*%
X273665404Y-83218971D02*
X273665404Y-97418971D01*
X273665404Y-97418971D02*
X287865404Y-97418971D01*
X287865404Y-83218971D02*
X273665404Y-83218971D01*
X287865404Y-97418971D02*
X287865404Y-83218971D01*
%TO.C,SW14*%
X30037500Y-102268750D02*
X30037500Y-116468750D01*
X30037500Y-116468750D02*
X44237500Y-116468750D01*
X44237500Y-102268750D02*
X30037500Y-102268750D01*
X44237500Y-116468750D02*
X44237500Y-102268750D01*
%TO.C,SW41*%
X191107215Y-123398513D02*
X194782446Y-137114660D01*
X194782446Y-137114660D02*
X208498593Y-133439429D01*
X204823362Y-119723282D02*
X191107215Y-123398513D01*
X208498593Y-133439429D02*
X204823362Y-119723282D01*
%TO.C,SW8*%
X30037500Y-83218750D02*
X30037500Y-97418750D01*
X30037500Y-97418750D02*
X44237500Y-97418750D01*
X44237500Y-83218750D02*
X30037500Y-83218750D01*
X44237500Y-97418750D02*
X44237500Y-83218750D01*
%TO.C,SW29*%
X197465404Y-78456471D02*
X197465404Y-92656471D01*
X197465404Y-92656471D02*
X211665404Y-92656471D01*
X211665404Y-78456471D02*
X197465404Y-78456471D01*
X211665404Y-92656471D02*
X211665404Y-78456471D01*
D12*
%TO.C,U3*%
X155194154Y-60632721D02*
X155194154Y-93652721D01*
X155194154Y-93652721D02*
X172974154Y-93652721D01*
X157734154Y-63172721D02*
X155194154Y-63172721D01*
X157734154Y-63172721D02*
X157734154Y-65712721D01*
X157734154Y-65712721D02*
X155194154Y-65712721D01*
X172974154Y-60632721D02*
X155194154Y-60632721D01*
X172974154Y-93652721D02*
X172974154Y-60632721D01*
D10*
X168615722Y-69852081D02*
X168515722Y-69852081D01*
X168515722Y-69052081D01*
X168615722Y-69052081D01*
X168615722Y-69852081D01*
G36*
X168615722Y-69852081D02*
G01*
X168515722Y-69852081D01*
X168515722Y-69052081D01*
X168615722Y-69052081D01*
X168615722Y-69852081D01*
G37*
X168815722Y-69552081D02*
X168715722Y-69552081D01*
X168715722Y-69452081D01*
X168815722Y-69452081D01*
X168815722Y-69552081D01*
G36*
X168815722Y-69552081D02*
G01*
X168715722Y-69552081D01*
X168715722Y-69452081D01*
X168815722Y-69452081D01*
X168815722Y-69552081D01*
G37*
X169015722Y-69152081D02*
X168515722Y-69152081D01*
X168515722Y-69052081D01*
X169015722Y-69052081D01*
X169015722Y-69152081D01*
G36*
X169015722Y-69152081D02*
G01*
X168515722Y-69152081D01*
X168515722Y-69052081D01*
X169015722Y-69052081D01*
X169015722Y-69152081D01*
G37*
X169015722Y-69352081D02*
X168915722Y-69352081D01*
X168915722Y-69052081D01*
X169015722Y-69052081D01*
X169015722Y-69352081D01*
G36*
X169015722Y-69352081D02*
G01*
X168915722Y-69352081D01*
X168915722Y-69052081D01*
X169015722Y-69052081D01*
X169015722Y-69352081D01*
G37*
X169015722Y-69852081D02*
X168915722Y-69852081D01*
X168915722Y-69652081D01*
X169015722Y-69652081D01*
X169015722Y-69852081D01*
G36*
X169015722Y-69852081D02*
G01*
X168915722Y-69852081D01*
X168915722Y-69652081D01*
X169015722Y-69652081D01*
X169015722Y-69852081D01*
G37*
D11*
%TO.C,SW17*%
X87187500Y-97506250D02*
X87187500Y-111706250D01*
X87187500Y-111706250D02*
X101387500Y-111706250D01*
X101387500Y-97506250D02*
X87187500Y-97506250D01*
X101387500Y-111706250D02*
X101387500Y-97506250D01*
%TO.C,SW6*%
X106237500Y-61787500D02*
X106237500Y-75987500D01*
X106237500Y-75987500D02*
X120437500Y-75987500D01*
X120437500Y-61787500D02*
X106237500Y-61787500D01*
X120437500Y-75987500D02*
X120437500Y-61787500D01*
%TO.C,SW12*%
X106237500Y-80837500D02*
X106237500Y-95037500D01*
X106237500Y-95037500D02*
X120437500Y-95037500D01*
X120437500Y-80837500D02*
X106237500Y-80837500D01*
X120437500Y-95037500D02*
X120437500Y-80837500D01*
%TO.C,SW28*%
X178415404Y-80837721D02*
X178415404Y-95037721D01*
X178415404Y-95037721D02*
X192615404Y-95037721D01*
X192615404Y-80837721D02*
X178415404Y-80837721D01*
X192615404Y-95037721D02*
X192615404Y-80837721D01*
%TO.C,SW2*%
X30037500Y-64168750D02*
X30037500Y-78368750D01*
X30037500Y-78368750D02*
X44237500Y-78368750D01*
X44237500Y-64168750D02*
X30037500Y-64168750D01*
X44237500Y-78368750D02*
X44237500Y-64168750D01*
%TO.C,SW19*%
X68137500Y-118937500D02*
X68137500Y-133137500D01*
X68137500Y-133137500D02*
X82337500Y-133137500D01*
X82337500Y-118937500D02*
X68137500Y-118937500D01*
X82337500Y-133137500D02*
X82337500Y-118937500D01*
%TO.C,SW7*%
X10987500Y-83218750D02*
X10987500Y-97418750D01*
X10987500Y-97418750D02*
X25187500Y-97418750D01*
X25187500Y-83218750D02*
X10987500Y-83218750D01*
X25187500Y-97418750D02*
X25187500Y-83218750D01*
%TO.C,SW24*%
X216515404Y-57025221D02*
X216515404Y-71225221D01*
X216515404Y-71225221D02*
X230715404Y-71225221D01*
X230715404Y-57025221D02*
X216515404Y-57025221D01*
X230715404Y-71225221D02*
X230715404Y-57025221D01*
%TO.C,SW11*%
X87187500Y-78456250D02*
X87187500Y-92656250D01*
X87187500Y-92656250D02*
X101387500Y-92656250D01*
X101387500Y-78456250D02*
X87187500Y-78456250D01*
X101387500Y-92656250D02*
X101387500Y-78456250D01*
%TO.C,SW43*%
X132537500Y-107518750D02*
X132537500Y-107978750D01*
X132537500Y-107978750D02*
X131537500Y-107978750D01*
X132537500Y-110758750D02*
X132537500Y-111218750D01*
X132537500Y-111218750D02*
X138737500Y-111218750D01*
X138737500Y-107518750D02*
X132537500Y-107518750D01*
X138737500Y-107518750D02*
X138737500Y-107978750D01*
X138737500Y-110758750D02*
X138737500Y-111218750D01*
X134137500Y-108818750D02*
X136987500Y-108818750D01*
X136987500Y-109868750D01*
X134137500Y-109868750D01*
X134137500Y-108818750D01*
%TO.C,SW13*%
X10987500Y-102268750D02*
X10987500Y-116468750D01*
X10987500Y-116468750D02*
X25187500Y-116468750D01*
X25187500Y-102268750D02*
X10987500Y-102268750D01*
X25187500Y-116468750D02*
X25187500Y-102268750D01*
%TO.C,SW3*%
X49087500Y-59406250D02*
X49087500Y-73606250D01*
X49087500Y-73606250D02*
X63287500Y-73606250D01*
X63287500Y-59406250D02*
X49087500Y-59406250D01*
X63287500Y-73606250D02*
X63287500Y-59406250D01*
%TO.C,SW5*%
X87187500Y-59406250D02*
X87187500Y-73606250D01*
X87187500Y-73606250D02*
X101387500Y-73606250D01*
X101387500Y-59406250D02*
X87187500Y-59406250D01*
X101387500Y-73606250D02*
X101387500Y-59406250D01*
%TO.C,SW25*%
X235565404Y-59406471D02*
X235565404Y-73606471D01*
X235565404Y-73606471D02*
X249765404Y-73606471D01*
X249765404Y-59406471D02*
X235565404Y-59406471D01*
X249765404Y-73606471D02*
X249765404Y-59406471D01*
%TO.C,SW34*%
X178415404Y-99887721D02*
X178415404Y-114087721D01*
X178415404Y-114087721D02*
X192615404Y-114087721D01*
X192615404Y-99887721D02*
X178415404Y-99887721D01*
X192615404Y-114087721D02*
X192615404Y-99887721D01*
%TO.C,SW20*%
X90354311Y-133439208D02*
X104070458Y-137114439D01*
X94029542Y-119723061D02*
X90354311Y-133439208D01*
X104070458Y-137114439D02*
X107745689Y-123398292D01*
X107745689Y-123398292D02*
X94029542Y-119723061D01*
%TD*%
D13*
%TO.C,U2*%
X127148750Y-64442500D03*
D14*
X127148750Y-66982500D03*
X127148750Y-69522500D03*
X127148750Y-72062500D03*
X127148750Y-74602500D03*
X127148750Y-77142500D03*
X127148750Y-79682500D03*
X127148750Y-82222500D03*
X127148750Y-84762500D03*
X127148750Y-87302500D03*
X127148750Y-89842500D03*
X127148750Y-92382500D03*
X142388750Y-92382500D03*
X142388750Y-89842500D03*
X142388750Y-87302500D03*
X142388750Y-84762500D03*
X142388750Y-82222500D03*
X142388750Y-79682500D03*
X142388750Y-77142500D03*
X142388750Y-74602500D03*
X142388750Y-72062500D03*
X142388750Y-69522500D03*
X142388750Y-66982500D03*
X142388750Y-64442500D03*
%TD*%
D13*
%TO.C,U3*%
X156464154Y-64442721D03*
D14*
X156464154Y-66982721D03*
X156464154Y-69522721D03*
X156464154Y-72062721D03*
X156464154Y-74602721D03*
X156464154Y-77142721D03*
X156464154Y-79682721D03*
X156464154Y-82222721D03*
X156464154Y-84762721D03*
X156464154Y-87302721D03*
X156464154Y-89842721D03*
X156464154Y-92382721D03*
X171704154Y-92382721D03*
X171704154Y-89842721D03*
X171704154Y-87302721D03*
X171704154Y-84762721D03*
X171704154Y-82222721D03*
X171704154Y-79682721D03*
X171704154Y-77142721D03*
X171704154Y-74602721D03*
X171704154Y-72062721D03*
X171704154Y-69522721D03*
X171704154Y-66982721D03*
X171704154Y-64442721D03*
%TD*%
M02*
