%TF.GenerationSoftware,KiCad,Pcbnew,9.0.6*%
%TF.CreationDate,2025-12-07T00:05:39-06:00*%
%TF.ProjectId,SplitKeyboard,53706c69-744b-4657-9962-6f6172642e6b,rev?*%
%TF.SameCoordinates,Original*%
%TF.FileFunction,Copper,L1,Top*%
%TF.FilePolarity,Positive*%
%FSLAX46Y46*%
G04 Gerber Fmt 4.6, Leading zero omitted, Abs format (unit mm)*
G04 Created by KiCad (PCBNEW 9.0.6) date 2025-12-07 00:05:39*
%MOMM*%
%LPD*%
G01*
G04 APERTURE LIST*
%TA.AperFunction,ComponentPad*%
%ADD10R,1.752600X1.752600*%
%TD*%
%TA.AperFunction,ComponentPad*%
%ADD11C,1.752600*%
%TD*%
%TA.AperFunction,ComponentPad*%
%ADD12O,2.000000X1.600000*%
%TD*%
%TA.AperFunction,ComponentPad*%
%ADD13R,2.250000X2.250000*%
%TD*%
%TA.AperFunction,ComponentPad*%
%ADD14C,2.250000*%
%TD*%
%TA.AperFunction,ComponentPad*%
%ADD15R,1.700000X1.700000*%
%TD*%
%TA.AperFunction,ComponentPad*%
%ADD16O,1.700000X1.700000*%
%TD*%
%TA.AperFunction,ViaPad*%
%ADD17C,0.600000*%
%TD*%
%TA.AperFunction,Conductor*%
%ADD18C,0.200000*%
%TD*%
G04 APERTURE END LIST*
D10*
%TO.P,U2,1,TX0/PD3*%
%TO.N,TX0*%
X127148750Y-64442500D03*
D11*
%TO.P,U2,2,RX1/PD2*%
%TO.N,unconnected-(U2-RX1{slash}PD2-Pad2)*%
X127148750Y-66982500D03*
%TO.P,U2,3,GND*%
%TO.N,unconnected-(U2-GND-Pad3)*%
X127148750Y-69522500D03*
%TO.P,U2,4,GND*%
%TO.N,GND*%
X127148750Y-72062500D03*
%TO.P,U2,5,2/PD1*%
%TO.N,COL0*%
X127148750Y-74602500D03*
%TO.P,U2,6,3/PD0*%
%TO.N,COL1*%
X127148750Y-77142500D03*
%TO.P,U2,7,4/PD4*%
%TO.N,COL2*%
X127148750Y-79682500D03*
%TO.P,U2,8,5/PC6*%
%TO.N,COL3*%
X127148750Y-82222500D03*
%TO.P,U2,9,6/PD7*%
%TO.N,COL4*%
X127148750Y-84762500D03*
%TO.P,U2,10,7/PE6*%
%TO.N,COL5*%
X127148750Y-87302500D03*
%TO.P,U2,11,8/PB4*%
%TO.N,ROW0*%
X127148750Y-89842500D03*
%TO.P,U2,12,9/PB5*%
%TO.N,ROW1*%
X127148750Y-92382500D03*
%TO.P,U2,13,10/PB6*%
%TO.N,ROW2*%
X142388750Y-92382500D03*
%TO.P,U2,14,16/PB2*%
%TO.N,ROW3*%
X142388750Y-89842500D03*
%TO.P,U2,15,14/PB3*%
%TO.N,SCL*%
X142388750Y-87302500D03*
%TO.P,U2,16,15/PB1*%
%TO.N,SDA*%
X142388750Y-84762500D03*
%TO.P,U2,17,A0/PF7*%
%TO.N,unconnected-(U2-A0{slash}PF7-Pad17)*%
X142388750Y-82222500D03*
%TO.P,U2,18,A1/PF6*%
%TO.N,unconnected-(U2-A1{slash}PF6-Pad18)*%
X142388750Y-79682500D03*
%TO.P,U2,19,A2/PF5*%
%TO.N,unconnected-(U2-A2{slash}PF5-Pad19)*%
X142388750Y-77142500D03*
%TO.P,U2,20,A3/PF4*%
%TO.N,unconnected-(U2-A3{slash}PF4-Pad20)*%
X142388750Y-74602500D03*
%TO.P,U2,21,VCC*%
%TO.N,VCC*%
X142388750Y-72062500D03*
%TO.P,U2,22,RST*%
%TO.N,RST*%
X142388750Y-69522500D03*
%TO.P,U2,23,GND*%
%TO.N,unconnected-(U2-GND-Pad23)*%
X142388750Y-66982500D03*
%TO.P,U2,24,RAW*%
%TO.N,unconnected-(U2-RAW-Pad24)*%
X142388750Y-64442500D03*
%TD*%
D12*
%TO.P,U4,1,SLEEVE*%
%TO.N,unconnected-(U4-SLEEVE-Pad1)*%
X167890404Y-121193970D03*
%TO.P,U4,2,TIP*%
%TO.N,TX0R*%
X166790404Y-116593970D03*
%TO.P,U4,3,RING1*%
%TO.N,VCCR*%
X162790403Y-116593971D03*
%TO.P,U4,4,RING2*%
%TO.N,GNDR*%
X159790405Y-116593972D03*
%TD*%
D13*
%TO.P,SW44,1,1*%
%TO.N,GNDR*%
X159321654Y-109368971D03*
D14*
%TO.P,SW44,2,2*%
%TO.N,RSTR*%
X165821654Y-109368971D03*
%TD*%
D12*
%TO.P,U1,1,SLEEVE*%
%TO.N,unconnected-(U1-SLEEVE-Pad1)*%
X130612500Y-116593749D03*
%TO.P,U1,2,TIP*%
%TO.N,TX0*%
X131712499Y-121193750D03*
%TO.P,U1,3,RING1*%
%TO.N,VCC*%
X135712499Y-121193749D03*
%TO.P,U1,4,RING2*%
%TO.N,GND*%
X138712501Y-121193750D03*
%TD*%
D10*
%TO.P,U3,1,TX0/PD3*%
%TO.N,TX0R*%
X156464154Y-64442721D03*
D11*
%TO.P,U3,2,RX1/PD2*%
%TO.N,unconnected-(U3-RX1{slash}PD2-Pad2)*%
X156464154Y-66982721D03*
%TO.P,U3,3,GND*%
%TO.N,unconnected-(U3-GND-Pad3)*%
X156464154Y-69522721D03*
%TO.P,U3,4,GND*%
%TO.N,unconnected-(U3-GND-Pad4)*%
X156464154Y-72062721D03*
%TO.P,U3,5,2/PD1*%
%TO.N,COLR5*%
X156464154Y-74602721D03*
%TO.P,U3,6,3/PD0*%
%TO.N,COLR4*%
X156464154Y-77142721D03*
%TO.P,U3,7,4/PD4*%
%TO.N,COLR3*%
X156464154Y-79682721D03*
%TO.P,U3,8,5/PC6*%
%TO.N,COLR2*%
X156464154Y-82222721D03*
%TO.P,U3,9,6/PD7*%
%TO.N,COLR1*%
X156464154Y-84762721D03*
%TO.P,U3,10,7/PE6*%
%TO.N,COLR0*%
X156464154Y-87302721D03*
%TO.P,U3,11,8/PB4*%
%TO.N,ROWR0*%
X156464154Y-89842721D03*
%TO.P,U3,12,9/PB5*%
%TO.N,ROWR1*%
X156464154Y-92382721D03*
%TO.P,U3,13,10/PB6*%
%TO.N,ROWR2*%
X171704154Y-92382721D03*
%TO.P,U3,14,16/PB2*%
%TO.N,ROWR3*%
X171704154Y-89842721D03*
%TO.P,U3,15,14/PB3*%
%TO.N,SCLR*%
X171704154Y-87302721D03*
%TO.P,U3,16,15/PB1*%
%TO.N,SDAR*%
X171704154Y-84762721D03*
%TO.P,U3,17,A0/PF7*%
%TO.N,unconnected-(U3-A0{slash}PF7-Pad17)*%
X171704154Y-82222721D03*
%TO.P,U3,18,A1/PF6*%
%TO.N,unconnected-(U3-A1{slash}PF6-Pad18)*%
X171704154Y-79682721D03*
%TO.P,U3,19,A2/PF5*%
%TO.N,unconnected-(U3-A2{slash}PF5-Pad19)*%
X171704154Y-77142721D03*
%TO.P,U3,20,A3/PF4*%
%TO.N,unconnected-(U3-A3{slash}PF4-Pad20)*%
X171704154Y-74602721D03*
%TO.P,U3,21,VCC*%
%TO.N,VCCR*%
X171704154Y-72062721D03*
%TO.P,U3,22,RST*%
%TO.N,RSTR*%
X171704154Y-69522721D03*
%TO.P,U3,23,GND*%
%TO.N,GNDR*%
X171704154Y-66982721D03*
%TO.P,U3,24,RAW*%
%TO.N,unconnected-(U3-RAW-Pad24)*%
X171704154Y-64442721D03*
%TD*%
D15*
%TO.P,J2,1,GND*%
%TO.N,GNDR*%
X167709156Y-98243971D03*
D16*
%TO.P,J2,2,VCC*%
%TO.N,VCCR*%
X165169153Y-98243971D03*
%TO.P,J2,3,SCL*%
%TO.N,SCLR*%
X162629153Y-98243971D03*
%TO.P,J2,4,SDA*%
%TO.N,SDAR*%
X160089154Y-98243971D03*
%TD*%
D15*
%TO.P,J1,1,GND*%
%TO.N,GND*%
X138400001Y-98243750D03*
D16*
%TO.P,J1,2,VCC*%
%TO.N,VCC*%
X135859998Y-98243750D03*
%TO.P,J1,3,SCL*%
%TO.N,SCL*%
X133319998Y-98243750D03*
%TO.P,J1,4,SDA*%
%TO.N,SDA*%
X130779999Y-98243750D03*
%TD*%
D13*
%TO.P,SW43,1,1*%
%TO.N,GND*%
X132387500Y-109368750D03*
D14*
%TO.P,SW43,2,2*%
%TO.N,RST*%
X138887500Y-109368750D03*
%TD*%
D17*
%TO.N,COL1*%
X32387500Y-80887500D03*
%TO.N,COL2*%
X51831250Y-77075000D03*
%TO.N,COL3*%
X71275000Y-91943750D03*
%TO.N,COL4*%
X90337500Y-96137500D03*
%TO.N,ROWR0*%
X199846654Y-77837721D03*
X181546654Y-80125221D03*
X218909154Y-75168971D03*
X191840404Y-78600221D03*
X209759154Y-76312721D03*
X278002904Y-82793971D03*
X265802904Y-80887721D03*
X238352904Y-77837721D03*
X248265404Y-75931471D03*
X257034154Y-82412721D03*
X228821654Y-73643971D03*
%TO.N,ROWR1*%
X181165404Y-98043971D03*
%TD*%
D18*
%TO.N,GND*%
X132387500Y-109368750D02*
X138400001Y-103356249D01*
X138400001Y-103356249D02*
X138400001Y-98243750D01*
X138712501Y-121193750D02*
X137081251Y-122825000D01*
X137081251Y-122825000D02*
X133800000Y-122825000D01*
X133800000Y-122825000D02*
X133800000Y-121524202D01*
X132387500Y-120111702D02*
X132387500Y-109368750D01*
X133800000Y-121524202D02*
X132387500Y-120111702D01*
%TO.N,SDA*%
X130779999Y-96371251D02*
X142388750Y-84762500D01*
X130779999Y-98243750D02*
X130779999Y-96371251D01*
%TO.N,SCL*%
X133319998Y-98243750D02*
X133319998Y-96371252D01*
X133319998Y-96371252D02*
X142388750Y-87302500D01*
%TO.N,VCC*%
X129628999Y-84822251D02*
X142388750Y-72062500D01*
X130303239Y-99394750D02*
X129628999Y-98720510D01*
X135712499Y-121193749D02*
X135712499Y-106610851D01*
X140943750Y-101379600D02*
X140943750Y-96037500D01*
X140943750Y-96037500D02*
X139800000Y-94893750D01*
X135712499Y-106610851D02*
X140943750Y-101379600D01*
X135859998Y-98243750D02*
X134708998Y-99394750D01*
X137893750Y-94893750D02*
X135859998Y-96927502D01*
X134708998Y-99394750D02*
X130303239Y-99394750D01*
X139800000Y-94893750D02*
X137893750Y-94893750D01*
X129628999Y-98720510D02*
X129628999Y-84822251D01*
X135859998Y-96927502D02*
X135859998Y-98243750D01*
%TO.N,COL1*%
X46875000Y-76312500D02*
X66318750Y-76312500D01*
X102537500Y-75931250D02*
X104825000Y-78218750D01*
X68987500Y-73643750D02*
X83093750Y-73643750D01*
X83093750Y-73643750D02*
X85381250Y-75931250D01*
X85381250Y-75931250D02*
X102537500Y-75931250D01*
X32387500Y-80887500D02*
X42300000Y-80887500D01*
X42300000Y-80887500D02*
X46875000Y-76312500D01*
X104825000Y-78218750D02*
X126072500Y-78218750D01*
X126072500Y-78218750D02*
X127148750Y-77142500D01*
X66318750Y-76312500D02*
X68987500Y-73643750D01*
%TO.N,COL2*%
X66700000Y-77075000D02*
X69368750Y-74406250D01*
X85381250Y-77075000D02*
X102537500Y-77075000D01*
X102537500Y-77075000D02*
X104443750Y-78981250D01*
X125351250Y-79682500D02*
X127148750Y-79682500D01*
X69368750Y-74406250D02*
X82712500Y-74406250D01*
X51831250Y-77075000D02*
X66700000Y-77075000D01*
X82712500Y-74406250D02*
X85381250Y-77075000D01*
X124650000Y-78981250D02*
X125351250Y-79682500D01*
X104443750Y-78981250D02*
X124650000Y-78981250D01*
%TO.N,COL3*%
X106350000Y-97281250D02*
X119693750Y-97281250D01*
X71275000Y-91943750D02*
X83856250Y-91943750D01*
X121600000Y-84700000D02*
X124077500Y-82222500D01*
X124077500Y-82222500D02*
X127148750Y-82222500D01*
X86525000Y-94612500D02*
X103681250Y-94612500D01*
X103681250Y-94612500D02*
X106350000Y-97281250D01*
X83856250Y-91943750D02*
X86525000Y-94612500D01*
X121600000Y-95375000D02*
X121600000Y-84700000D01*
X119693750Y-97281250D02*
X121600000Y-95375000D01*
%TO.N,COL4*%
X122362500Y-96518750D02*
X122362500Y-88131250D01*
X122362500Y-88131250D02*
X125731250Y-84762500D01*
X105587500Y-98425000D02*
X120456250Y-98425000D01*
X125731250Y-84762500D02*
X127148750Y-84762500D01*
X120456250Y-98425000D02*
X122362500Y-96518750D01*
X103300000Y-96137500D02*
X105587500Y-98425000D01*
X90337500Y-96137500D02*
X103300000Y-96137500D01*
%TO.N,GNDR*%
X165802904Y-107093971D02*
X169234154Y-103662721D01*
X161596654Y-107093971D02*
X165802904Y-107093971D01*
X173540404Y-68818971D02*
X173540404Y-69450221D01*
X169234154Y-103662721D02*
X169234154Y-99768969D01*
X167709156Y-74392765D02*
X167709156Y-98243971D01*
X171216500Y-70885421D02*
X167709156Y-74392765D01*
X169234154Y-99768969D02*
X167709156Y-98243971D01*
X173540404Y-68818971D02*
X171704154Y-66982721D01*
X159321654Y-109368971D02*
X161596654Y-107093971D01*
X173540404Y-69450221D02*
X172105204Y-70885421D01*
X172105204Y-70885421D02*
X171216500Y-70885421D01*
X159790405Y-116593972D02*
X159790405Y-109837722D01*
%TO.N,VCCR*%
X163891402Y-117694970D02*
X169520655Y-117694970D01*
X162114555Y-116593971D02*
X160612554Y-118095972D01*
X160612554Y-118095972D02*
X158968256Y-118095972D01*
X173159154Y-114056471D02*
X173159154Y-73517721D01*
X157494654Y-103583471D02*
X161227904Y-99850221D01*
X158968256Y-118095972D02*
X157494654Y-116622370D01*
X173159154Y-73517721D02*
X171704154Y-72062721D01*
X169520655Y-117694970D02*
X173159154Y-114056471D01*
X163134154Y-99850221D02*
X164740404Y-98243971D01*
X162790403Y-116593971D02*
X163891402Y-117694970D01*
X161227904Y-99850221D02*
X163134154Y-99850221D01*
X157494654Y-116622370D02*
X157494654Y-103583471D01*
%TO.N,ROWR0*%
X173540404Y-62587721D02*
X166677904Y-62587721D01*
X209759154Y-76312721D02*
X217765404Y-76312721D01*
X175065404Y-75550221D02*
X175065404Y-64112721D01*
X179640404Y-80125221D02*
X175065404Y-75550221D01*
X166677904Y-62587721D02*
X160329779Y-68935846D01*
X250552904Y-75931471D02*
X248265404Y-75931471D01*
X238352904Y-77837721D02*
X234159154Y-73643971D01*
X160329779Y-68935846D02*
X160329779Y-85977096D01*
X160329779Y-85977096D02*
X156464154Y-89842721D01*
X181546654Y-80125221D02*
X179640404Y-80125221D01*
X228821654Y-73643971D02*
X234159154Y-73643971D01*
X191840404Y-78600221D02*
X199084154Y-78600221D01*
X218909154Y-75168971D02*
X217765404Y-76312721D01*
X278002904Y-82793971D02*
X276096654Y-80887721D01*
X257034154Y-82412721D02*
X250552904Y-75931471D01*
X199846654Y-77837721D02*
X199084154Y-78600221D01*
X276096654Y-80887721D02*
X265802904Y-80887721D01*
X175065404Y-64112721D02*
X173540404Y-62587721D01*
%TO.N,ROWR1*%
X160196654Y-118631471D02*
X159052904Y-119775221D01*
X157146654Y-119393971D02*
X157146654Y-117106471D01*
X173560154Y-105649221D02*
X173560154Y-114222571D01*
X164390830Y-118631471D02*
X160196654Y-118631471D01*
X155521654Y-115481471D02*
X155509154Y-115481471D01*
X155509154Y-115481471D02*
X155509154Y-93337721D01*
X164926329Y-118095972D02*
X164390830Y-118631471D01*
X155509154Y-93337721D02*
X156464154Y-92382721D01*
X169686753Y-118095972D02*
X164926329Y-118095972D01*
X157527904Y-119775221D02*
X157146654Y-119393971D01*
X173560154Y-114222571D02*
X169686753Y-118095972D01*
X181165404Y-98043971D02*
X173560154Y-105649221D01*
X159052904Y-119775221D02*
X157527904Y-119775221D01*
X157146654Y-117106471D02*
X155521654Y-115481471D01*
%TO.N,TX0*%
X127636404Y-75779800D02*
X126661096Y-75779800D01*
X126661096Y-75779800D02*
X125793750Y-74912454D01*
X128326050Y-76469446D02*
X127636404Y-75779800D01*
X125793750Y-65797500D02*
X127148750Y-64442500D01*
X125793750Y-74912454D02*
X125793750Y-65797500D01*
X131712499Y-121193750D02*
X128326050Y-117807301D01*
X128326050Y-117807301D02*
X128326050Y-76469446D01*
%TO.N,RST*%
X138887500Y-109368750D02*
X143712500Y-104543750D01*
X143712500Y-70846250D02*
X142388750Y-69522500D01*
X143712500Y-104543750D02*
X143712500Y-70846250D01*
%TO.N,RSTR*%
X166558156Y-98827871D02*
X166558156Y-76781471D01*
X165154556Y-100231471D02*
X166558156Y-98827871D01*
X159134356Y-117694972D02*
X157895654Y-116456270D01*
X165821654Y-109368971D02*
X161091405Y-114099220D01*
X167308156Y-76031471D02*
X167308156Y-73918719D01*
X157895654Y-116456270D02*
X157895654Y-103749571D01*
X166558156Y-76781471D02*
X167308156Y-76031471D01*
X160446454Y-117694972D02*
X159134356Y-117694972D01*
X157895654Y-103749571D02*
X161394004Y-100251221D01*
X161091405Y-117050021D02*
X160446454Y-117694972D01*
X161091405Y-114099220D02*
X161091405Y-117050021D01*
X163483154Y-100231471D02*
X165154556Y-100231471D01*
X163463404Y-100251221D02*
X163483154Y-100231471D01*
X161394004Y-100251221D02*
X163463404Y-100251221D01*
X167308156Y-73918719D02*
X171704154Y-69522721D01*
%TD*%
M02*
