M48
; DRILL file {KiCad 9.0.6} date 2025-12-07T00:05:35-0600
; FORMAT={-:-/ absolute / metric / decimal}
; #@! TF.CreationDate,2025-12-07T00:05:35-06:00
; #@! TF.GenerationSoftware,Kicad,Pcbnew,9.0.6
; #@! TF.FileFunction,Plated,1,2,PTH
FMAT,2
METRIC
; #@! TA.AperFunction,Plated,PTH,ViaDrill
T1C0.300
; #@! TA.AperFunction,Plated,PTH,ComponentDrill
T2C0.900
; #@! TA.AperFunction,Plated,PTH,ComponentDrill
T3C1.000
; #@! TA.AperFunction,Plated,PTH,ComponentDrill
T4C1.092
; #@! TA.AperFunction,Plated,PTH,ComponentDrill
T5C1.300
%
G90
G05
T1
X32.387Y-80.888
X51.831Y-77.075
X71.275Y-91.944
X90.337Y-96.137
X181.165Y-98.044
X181.547Y-80.125
X191.84Y-78.6
X199.847Y-77.838
X209.759Y-76.313
X218.909Y-75.169
X228.822Y-73.644
X238.353Y-77.838
X248.265Y-75.931
X257.034Y-82.413
X265.803Y-80.888
X278.003Y-82.794
T3
X130.78Y-98.244
X133.32Y-98.244
X135.86Y-98.244
X138.4Y-98.244
X160.089Y-98.244
X162.629Y-98.244
X165.169Y-98.244
X167.709Y-98.244
T4
X127.149Y-64.442
X127.149Y-66.983
X127.149Y-69.522
X127.149Y-72.062
X127.149Y-74.602
X127.149Y-77.142
X127.149Y-79.682
X127.149Y-82.222
X127.149Y-84.763
X127.149Y-87.302
X127.149Y-89.843
X127.149Y-92.382
X142.389Y-64.442
X142.389Y-66.983
X142.389Y-69.522
X142.389Y-72.062
X142.389Y-74.602
X142.389Y-77.142
X142.389Y-79.682
X142.389Y-82.222
X142.389Y-84.763
X142.389Y-87.302
X142.389Y-89.843
X142.389Y-92.382
X156.464Y-64.443
X156.464Y-66.983
X156.464Y-69.523
X156.464Y-72.063
X156.464Y-74.603
X156.464Y-77.143
X156.464Y-79.683
X156.464Y-82.223
X156.464Y-84.763
X156.464Y-87.303
X156.464Y-89.843
X156.464Y-92.383
X171.704Y-64.443
X171.704Y-66.983
X171.704Y-69.523
X171.704Y-72.063
X171.704Y-74.603
X171.704Y-77.143
X171.704Y-79.683
X171.704Y-82.223
X171.704Y-84.763
X171.704Y-87.303
X171.704Y-89.843
X171.704Y-92.383
T5
X132.387Y-109.369
X138.887Y-109.369
X159.322Y-109.369
X165.822Y-109.369
T2
G00X130.812Y-116.594
M15
G01X130.412Y-116.594
M16
G05
G00X131.912Y-121.194
M15
G01X131.512Y-121.194
M16
G05
G00X135.912Y-121.194
M15
G01X135.512Y-121.194
M16
G05
G00X138.913Y-121.194
M15
G01X138.513Y-121.194
M16
G05
G00X159.59Y-116.594
M15
G01X159.99Y-116.594
M16
G05
G00X162.59Y-116.594
M15
G01X162.99Y-116.594
M16
G05
G00X166.59Y-116.594
M15
G01X166.99Y-116.594
M16
G05
G00X167.69Y-121.194
M15
G01X168.09Y-121.194
M16
G05
M30
