%TF.GenerationSoftware,KiCad,Pcbnew,9.0.6*%
%TF.CreationDate,2025-12-07T00:05:39-06:00*%
%TF.ProjectId,SplitKeyboard,53706c69-744b-4657-9962-6f6172642e6b,rev?*%
%TF.SameCoordinates,Original*%
%TF.FileFunction,Paste,Bot*%
%TF.FilePolarity,Positive*%
%FSLAX46Y46*%
G04 Gerber Fmt 4.6, Leading zero omitted, Abs format (unit mm)*
G04 Created by KiCad (PCBNEW 9.0.6) date 2025-12-07 00:05:39*
%MOMM*%
%LPD*%
G01*
G04 APERTURE LIST*
G04 Aperture macros list*
%AMRoundRect*
0 Rectangle with rounded corners*
0 $1 Rounding radius*
0 $2 $3 $4 $5 $6 $7 $8 $9 X,Y pos of 4 corners*
0 Add a 4 corners polygon primitive as box body*
4,1,4,$2,$3,$4,$5,$6,$7,$8,$9,$2,$3,0*
0 Add four circle primitives for the rounded corners*
1,1,$1+$1,$2,$3*
1,1,$1+$1,$4,$5*
1,1,$1+$1,$6,$7*
1,1,$1+$1,$8,$9*
0 Add four rect primitives between the rounded corners*
20,1,$1+$1,$2,$3,$4,$5,0*
20,1,$1+$1,$4,$5,$6,$7,0*
20,1,$1+$1,$6,$7,$8,$9,0*
20,1,$1+$1,$8,$9,$2,$3,0*%
G04 Aperture macros list end*
%ADD10RoundRect,0.250000X-1.025000X-1.000000X1.025000X-1.000000X1.025000X1.000000X-1.025000X1.000000X0*%
%ADD11RoundRect,0.250000X-1.387676X-0.353525X0.387676X-1.378525X1.387676X0.353525X-0.387676X1.378525X0*%
%ADD12RoundRect,0.250000X-0.387676X-1.378525X1.387676X-0.353525X0.387676X1.378525X-1.387676X0.353525X0*%
%ADD13RoundRect,0.250000X-0.731255X-1.231215X1.248893X-0.700636X0.731255X1.231215X-1.248893X0.700636X0*%
%ADD14RoundRect,0.250000X-1.248893X-0.700636X0.731255X-1.231215X1.248893X0.700636X-0.731255X1.231215X0*%
%ADD15RoundRect,0.225000X0.225000X0.375000X-0.225000X0.375000X-0.225000X-0.375000X0.225000X-0.375000X0*%
%ADD16RoundRect,0.225000X0.007356X0.437260X-0.382356X0.212260X-0.007356X-0.437260X0.382356X-0.212260X0*%
%ADD17RoundRect,0.225000X0.314390X0.303988X-0.120276X0.420456X-0.314390X-0.303988X0.120276X-0.420456X0*%
%ADD18RoundRect,0.225000X0.382356X0.212260X-0.007356X0.437260X-0.382356X-0.212260X0.007356X-0.437260X0*%
%ADD19RoundRect,0.225000X0.120276X0.420456X-0.314390X0.303988X-0.120276X-0.420456X0.314390X-0.303988X0*%
G04 APERTURE END LIST*
D10*
%TO.C,SW22*%
X178430404Y-66347721D03*
X191357404Y-63807721D03*
%TD*%
D11*
%TO.C,SW21*%
X117996710Y-132201545D03*
X130461820Y-136465341D03*
%TD*%
D10*
%TO.C,SW37*%
X235580404Y-102066471D03*
X248507404Y-99526471D03*
%TD*%
%TO.C,SW1*%
X11002500Y-68728750D03*
X23929500Y-66188750D03*
%TD*%
%TO.C,SW36*%
X216530404Y-99685221D03*
X229457404Y-97145221D03*
%TD*%
%TO.C,SW23*%
X197480404Y-63966471D03*
X210407404Y-61426471D03*
%TD*%
%TO.C,SW35*%
X197480404Y-102066471D03*
X210407404Y-99526471D03*
%TD*%
%TO.C,SW16*%
X68152500Y-99685000D03*
X81079500Y-97145000D03*
%TD*%
%TO.C,SW15*%
X49102500Y-102066250D03*
X62029500Y-99526250D03*
%TD*%
%TO.C,SW38*%
X254630404Y-106828971D03*
X267557404Y-104288971D03*
%TD*%
%TO.C,SW9*%
X49102500Y-83016250D03*
X62029500Y-80476250D03*
%TD*%
%TO.C,SW30*%
X216530404Y-80635221D03*
X229457404Y-78095221D03*
%TD*%
%TO.C,SW27*%
X273680404Y-68728971D03*
X286607404Y-66188971D03*
%TD*%
%TO.C,SW26*%
X254630404Y-68728971D03*
X267557404Y-66188971D03*
%TD*%
%TO.C,SW4*%
X68152500Y-61585000D03*
X81079500Y-59045000D03*
%TD*%
%TO.C,SW18*%
X106252500Y-104447500D03*
X119179500Y-101907500D03*
%TD*%
%TO.C,SW42*%
X216530404Y-123497721D03*
X229457404Y-120957721D03*
%TD*%
%TO.C,SW31*%
X235580404Y-83016471D03*
X248507404Y-80476471D03*
%TD*%
%TO.C,SW32*%
X254630404Y-87778971D03*
X267557404Y-85238971D03*
%TD*%
D12*
%TO.C,SW40*%
X168584614Y-139286766D03*
X178509724Y-130623562D03*
%TD*%
D10*
%TO.C,SW39*%
X273680404Y-106828971D03*
X286607404Y-104288971D03*
%TD*%
%TO.C,SW10*%
X68152500Y-80635000D03*
X81079500Y-78095000D03*
%TD*%
%TO.C,SW33*%
X273680404Y-87778971D03*
X286607404Y-85238971D03*
%TD*%
%TO.C,SW14*%
X30052500Y-106828750D03*
X42979500Y-104288750D03*
%TD*%
D13*
%TO.C,SW41*%
X192301919Y-127799252D03*
X204131042Y-122000047D03*
%TD*%
D10*
%TO.C,SW8*%
X30052500Y-87778750D03*
X42979500Y-85238750D03*
%TD*%
%TO.C,SW29*%
X197480404Y-83016471D03*
X210407404Y-80476471D03*
%TD*%
%TO.C,SW17*%
X87202500Y-102066250D03*
X100129500Y-99526250D03*
%TD*%
%TO.C,SW6*%
X106252500Y-66347500D03*
X119179500Y-63807500D03*
%TD*%
%TO.C,SW12*%
X106252500Y-85397500D03*
X119179500Y-82857500D03*
%TD*%
%TO.C,SW28*%
X178430404Y-85397721D03*
X191357404Y-82857721D03*
%TD*%
%TO.C,SW2*%
X30052500Y-68728750D03*
X42979500Y-66188750D03*
%TD*%
%TO.C,SW19*%
X68152500Y-123497500D03*
X81079500Y-120957500D03*
%TD*%
%TO.C,SW7*%
X11002500Y-87778750D03*
X23929500Y-85238750D03*
%TD*%
%TO.C,SW24*%
X216530404Y-61585221D03*
X229457404Y-59045221D03*
%TD*%
%TO.C,SW11*%
X87202500Y-83016250D03*
X100129500Y-80476250D03*
%TD*%
%TO.C,SW13*%
X11002500Y-106828750D03*
X23929500Y-104288750D03*
%TD*%
%TO.C,SW3*%
X49102500Y-63966250D03*
X62029500Y-61426250D03*
%TD*%
%TO.C,SW5*%
X87202500Y-63966250D03*
X100129500Y-61426250D03*
%TD*%
%TO.C,SW25*%
X235580404Y-63966471D03*
X248507404Y-61426471D03*
%TD*%
%TO.C,SW34*%
X178430404Y-104447721D03*
X191357404Y-101907721D03*
%TD*%
D14*
%TO.C,SW20*%
X92863816Y-124131565D03*
X106007739Y-125023868D03*
%TD*%
D15*
%TO.C,D33*%
X282415404Y-99843971D03*
X279115404Y-99843971D03*
%TD*%
%TO.C,D36*%
X225265404Y-111750221D03*
X221965404Y-111750221D03*
%TD*%
%TO.C,D23*%
X206215404Y-76031471D03*
X202915404Y-76031471D03*
%TD*%
%TO.C,D10*%
X76887500Y-92700000D03*
X73587500Y-92700000D03*
%TD*%
%TO.C,D13*%
X19737500Y-118893750D03*
X16437500Y-118893750D03*
%TD*%
%TO.C,D26*%
X263365402Y-80793971D03*
X260065406Y-80793971D03*
%TD*%
D16*
%TO.C,D40*%
X172656845Y-127593971D03*
X169798963Y-129243971D03*
%TD*%
D15*
%TO.C,D38*%
X263365404Y-118893971D03*
X260065404Y-118893971D03*
%TD*%
%TO.C,D29*%
X206215404Y-95081471D03*
X202915404Y-95081471D03*
%TD*%
%TO.C,D39*%
X282415404Y-118893971D03*
X279115404Y-118893971D03*
%TD*%
%TO.C,D35*%
X206215404Y-114131471D03*
X202915404Y-114131471D03*
%TD*%
%TO.C,D16*%
X76887500Y-111750000D03*
X73587500Y-111750000D03*
%TD*%
%TO.C,D24*%
X225265404Y-73650221D03*
X221965404Y-73650221D03*
%TD*%
%TO.C,D28*%
X187165404Y-95081471D03*
X183865404Y-95081471D03*
%TD*%
%TO.C,D14*%
X38787500Y-118893750D03*
X35487500Y-118893750D03*
%TD*%
%TO.C,D18*%
X114987500Y-116512500D03*
X111687500Y-116512500D03*
%TD*%
D17*
%TO.C,D20*%
X98262528Y-138370800D03*
X95074972Y-137516700D03*
%TD*%
D15*
%TO.C,D1*%
X19737500Y-80793750D03*
X16437500Y-80793750D03*
%TD*%
%TO.C,D17*%
X95937500Y-114131250D03*
X92637500Y-114131250D03*
%TD*%
D18*
%TO.C,D21*%
X129053942Y-129243749D03*
X126196058Y-127593751D03*
%TD*%
D15*
%TO.C,D42*%
X225265404Y-135562721D03*
X221965404Y-135562721D03*
%TD*%
D19*
%TO.C,D41*%
X203777931Y-137516919D03*
X200590377Y-138371023D03*
%TD*%
D15*
%TO.C,D9*%
X57837500Y-92700000D03*
X54537500Y-92700000D03*
%TD*%
%TO.C,D12*%
X114987500Y-97462500D03*
X111687500Y-97462500D03*
%TD*%
%TO.C,D5*%
X95937500Y-76031250D03*
X92637500Y-76031250D03*
%TD*%
%TO.C,D4*%
X76887500Y-73650000D03*
X73587500Y-73650000D03*
%TD*%
%TO.C,D6*%
X114987500Y-78412500D03*
X111687500Y-78412500D03*
%TD*%
%TO.C,D7*%
X19737500Y-99843750D03*
X16437500Y-99843750D03*
%TD*%
%TO.C,D31*%
X244315404Y-95081471D03*
X241015404Y-95081471D03*
%TD*%
%TO.C,D37*%
X244315404Y-114131471D03*
X241015404Y-114131471D03*
%TD*%
%TO.C,D19*%
X76887500Y-135562500D03*
X73587500Y-135562500D03*
%TD*%
%TO.C,D8*%
X38787500Y-99843750D03*
X35487500Y-99843750D03*
%TD*%
%TO.C,D2*%
X38787500Y-80793750D03*
X35487500Y-80793750D03*
%TD*%
%TO.C,D15*%
X57837500Y-114131250D03*
X54537500Y-114131250D03*
%TD*%
%TO.C,D22*%
X187165404Y-78412721D03*
X183865404Y-78412721D03*
%TD*%
%TO.C,D32*%
X263365404Y-99843971D03*
X260065404Y-99843971D03*
%TD*%
%TO.C,D11*%
X95937500Y-95081250D03*
X92637500Y-95081250D03*
%TD*%
%TO.C,D30*%
X225265404Y-92700221D03*
X221965404Y-92700221D03*
%TD*%
%TO.C,D25*%
X244315404Y-76031471D03*
X241015404Y-76031471D03*
%TD*%
%TO.C,D27*%
X282415404Y-80793971D03*
X279115404Y-80793971D03*
%TD*%
%TO.C,D34*%
X187165404Y-116512721D03*
X183865404Y-116512721D03*
%TD*%
%TO.C,D3*%
X57837500Y-73650000D03*
X54537500Y-73650000D03*
%TD*%
M02*
