%TF.GenerationSoftware,KiCad,Pcbnew,9.0.6*%
%TF.CreationDate,2025-12-07T00:05:39-06:00*%
%TF.ProjectId,SplitKeyboard,53706c69-744b-4657-9962-6f6172642e6b,rev?*%
%TF.SameCoordinates,Original*%
%TF.FileFunction,Soldermask,Top*%
%TF.FilePolarity,Negative*%
%FSLAX46Y46*%
G04 Gerber Fmt 4.6, Leading zero omitted, Abs format (unit mm)*
G04 Created by KiCad (PCBNEW 9.0.6) date 2025-12-07 00:05:39*
%MOMM*%
%LPD*%
G01*
G04 APERTURE LIST*
%ADD10C,1.750000*%
%ADD11C,3.050000*%
%ADD12C,4.000000*%
%ADD13C,2.200000*%
%ADD14R,1.752600X1.752600*%
%ADD15C,1.752600*%
%ADD16C,0.800000*%
%ADD17O,2.000000X1.600000*%
%ADD18R,2.250000X2.250000*%
%ADD19C,2.250000*%
%ADD20R,1.700000X1.700000*%
%ADD21O,1.700000X1.700000*%
G04 APERTURE END LIST*
D10*
%TO.C,SW22*%
X180435404Y-68887721D03*
D11*
X181705404Y-66347721D03*
D12*
X185515404Y-68887721D03*
D11*
X188055404Y-63807721D03*
D10*
X190595404Y-68887721D03*
%TD*%
D13*
%TO.C,H6*%
X134768750Y-73650000D03*
%TD*%
D10*
%TO.C,SW21*%
X118463091Y-135403750D03*
D11*
X120832943Y-133839046D03*
D12*
X122862500Y-137943750D03*
D11*
X127602205Y-134814341D03*
D10*
X127261909Y-140483750D03*
%TD*%
D13*
%TO.C,H9*%
X137150000Y-128418750D03*
%TD*%
D10*
%TO.C,SW37*%
X237585404Y-104606471D03*
D11*
X238855404Y-102066471D03*
D12*
X242665404Y-104606471D03*
D11*
X245205404Y-99526471D03*
D10*
X247745404Y-104606471D03*
%TD*%
D13*
%TO.C,H3*%
X190277904Y-145087721D03*
%TD*%
D10*
%TO.C,SW1*%
X13007500Y-71268750D03*
D11*
X14277500Y-68728750D03*
D12*
X18087500Y-71268750D03*
D11*
X20627500Y-66188750D03*
D10*
X23167500Y-71268750D03*
%TD*%
D14*
%TO.C,U2*%
X127148750Y-64442500D03*
D15*
X127148750Y-66982500D03*
X127148750Y-69522500D03*
X127148750Y-72062500D03*
X127148750Y-74602500D03*
X127148750Y-77142500D03*
X127148750Y-79682500D03*
X127148750Y-82222500D03*
X127148750Y-84762500D03*
X127148750Y-87302500D03*
X127148750Y-89842500D03*
X127148750Y-92382500D03*
X142388750Y-92382500D03*
X142388750Y-89842500D03*
X142388750Y-87302500D03*
X142388750Y-84762500D03*
X142388750Y-82222500D03*
X142388750Y-79682500D03*
X142388750Y-77142500D03*
X142388750Y-74602500D03*
X142388750Y-72062500D03*
X142388750Y-69522500D03*
X142388750Y-66982500D03*
X142388750Y-64442500D03*
%TD*%
D13*
%TO.C,H8*%
X108575000Y-145087500D03*
%TD*%
D16*
%TO.C,U4*%
X158190403Y-118893971D03*
X165190404Y-118893971D03*
D17*
X167890404Y-121193970D03*
X166790404Y-116593970D03*
X162790403Y-116593971D03*
X159790405Y-116593972D03*
%TD*%
D10*
%TO.C,SW36*%
X218535404Y-102225221D03*
D11*
X219805404Y-99685221D03*
D12*
X223615404Y-102225221D03*
D11*
X226155404Y-97145221D03*
D10*
X228695404Y-102225221D03*
%TD*%
%TO.C,SW23*%
X199485404Y-66506471D03*
D11*
X200755404Y-63966471D03*
D12*
X204565404Y-66506471D03*
D11*
X207105404Y-61426471D03*
D10*
X209645404Y-66506471D03*
%TD*%
%TO.C,SW35*%
X199485404Y-104606471D03*
D11*
X200755404Y-102066471D03*
D12*
X204565404Y-104606471D03*
D11*
X207105404Y-99526471D03*
D10*
X209645404Y-104606471D03*
%TD*%
%TO.C,SW16*%
X70157500Y-102225000D03*
D11*
X71427500Y-99685000D03*
D12*
X75237500Y-102225000D03*
D11*
X77777500Y-97145000D03*
D10*
X80317500Y-102225000D03*
%TD*%
%TO.C,SW15*%
X51107500Y-104606250D03*
D11*
X52377500Y-102066250D03*
D12*
X56187500Y-104606250D03*
D11*
X58727500Y-99526250D03*
D10*
X61267500Y-104606250D03*
%TD*%
D18*
%TO.C,SW44*%
X159321654Y-109368971D03*
D19*
X165821654Y-109368971D03*
%TD*%
D13*
%TO.C,H5*%
X237980585Y-117727207D03*
%TD*%
D10*
%TO.C,SW38*%
X256635404Y-109368971D03*
D11*
X257905404Y-106828971D03*
D12*
X261715404Y-109368971D03*
D11*
X264255404Y-104288971D03*
D10*
X266795404Y-109368971D03*
%TD*%
%TO.C,SW9*%
X51107500Y-85556250D03*
D11*
X52377500Y-83016250D03*
D12*
X56187500Y-85556250D03*
D11*
X58727500Y-80476250D03*
D10*
X61267500Y-85556250D03*
%TD*%
%TO.C,SW30*%
X218535404Y-83175221D03*
D11*
X219805404Y-80635221D03*
D12*
X223615404Y-83175221D03*
D11*
X226155404Y-78095221D03*
D10*
X228695404Y-83175221D03*
%TD*%
%TO.C,SW27*%
X275685404Y-71268971D03*
D11*
X276955404Y-68728971D03*
D12*
X280765404Y-71268971D03*
D11*
X283305404Y-66188971D03*
D10*
X285845404Y-71268971D03*
%TD*%
%TO.C,SW26*%
X256635404Y-71268971D03*
D11*
X257905404Y-68728971D03*
D12*
X261715404Y-71268971D03*
D11*
X264255404Y-66188971D03*
D10*
X266795404Y-71268971D03*
%TD*%
%TO.C,SW4*%
X70157500Y-64125000D03*
D11*
X71427500Y-61585000D03*
D12*
X75237500Y-64125000D03*
D11*
X77777500Y-59045000D03*
D10*
X80317500Y-64125000D03*
%TD*%
%TO.C,SW18*%
X108257500Y-106987500D03*
D11*
X109527500Y-104447500D03*
D12*
X113337500Y-106987500D03*
D11*
X115877500Y-101907500D03*
D10*
X118417500Y-106987500D03*
%TD*%
%TO.C,SW42*%
X218535404Y-126037721D03*
D11*
X219805404Y-123497721D03*
D12*
X223615404Y-126037721D03*
D11*
X226155404Y-120957721D03*
D10*
X228695404Y-126037721D03*
%TD*%
D13*
%TO.C,H1*%
X164084154Y-73650221D03*
%TD*%
D10*
%TO.C,SW31*%
X237585404Y-85556471D03*
D11*
X238855404Y-83016471D03*
D12*
X242665404Y-85556471D03*
D11*
X245205404Y-80476471D03*
D10*
X247745404Y-85556471D03*
%TD*%
%TO.C,SW32*%
X256635404Y-90318971D03*
D11*
X257905404Y-87778971D03*
D12*
X261715404Y-90318971D03*
D11*
X264255404Y-85238971D03*
D10*
X266795404Y-90318971D03*
%TD*%
D16*
%TO.C,U1*%
X133312500Y-118893750D03*
X140312501Y-118893751D03*
D17*
X130612500Y-116593749D03*
X131712499Y-121193750D03*
X135712499Y-121193749D03*
X138712501Y-121193750D03*
%TD*%
D10*
%TO.C,SW40*%
X171590995Y-140483971D03*
D11*
X171420847Y-137649266D03*
D12*
X175990404Y-137943971D03*
D11*
X175650109Y-132274561D03*
D10*
X180389813Y-135403971D03*
%TD*%
%TO.C,SW39*%
X275685404Y-109368971D03*
D11*
X276955404Y-106828971D03*
D12*
X280765404Y-109368971D03*
D11*
X283305404Y-104288971D03*
D10*
X285845404Y-109368971D03*
%TD*%
D13*
%TO.C,H10*%
X60881250Y-117768750D03*
%TD*%
D10*
%TO.C,SW10*%
X70157500Y-83175000D03*
D11*
X71427500Y-80635000D03*
D12*
X75237500Y-83175000D03*
D11*
X77777500Y-78095000D03*
D10*
X80317500Y-83175000D03*
%TD*%
%TO.C,SW33*%
X275685404Y-90318971D03*
D11*
X276955404Y-87778971D03*
D12*
X280765404Y-90318971D03*
D11*
X283305404Y-85238971D03*
D10*
X285845404Y-90318971D03*
%TD*%
%TO.C,SW14*%
X32057500Y-109368750D03*
D11*
X33327500Y-106828750D03*
D12*
X37137500Y-109368750D03*
D11*
X39677500Y-104288750D03*
D10*
X42217500Y-109368750D03*
%TD*%
%TO.C,SW41*%
X194896001Y-129733772D03*
D11*
X195465326Y-126951620D03*
D12*
X199802904Y-128418971D03*
D11*
X200941555Y-122854667D03*
D10*
X204709807Y-127104170D03*
%TD*%
%TO.C,SW8*%
X32057500Y-90318750D03*
D11*
X33327500Y-87778750D03*
D12*
X37137500Y-90318750D03*
D11*
X39677500Y-85238750D03*
D10*
X42217500Y-90318750D03*
%TD*%
D13*
%TO.C,H4*%
X164084154Y-103415846D03*
%TD*%
D10*
%TO.C,SW29*%
X199485404Y-85556471D03*
D11*
X200755404Y-83016471D03*
D12*
X204565404Y-85556471D03*
D11*
X207105404Y-80476471D03*
D10*
X209645404Y-85556471D03*
%TD*%
D14*
%TO.C,U3*%
X156464154Y-64442721D03*
D15*
X156464154Y-66982721D03*
X156464154Y-69522721D03*
X156464154Y-72062721D03*
X156464154Y-74602721D03*
X156464154Y-77142721D03*
X156464154Y-79682721D03*
X156464154Y-82222721D03*
X156464154Y-84762721D03*
X156464154Y-87302721D03*
X156464154Y-89842721D03*
X156464154Y-92382721D03*
X171704154Y-92382721D03*
X171704154Y-89842721D03*
X171704154Y-87302721D03*
X171704154Y-84762721D03*
X171704154Y-82222721D03*
X171704154Y-79682721D03*
X171704154Y-77142721D03*
X171704154Y-74602721D03*
X171704154Y-72062721D03*
X171704154Y-69522721D03*
X171704154Y-66982721D03*
X171704154Y-64442721D03*
%TD*%
D10*
%TO.C,SW17*%
X89207500Y-104606250D03*
D11*
X90477500Y-102066250D03*
D12*
X94287500Y-104606250D03*
D11*
X96827500Y-99526250D03*
D10*
X99367500Y-104606250D03*
%TD*%
%TO.C,SW6*%
X108257500Y-68887500D03*
D11*
X109527500Y-66347500D03*
D12*
X113337500Y-68887500D03*
D11*
X115877500Y-63807500D03*
D10*
X118417500Y-68887500D03*
%TD*%
%TO.C,SW12*%
X108257500Y-87937500D03*
D11*
X109527500Y-85397500D03*
D12*
X113337500Y-87937500D03*
D11*
X115877500Y-82857500D03*
D10*
X118417500Y-87937500D03*
%TD*%
%TO.C,SW28*%
X180435404Y-87937721D03*
D11*
X181705404Y-85397721D03*
D12*
X185515404Y-87937721D03*
D11*
X188055404Y-82857721D03*
D10*
X190595404Y-87937721D03*
%TD*%
D13*
%TO.C,H2*%
X233176567Y-93794411D03*
%TD*%
D10*
%TO.C,SW2*%
X32057500Y-71268750D03*
D11*
X33327500Y-68728750D03*
D12*
X37137500Y-71268750D03*
D11*
X39677500Y-66188750D03*
D10*
X42217500Y-71268750D03*
%TD*%
%TO.C,SW19*%
X70157500Y-126037500D03*
D11*
X71427500Y-123497500D03*
D12*
X75237500Y-126037500D03*
D11*
X77777500Y-120957500D03*
D10*
X80317500Y-126037500D03*
%TD*%
D20*
%TO.C,J2*%
X167709156Y-98243971D03*
D21*
X165169153Y-98243971D03*
X162629153Y-98243971D03*
X160089154Y-98243971D03*
%TD*%
D10*
%TO.C,SW7*%
X13007500Y-90318750D03*
D11*
X14277500Y-87778750D03*
D12*
X18087500Y-90318750D03*
D11*
X20627500Y-85238750D03*
D10*
X23167500Y-90318750D03*
%TD*%
%TO.C,SW24*%
X218535404Y-64125221D03*
D11*
X219805404Y-61585221D03*
D12*
X223615404Y-64125221D03*
D11*
X226155404Y-59045221D03*
D10*
X228695404Y-64125221D03*
%TD*%
D13*
%TO.C,H7*%
X65712500Y-93890625D03*
%TD*%
D10*
%TO.C,SW11*%
X89207500Y-85556250D03*
D11*
X90477500Y-83016250D03*
D12*
X94287500Y-85556250D03*
D11*
X96827500Y-80476250D03*
D10*
X99367500Y-85556250D03*
%TD*%
D20*
%TO.C,J1*%
X138400001Y-98243750D03*
D21*
X135859998Y-98243750D03*
X133319998Y-98243750D03*
X130779999Y-98243750D03*
%TD*%
D18*
%TO.C,SW43*%
X132387500Y-109368750D03*
D19*
X138887500Y-109368750D03*
%TD*%
D13*
%TO.C,H4*%
X161702904Y-128418971D03*
%TD*%
%TO.C,H4*%
X134768750Y-103415625D03*
%TD*%
D10*
%TO.C,SW13*%
X13007500Y-109368750D03*
D11*
X14277500Y-106828750D03*
D12*
X18087500Y-109368750D03*
D11*
X20627500Y-104288750D03*
D10*
X23167500Y-109368750D03*
%TD*%
%TO.C,SW3*%
X51107500Y-66506250D03*
D11*
X52377500Y-63966250D03*
D12*
X56187500Y-66506250D03*
D11*
X58727500Y-61426250D03*
D10*
X61267500Y-66506250D03*
%TD*%
%TO.C,SW5*%
X89207500Y-66506250D03*
D11*
X90477500Y-63966250D03*
D12*
X94287500Y-66506250D03*
D11*
X96827500Y-61426250D03*
D10*
X99367500Y-66506250D03*
%TD*%
%TO.C,SW25*%
X237585404Y-66506471D03*
D11*
X238855404Y-63966471D03*
D12*
X242665404Y-66506471D03*
D11*
X245205404Y-61426471D03*
D10*
X247745404Y-66506471D03*
%TD*%
%TO.C,SW34*%
X180435404Y-106987721D03*
D11*
X181705404Y-104447721D03*
D12*
X185515404Y-106987721D03*
D11*
X188055404Y-101907721D03*
D10*
X190595404Y-106987721D03*
%TD*%
%TO.C,SW20*%
X94143097Y-127103949D03*
D11*
X96027223Y-124979198D03*
D12*
X99050000Y-128418750D03*
D11*
X102818253Y-124169247D03*
D10*
X103956903Y-129733551D03*
%TD*%
M02*
