M48
; DRILL file {KiCad 9.0.6} date 2025-12-07T00:05:35-0600
; FORMAT={-:-/ absolute / metric / decimal}
; #@! TF.CreationDate,2025-12-07T00:05:35-06:00
; #@! TF.GenerationSoftware,Kicad,Pcbnew,9.0.6
; #@! TF.FileFunction,NonPlated,1,2,NPTH
FMAT,2
METRIC
; #@! TA.AperFunction,NonPlated,NPTH,ComponentDrill
T1C0.800
; #@! TA.AperFunction,NonPlated,NPTH,ComponentDrill
T2C1.750
; #@! TA.AperFunction,NonPlated,NPTH,ComponentDrill
T3C2.200
; #@! TA.AperFunction,NonPlated,NPTH,ComponentDrill
T4C3.050
; #@! TA.AperFunction,NonPlated,NPTH,ComponentDrill
T5C4.000
%
G90
G05
T1
X133.312Y-118.894
X140.313Y-118.894
X158.19Y-118.894
X165.19Y-118.894
T2
X13.008Y-71.269
X13.008Y-90.319
X13.008Y-109.369
X23.168Y-71.269
X23.168Y-90.319
X23.168Y-109.369
X32.057Y-71.269
X32.057Y-90.319
X32.057Y-109.369
X42.218Y-71.269
X42.218Y-90.319
X42.218Y-109.369
X51.107Y-66.506
X51.107Y-85.556
X51.107Y-104.606
X61.267Y-66.506
X61.267Y-85.556
X61.267Y-104.606
X70.157Y-64.125
X70.157Y-83.175
X70.157Y-102.225
X70.157Y-126.037
X80.317Y-64.125
X80.317Y-83.175
X80.317Y-102.225
X80.317Y-126.037
X89.207Y-66.506
X89.207Y-85.556
X89.207Y-104.606
X94.143Y-127.104
X99.367Y-66.506
X99.367Y-85.556
X99.367Y-104.606
X103.957Y-129.734
X108.257Y-68.888
X108.257Y-87.938
X108.257Y-106.987
X118.417Y-68.888
X118.417Y-87.938
X118.417Y-106.987
X118.463Y-135.404
X127.262Y-140.484
X171.591Y-140.484
X180.39Y-135.404
X180.435Y-68.888
X180.435Y-87.938
X180.435Y-106.988
X190.595Y-68.888
X190.595Y-87.938
X190.595Y-106.988
X194.896Y-129.734
X199.485Y-66.506
X199.485Y-85.556
X199.485Y-104.606
X204.71Y-127.104
X209.645Y-66.506
X209.645Y-85.556
X209.645Y-104.606
X218.535Y-64.125
X218.535Y-83.175
X218.535Y-102.225
X218.535Y-126.038
X228.695Y-64.125
X228.695Y-83.175
X228.695Y-102.225
X228.695Y-126.038
X237.585Y-66.506
X237.585Y-85.556
X237.585Y-104.606
X247.745Y-66.506
X247.745Y-85.556
X247.745Y-104.606
X256.635Y-71.269
X256.635Y-90.319
X256.635Y-109.369
X266.795Y-71.269
X266.795Y-90.319
X266.795Y-109.369
X275.685Y-71.269
X275.685Y-90.319
X275.685Y-109.369
X285.845Y-71.269
X285.845Y-90.319
X285.845Y-109.369
T3
X60.881Y-117.769
X65.712Y-93.891
X108.575Y-145.088
X134.769Y-73.65
X134.769Y-103.416
X137.15Y-128.419
X161.703Y-128.419
X164.084Y-73.65
X164.084Y-103.416
X190.278Y-145.088
X233.177Y-93.794
X237.981Y-117.727
T4
X14.277Y-68.729
X14.277Y-87.779
X14.277Y-106.829
X20.627Y-66.189
X20.627Y-85.239
X20.627Y-104.289
X33.328Y-68.729
X33.328Y-87.779
X33.328Y-106.829
X39.677Y-66.189
X39.677Y-85.239
X39.677Y-104.289
X52.377Y-63.966
X52.377Y-83.016
X52.377Y-102.066
X58.727Y-61.426
X58.727Y-80.476
X58.727Y-99.526
X71.427Y-61.585
X71.427Y-80.635
X71.427Y-99.685
X71.427Y-123.497
X77.778Y-59.045
X77.778Y-78.095
X77.778Y-97.145
X77.778Y-120.957
X90.477Y-63.966
X90.477Y-83.016
X90.477Y-102.066
X96.027Y-124.979
X96.828Y-61.426
X96.828Y-80.476
X96.828Y-99.526
X102.818Y-124.169
X109.527Y-66.347
X109.527Y-85.397
X109.527Y-104.447
X115.877Y-63.807
X115.877Y-82.858
X115.877Y-101.907
X120.833Y-133.839
X127.602Y-134.814
X171.421Y-137.649
X175.65Y-132.275
X181.705Y-66.348
X181.705Y-85.398
X181.705Y-104.448
X188.055Y-63.808
X188.055Y-82.858
X188.055Y-101.908
X195.465Y-126.952
X200.755Y-63.966
X200.755Y-83.016
X200.755Y-102.066
X200.942Y-122.855
X207.105Y-61.426
X207.105Y-80.476
X207.105Y-99.526
X219.805Y-61.585
X219.805Y-80.635
X219.805Y-99.685
X219.805Y-123.498
X226.155Y-59.045
X226.155Y-78.095
X226.155Y-97.145
X226.155Y-120.958
X238.855Y-63.966
X238.855Y-83.016
X238.855Y-102.066
X245.205Y-61.426
X245.205Y-80.476
X245.205Y-99.526
X257.905Y-68.729
X257.905Y-87.779
X257.905Y-106.829
X264.255Y-66.189
X264.255Y-85.239
X264.255Y-104.289
X276.955Y-68.729
X276.955Y-87.779
X276.955Y-106.829
X283.305Y-66.189
X283.305Y-85.239
X283.305Y-104.289
T5
X18.087Y-71.269
X18.087Y-90.319
X18.087Y-109.369
X37.137Y-71.269
X37.137Y-90.319
X37.137Y-109.369
X56.188Y-66.506
X56.188Y-85.556
X56.188Y-104.606
X75.237Y-64.125
X75.237Y-83.175
X75.237Y-102.225
X75.237Y-126.037
X94.287Y-66.506
X94.287Y-85.556
X94.287Y-104.606
X99.05Y-128.419
X113.337Y-68.888
X113.337Y-87.938
X113.337Y-106.987
X122.862Y-137.944
X175.99Y-137.944
X185.515Y-68.888
X185.515Y-87.938
X185.515Y-106.988
X199.803Y-128.419
X204.565Y-66.506
X204.565Y-85.556
X204.565Y-104.606
X223.615Y-64.125
X223.615Y-83.175
X223.615Y-102.225
X223.615Y-126.038
X242.665Y-66.506
X242.665Y-85.556
X242.665Y-104.606
X261.715Y-71.269
X261.715Y-90.319
X261.715Y-109.369
X280.765Y-71.269
X280.765Y-90.319
X280.765Y-109.369
M30
