%TF.GenerationSoftware,KiCad,Pcbnew,9.0.6*%
%TF.CreationDate,2025-12-07T00:05:39-06:00*%
%TF.ProjectId,SplitKeyboard,53706c69-744b-4657-9962-6f6172642e6b,rev?*%
%TF.SameCoordinates,Original*%
%TF.FileFunction,Legend,Bot*%
%TF.FilePolarity,Positive*%
%FSLAX46Y46*%
G04 Gerber Fmt 4.6, Leading zero omitted, Abs format (unit mm)*
G04 Created by KiCad (PCBNEW 9.0.6) date 2025-12-07 00:05:39*
%MOMM*%
%LPD*%
G01*
G04 APERTURE LIST*
%ADD10C,0.150000*%
%ADD11C,0.120000*%
%ADD12C,0.200000*%
%ADD13R,1.752600X1.752600*%
%ADD14C,1.752600*%
G04 APERTURE END LIST*
D10*
X143381435Y-88780543D02*
X142924292Y-88780543D01*
X143152864Y-89580543D02*
X143152864Y-88780543D01*
X142733816Y-88780543D02*
X142200482Y-89580543D01*
X142200482Y-88780543D02*
X142733816Y-89580543D01*
X141743339Y-88780543D02*
X141667149Y-88780543D01*
X141667149Y-88780543D02*
X141590958Y-88818638D01*
X141590958Y-88818638D02*
X141552863Y-88856733D01*
X141552863Y-88856733D02*
X141514768Y-88932924D01*
X141514768Y-88932924D02*
X141476673Y-89085305D01*
X141476673Y-89085305D02*
X141476673Y-89275781D01*
X141476673Y-89275781D02*
X141514768Y-89428162D01*
X141514768Y-89428162D02*
X141552863Y-89504352D01*
X141552863Y-89504352D02*
X141590958Y-89542448D01*
X141590958Y-89542448D02*
X141667149Y-89580543D01*
X141667149Y-89580543D02*
X141743339Y-89580543D01*
X141743339Y-89580543D02*
X141819530Y-89542448D01*
X141819530Y-89542448D02*
X141857625Y-89504352D01*
X141857625Y-89504352D02*
X141895720Y-89428162D01*
X141895720Y-89428162D02*
X141933816Y-89275781D01*
X141933816Y-89275781D02*
X141933816Y-89085305D01*
X141933816Y-89085305D02*
X141895720Y-88932924D01*
X141895720Y-88932924D02*
X141857625Y-88856733D01*
X141857625Y-88856733D02*
X141819530Y-88818638D01*
X141819530Y-88818638D02*
X141743339Y-88780543D01*
X140562387Y-88742448D02*
X141248101Y-89771019D01*
X140295720Y-89580543D02*
X140295720Y-88780543D01*
X140295720Y-88780543D02*
X140105244Y-88780543D01*
X140105244Y-88780543D02*
X139990958Y-88818638D01*
X139990958Y-88818638D02*
X139914768Y-88894828D01*
X139914768Y-88894828D02*
X139876673Y-88971019D01*
X139876673Y-88971019D02*
X139838577Y-89123400D01*
X139838577Y-89123400D02*
X139838577Y-89237686D01*
X139838577Y-89237686D02*
X139876673Y-89390067D01*
X139876673Y-89390067D02*
X139914768Y-89466257D01*
X139914768Y-89466257D02*
X139990958Y-89542448D01*
X139990958Y-89542448D02*
X140105244Y-89580543D01*
X140105244Y-89580543D02*
X140295720Y-89580543D01*
X139571911Y-88780543D02*
X139076673Y-88780543D01*
X139076673Y-88780543D02*
X139343339Y-89085305D01*
X139343339Y-89085305D02*
X139229054Y-89085305D01*
X139229054Y-89085305D02*
X139152863Y-89123400D01*
X139152863Y-89123400D02*
X139114768Y-89161495D01*
X139114768Y-89161495D02*
X139076673Y-89237686D01*
X139076673Y-89237686D02*
X139076673Y-89428162D01*
X139076673Y-89428162D02*
X139114768Y-89504352D01*
X139114768Y-89504352D02*
X139152863Y-89542448D01*
X139152863Y-89542448D02*
X139229054Y-89580543D01*
X139229054Y-89580543D02*
X139457625Y-89580543D01*
X139457625Y-89580543D02*
X139533816Y-89542448D01*
X139533816Y-89542448D02*
X139571911Y-89504352D01*
X129898225Y-80044795D02*
X129898225Y-79244795D01*
X129898225Y-79244795D02*
X129707749Y-79244795D01*
X129707749Y-79244795D02*
X129593463Y-79282890D01*
X129593463Y-79282890D02*
X129517273Y-79359080D01*
X129517273Y-79359080D02*
X129479178Y-79435271D01*
X129479178Y-79435271D02*
X129441082Y-79587652D01*
X129441082Y-79587652D02*
X129441082Y-79701938D01*
X129441082Y-79701938D02*
X129479178Y-79854319D01*
X129479178Y-79854319D02*
X129517273Y-79930509D01*
X129517273Y-79930509D02*
X129593463Y-80006700D01*
X129593463Y-80006700D02*
X129707749Y-80044795D01*
X129707749Y-80044795D02*
X129898225Y-80044795D01*
X128755368Y-79511461D02*
X128755368Y-80044795D01*
X128945844Y-79206700D02*
X129136321Y-79778128D01*
X129136321Y-79778128D02*
X128641082Y-79778128D01*
X129898225Y-74964795D02*
X129898225Y-74164795D01*
X129898225Y-74164795D02*
X129707749Y-74164795D01*
X129707749Y-74164795D02*
X129593463Y-74202890D01*
X129593463Y-74202890D02*
X129517273Y-74279080D01*
X129517273Y-74279080D02*
X129479178Y-74355271D01*
X129479178Y-74355271D02*
X129441082Y-74507652D01*
X129441082Y-74507652D02*
X129441082Y-74621938D01*
X129441082Y-74621938D02*
X129479178Y-74774319D01*
X129479178Y-74774319D02*
X129517273Y-74850509D01*
X129517273Y-74850509D02*
X129593463Y-74926700D01*
X129593463Y-74926700D02*
X129707749Y-74964795D01*
X129707749Y-74964795D02*
X129898225Y-74964795D01*
X128679178Y-74964795D02*
X129136321Y-74964795D01*
X128907749Y-74964795D02*
X128907749Y-74164795D01*
X128907749Y-74164795D02*
X128983940Y-74279080D01*
X128983940Y-74279080D02*
X129060130Y-74355271D01*
X129060130Y-74355271D02*
X129136321Y-74393366D01*
X129917273Y-69122890D02*
X129993463Y-69084795D01*
X129993463Y-69084795D02*
X130107749Y-69084795D01*
X130107749Y-69084795D02*
X130222035Y-69122890D01*
X130222035Y-69122890D02*
X130298225Y-69199080D01*
X130298225Y-69199080D02*
X130336320Y-69275271D01*
X130336320Y-69275271D02*
X130374416Y-69427652D01*
X130374416Y-69427652D02*
X130374416Y-69541938D01*
X130374416Y-69541938D02*
X130336320Y-69694319D01*
X130336320Y-69694319D02*
X130298225Y-69770509D01*
X130298225Y-69770509D02*
X130222035Y-69846700D01*
X130222035Y-69846700D02*
X130107749Y-69884795D01*
X130107749Y-69884795D02*
X130031558Y-69884795D01*
X130031558Y-69884795D02*
X129917273Y-69846700D01*
X129917273Y-69846700D02*
X129879177Y-69808604D01*
X129879177Y-69808604D02*
X129879177Y-69541938D01*
X129879177Y-69541938D02*
X130031558Y-69541938D01*
X129536320Y-69884795D02*
X129536320Y-69084795D01*
X129536320Y-69084795D02*
X129079177Y-69884795D01*
X129079177Y-69884795D02*
X129079177Y-69084795D01*
X128698225Y-69884795D02*
X128698225Y-69084795D01*
X128698225Y-69084795D02*
X128507749Y-69084795D01*
X128507749Y-69084795D02*
X128393463Y-69122890D01*
X128393463Y-69122890D02*
X128317273Y-69199080D01*
X128317273Y-69199080D02*
X128279178Y-69275271D01*
X128279178Y-69275271D02*
X128241082Y-69427652D01*
X128241082Y-69427652D02*
X128241082Y-69541938D01*
X128241082Y-69541938D02*
X128279178Y-69694319D01*
X128279178Y-69694319D02*
X128317273Y-69770509D01*
X128317273Y-69770509D02*
X128393463Y-69846700D01*
X128393463Y-69846700D02*
X128507749Y-69884795D01*
X128507749Y-69884795D02*
X128698225Y-69884795D01*
X129631559Y-92325747D02*
X129517273Y-92363842D01*
X129517273Y-92363842D02*
X129479178Y-92401938D01*
X129479178Y-92401938D02*
X129441082Y-92478128D01*
X129441082Y-92478128D02*
X129441082Y-92592414D01*
X129441082Y-92592414D02*
X129479178Y-92668604D01*
X129479178Y-92668604D02*
X129517273Y-92706700D01*
X129517273Y-92706700D02*
X129593463Y-92744795D01*
X129593463Y-92744795D02*
X129898225Y-92744795D01*
X129898225Y-92744795D02*
X129898225Y-91944795D01*
X129898225Y-91944795D02*
X129631559Y-91944795D01*
X129631559Y-91944795D02*
X129555368Y-91982890D01*
X129555368Y-91982890D02*
X129517273Y-92020985D01*
X129517273Y-92020985D02*
X129479178Y-92097176D01*
X129479178Y-92097176D02*
X129479178Y-92173366D01*
X129479178Y-92173366D02*
X129517273Y-92249557D01*
X129517273Y-92249557D02*
X129555368Y-92287652D01*
X129555368Y-92287652D02*
X129631559Y-92325747D01*
X129631559Y-92325747D02*
X129898225Y-92325747D01*
X128717273Y-91944795D02*
X129098225Y-91944795D01*
X129098225Y-91944795D02*
X129136321Y-92325747D01*
X129136321Y-92325747D02*
X129098225Y-92287652D01*
X129098225Y-92287652D02*
X129022035Y-92249557D01*
X129022035Y-92249557D02*
X128831559Y-92249557D01*
X128831559Y-92249557D02*
X128755368Y-92287652D01*
X128755368Y-92287652D02*
X128717273Y-92325747D01*
X128717273Y-92325747D02*
X128679178Y-92401938D01*
X128679178Y-92401938D02*
X128679178Y-92592414D01*
X128679178Y-92592414D02*
X128717273Y-92668604D01*
X128717273Y-92668604D02*
X128755368Y-92706700D01*
X128755368Y-92706700D02*
X128831559Y-92744795D01*
X128831559Y-92744795D02*
X129022035Y-92744795D01*
X129022035Y-92744795D02*
X129098225Y-92706700D01*
X129098225Y-92706700D02*
X129136321Y-92668604D01*
X129860130Y-87245747D02*
X129593464Y-87245747D01*
X129479178Y-87664795D02*
X129860130Y-87664795D01*
X129860130Y-87664795D02*
X129860130Y-86864795D01*
X129860130Y-86864795D02*
X129479178Y-86864795D01*
X128793463Y-86864795D02*
X128945844Y-86864795D01*
X128945844Y-86864795D02*
X129022035Y-86902890D01*
X129022035Y-86902890D02*
X129060130Y-86940985D01*
X129060130Y-86940985D02*
X129136320Y-87055271D01*
X129136320Y-87055271D02*
X129174416Y-87207652D01*
X129174416Y-87207652D02*
X129174416Y-87512414D01*
X129174416Y-87512414D02*
X129136320Y-87588604D01*
X129136320Y-87588604D02*
X129098225Y-87626700D01*
X129098225Y-87626700D02*
X129022035Y-87664795D01*
X129022035Y-87664795D02*
X128869654Y-87664795D01*
X128869654Y-87664795D02*
X128793463Y-87626700D01*
X128793463Y-87626700D02*
X128755368Y-87588604D01*
X128755368Y-87588604D02*
X128717273Y-87512414D01*
X128717273Y-87512414D02*
X128717273Y-87321938D01*
X128717273Y-87321938D02*
X128755368Y-87245747D01*
X128755368Y-87245747D02*
X128793463Y-87207652D01*
X128793463Y-87207652D02*
X128869654Y-87169557D01*
X128869654Y-87169557D02*
X129022035Y-87169557D01*
X129022035Y-87169557D02*
X129098225Y-87207652D01*
X129098225Y-87207652D02*
X129136320Y-87245747D01*
X129136320Y-87245747D02*
X129174416Y-87321938D01*
X129631559Y-89785747D02*
X129517273Y-89823842D01*
X129517273Y-89823842D02*
X129479178Y-89861938D01*
X129479178Y-89861938D02*
X129441082Y-89938128D01*
X129441082Y-89938128D02*
X129441082Y-90052414D01*
X129441082Y-90052414D02*
X129479178Y-90128604D01*
X129479178Y-90128604D02*
X129517273Y-90166700D01*
X129517273Y-90166700D02*
X129593463Y-90204795D01*
X129593463Y-90204795D02*
X129898225Y-90204795D01*
X129898225Y-90204795D02*
X129898225Y-89404795D01*
X129898225Y-89404795D02*
X129631559Y-89404795D01*
X129631559Y-89404795D02*
X129555368Y-89442890D01*
X129555368Y-89442890D02*
X129517273Y-89480985D01*
X129517273Y-89480985D02*
X129479178Y-89557176D01*
X129479178Y-89557176D02*
X129479178Y-89633366D01*
X129479178Y-89633366D02*
X129517273Y-89709557D01*
X129517273Y-89709557D02*
X129555368Y-89747652D01*
X129555368Y-89747652D02*
X129631559Y-89785747D01*
X129631559Y-89785747D02*
X129898225Y-89785747D01*
X128755368Y-89671461D02*
X128755368Y-90204795D01*
X128945844Y-89366700D02*
X129136321Y-89938128D01*
X129136321Y-89938128D02*
X128641082Y-89938128D01*
X129898225Y-67344795D02*
X129898225Y-66544795D01*
X129898225Y-66544795D02*
X129707749Y-66544795D01*
X129707749Y-66544795D02*
X129593463Y-66582890D01*
X129593463Y-66582890D02*
X129517273Y-66659080D01*
X129517273Y-66659080D02*
X129479178Y-66735271D01*
X129479178Y-66735271D02*
X129441082Y-66887652D01*
X129441082Y-66887652D02*
X129441082Y-67001938D01*
X129441082Y-67001938D02*
X129479178Y-67154319D01*
X129479178Y-67154319D02*
X129517273Y-67230509D01*
X129517273Y-67230509D02*
X129593463Y-67306700D01*
X129593463Y-67306700D02*
X129707749Y-67344795D01*
X129707749Y-67344795D02*
X129898225Y-67344795D01*
X129136321Y-66620985D02*
X129098225Y-66582890D01*
X129098225Y-66582890D02*
X129022035Y-66544795D01*
X129022035Y-66544795D02*
X128831559Y-66544795D01*
X128831559Y-66544795D02*
X128755368Y-66582890D01*
X128755368Y-66582890D02*
X128717273Y-66620985D01*
X128717273Y-66620985D02*
X128679178Y-66697176D01*
X128679178Y-66697176D02*
X128679178Y-66773366D01*
X128679178Y-66773366D02*
X128717273Y-66887652D01*
X128717273Y-66887652D02*
X129174416Y-67344795D01*
X129174416Y-67344795D02*
X128679178Y-67344795D01*
X129441082Y-82508604D02*
X129479178Y-82546700D01*
X129479178Y-82546700D02*
X129593463Y-82584795D01*
X129593463Y-82584795D02*
X129669654Y-82584795D01*
X129669654Y-82584795D02*
X129783940Y-82546700D01*
X129783940Y-82546700D02*
X129860130Y-82470509D01*
X129860130Y-82470509D02*
X129898225Y-82394319D01*
X129898225Y-82394319D02*
X129936321Y-82241938D01*
X129936321Y-82241938D02*
X129936321Y-82127652D01*
X129936321Y-82127652D02*
X129898225Y-81975271D01*
X129898225Y-81975271D02*
X129860130Y-81899080D01*
X129860130Y-81899080D02*
X129783940Y-81822890D01*
X129783940Y-81822890D02*
X129669654Y-81784795D01*
X129669654Y-81784795D02*
X129593463Y-81784795D01*
X129593463Y-81784795D02*
X129479178Y-81822890D01*
X129479178Y-81822890D02*
X129441082Y-81860985D01*
X128755368Y-81784795D02*
X128907749Y-81784795D01*
X128907749Y-81784795D02*
X128983940Y-81822890D01*
X128983940Y-81822890D02*
X129022035Y-81860985D01*
X129022035Y-81860985D02*
X129098225Y-81975271D01*
X129098225Y-81975271D02*
X129136321Y-82127652D01*
X129136321Y-82127652D02*
X129136321Y-82432414D01*
X129136321Y-82432414D02*
X129098225Y-82508604D01*
X129098225Y-82508604D02*
X129060130Y-82546700D01*
X129060130Y-82546700D02*
X128983940Y-82584795D01*
X128983940Y-82584795D02*
X128831559Y-82584795D01*
X128831559Y-82584795D02*
X128755368Y-82546700D01*
X128755368Y-82546700D02*
X128717273Y-82508604D01*
X128717273Y-82508604D02*
X128679178Y-82432414D01*
X128679178Y-82432414D02*
X128679178Y-82241938D01*
X128679178Y-82241938D02*
X128717273Y-82165747D01*
X128717273Y-82165747D02*
X128755368Y-82127652D01*
X128755368Y-82127652D02*
X128831559Y-82089557D01*
X128831559Y-82089557D02*
X128983940Y-82089557D01*
X128983940Y-82089557D02*
X129060130Y-82127652D01*
X129060130Y-82127652D02*
X129098225Y-82165747D01*
X129098225Y-82165747D02*
X129136321Y-82241938D01*
X129898225Y-77504795D02*
X129898225Y-76704795D01*
X129898225Y-76704795D02*
X129707749Y-76704795D01*
X129707749Y-76704795D02*
X129593463Y-76742890D01*
X129593463Y-76742890D02*
X129517273Y-76819080D01*
X129517273Y-76819080D02*
X129479178Y-76895271D01*
X129479178Y-76895271D02*
X129441082Y-77047652D01*
X129441082Y-77047652D02*
X129441082Y-77161938D01*
X129441082Y-77161938D02*
X129479178Y-77314319D01*
X129479178Y-77314319D02*
X129517273Y-77390509D01*
X129517273Y-77390509D02*
X129593463Y-77466700D01*
X129593463Y-77466700D02*
X129707749Y-77504795D01*
X129707749Y-77504795D02*
X129898225Y-77504795D01*
X128945844Y-76704795D02*
X128869654Y-76704795D01*
X128869654Y-76704795D02*
X128793463Y-76742890D01*
X128793463Y-76742890D02*
X128755368Y-76780985D01*
X128755368Y-76780985D02*
X128717273Y-76857176D01*
X128717273Y-76857176D02*
X128679178Y-77009557D01*
X128679178Y-77009557D02*
X128679178Y-77200033D01*
X128679178Y-77200033D02*
X128717273Y-77352414D01*
X128717273Y-77352414D02*
X128755368Y-77428604D01*
X128755368Y-77428604D02*
X128793463Y-77466700D01*
X128793463Y-77466700D02*
X128869654Y-77504795D01*
X128869654Y-77504795D02*
X128945844Y-77504795D01*
X128945844Y-77504795D02*
X129022035Y-77466700D01*
X129022035Y-77466700D02*
X129060130Y-77428604D01*
X129060130Y-77428604D02*
X129098225Y-77352414D01*
X129098225Y-77352414D02*
X129136321Y-77200033D01*
X129136321Y-77200033D02*
X129136321Y-77009557D01*
X129136321Y-77009557D02*
X129098225Y-76857176D01*
X129098225Y-76857176D02*
X129060130Y-76780985D01*
X129060130Y-76780985D02*
X129022035Y-76742890D01*
X129022035Y-76742890D02*
X128945844Y-76704795D01*
X150547640Y-117101495D02*
X150433354Y-117139590D01*
X150433354Y-117139590D02*
X150395259Y-117177686D01*
X150395259Y-117177686D02*
X150357163Y-117253876D01*
X150357163Y-117253876D02*
X150357163Y-117368162D01*
X150357163Y-117368162D02*
X150395259Y-117444352D01*
X150395259Y-117444352D02*
X150433354Y-117482448D01*
X150433354Y-117482448D02*
X150509544Y-117520543D01*
X150509544Y-117520543D02*
X150814306Y-117520543D01*
X150814306Y-117520543D02*
X150814306Y-116720543D01*
X150814306Y-116720543D02*
X150547640Y-116720543D01*
X150547640Y-116720543D02*
X150471449Y-116758638D01*
X150471449Y-116758638D02*
X150433354Y-116796733D01*
X150433354Y-116796733D02*
X150395259Y-116872924D01*
X150395259Y-116872924D02*
X150395259Y-116949114D01*
X150395259Y-116949114D02*
X150433354Y-117025305D01*
X150433354Y-117025305D02*
X150471449Y-117063400D01*
X150471449Y-117063400D02*
X150547640Y-117101495D01*
X150547640Y-117101495D02*
X150814306Y-117101495D01*
X149671449Y-116720543D02*
X149823830Y-116720543D01*
X149823830Y-116720543D02*
X149900021Y-116758638D01*
X149900021Y-116758638D02*
X149938116Y-116796733D01*
X149938116Y-116796733D02*
X150014306Y-116911019D01*
X150014306Y-116911019D02*
X150052402Y-117063400D01*
X150052402Y-117063400D02*
X150052402Y-117368162D01*
X150052402Y-117368162D02*
X150014306Y-117444352D01*
X150014306Y-117444352D02*
X149976211Y-117482448D01*
X149976211Y-117482448D02*
X149900021Y-117520543D01*
X149900021Y-117520543D02*
X149747640Y-117520543D01*
X149747640Y-117520543D02*
X149671449Y-117482448D01*
X149671449Y-117482448D02*
X149633354Y-117444352D01*
X149633354Y-117444352D02*
X149595259Y-117368162D01*
X149595259Y-117368162D02*
X149595259Y-117177686D01*
X149595259Y-117177686D02*
X149633354Y-117101495D01*
X149633354Y-117101495D02*
X149671449Y-117063400D01*
X149671449Y-117063400D02*
X149747640Y-117025305D01*
X149747640Y-117025305D02*
X149900021Y-117025305D01*
X149900021Y-117025305D02*
X149976211Y-117063400D01*
X149976211Y-117063400D02*
X150014306Y-117101495D01*
X150014306Y-117101495D02*
X150052402Y-117177686D01*
D11*
%TO.C,SW22*%
X181415404Y-61987721D02*
X186515404Y-61987721D01*
X185315404Y-66187721D02*
X190415404Y-66187721D01*
X179415404Y-63987721D02*
G75*
G02*
X181415404Y-61987721I1999999J1D01*
G01*
X183315404Y-68187721D02*
G75*
G02*
X185315404Y-66187721I1999999J1D01*
G01*
%TO.C,SW21*%
X122761796Y-129918175D02*
X127178525Y-132468175D01*
X124039295Y-135505481D02*
X128456024Y-138055482D01*
X120029745Y-130650226D02*
G75*
G02*
X122761796Y-129918175I1732050J-999995D01*
G01*
X121307245Y-136237532D02*
G75*
G02*
X124039295Y-135505481I1732050J-999997D01*
G01*
%TO.C,SW37*%
X238565404Y-97706471D02*
X243665404Y-97706471D01*
X242465404Y-101906471D02*
X247565404Y-101906471D01*
X236565404Y-99706471D02*
G75*
G02*
X238565404Y-97706471I1999999J1D01*
G01*
X240465404Y-103906471D02*
G75*
G02*
X242465404Y-101906471I1999999J1D01*
G01*
%TO.C,SW1*%
X13987500Y-64368750D02*
X19087500Y-64368750D01*
X17887500Y-68568750D02*
X22987500Y-68568750D01*
X11987500Y-66368750D02*
G75*
G02*
X13987500Y-64368750I1999999J1D01*
G01*
X15887500Y-70568750D02*
G75*
G02*
X17887500Y-68568750I1999999J1D01*
G01*
D12*
%TO.C,U2*%
X125878750Y-60632500D02*
X125878750Y-93652500D01*
X125878750Y-93652500D02*
X143658750Y-93652500D01*
X128418750Y-63172500D02*
X125878750Y-63172500D01*
X128418750Y-63172500D02*
X128418750Y-65712500D01*
X128418750Y-65712500D02*
X125878750Y-65712500D01*
X143658750Y-60632500D02*
X125878750Y-60632500D01*
X143658750Y-93652500D02*
X143658750Y-60632500D01*
D10*
X141113385Y-69161530D02*
X140613385Y-69161530D01*
X140613385Y-69061530D01*
X141113385Y-69061530D01*
X141113385Y-69161530D01*
G36*
X141113385Y-69161530D02*
G01*
X140613385Y-69161530D01*
X140613385Y-69061530D01*
X141113385Y-69061530D01*
X141113385Y-69161530D01*
G37*
X140713385Y-69361530D02*
X140613385Y-69361530D01*
X140613385Y-69061530D01*
X140713385Y-69061530D01*
X140713385Y-69361530D01*
G36*
X140713385Y-69361530D02*
G01*
X140613385Y-69361530D01*
X140613385Y-69061530D01*
X140713385Y-69061530D01*
X140713385Y-69361530D01*
G37*
X140713385Y-69861530D02*
X140613385Y-69861530D01*
X140613385Y-69661530D01*
X140713385Y-69661530D01*
X140713385Y-69861530D01*
G36*
X140713385Y-69861530D02*
G01*
X140613385Y-69861530D01*
X140613385Y-69661530D01*
X140713385Y-69661530D01*
X140713385Y-69861530D01*
G37*
X140913385Y-69561530D02*
X140813385Y-69561530D01*
X140813385Y-69461530D01*
X140913385Y-69461530D01*
X140913385Y-69561530D01*
G36*
X140913385Y-69561530D02*
G01*
X140813385Y-69561530D01*
X140813385Y-69461530D01*
X140913385Y-69461530D01*
X140913385Y-69561530D01*
G37*
X141113385Y-69861530D02*
X141013385Y-69861530D01*
X141013385Y-69061530D01*
X141113385Y-69061530D01*
X141113385Y-69861530D01*
G36*
X141113385Y-69861530D02*
G01*
X141013385Y-69861530D01*
X141013385Y-69061530D01*
X141113385Y-69061530D01*
X141113385Y-69861530D01*
G37*
D11*
%TO.C,SW36*%
X219515404Y-95325221D02*
X224615404Y-95325221D01*
X223415404Y-99525221D02*
X228515404Y-99525221D01*
X217515404Y-97325221D02*
G75*
G02*
X219515404Y-95325221I1999999J1D01*
G01*
X221415404Y-101525221D02*
G75*
G02*
X223415404Y-99525221I1999999J1D01*
G01*
%TO.C,SW23*%
X200465404Y-59606471D02*
X205565404Y-59606471D01*
X204365404Y-63806471D02*
X209465404Y-63806471D01*
X198465404Y-61606471D02*
G75*
G02*
X200465404Y-59606471I1999999J1D01*
G01*
X202365404Y-65806471D02*
G75*
G02*
X204365404Y-63806471I1999999J1D01*
G01*
%TO.C,SW35*%
X200465404Y-97706471D02*
X205565404Y-97706471D01*
X204365404Y-101906471D02*
X209465404Y-101906471D01*
X198465404Y-99706471D02*
G75*
G02*
X200465404Y-97706471I1999999J1D01*
G01*
X202365404Y-103906471D02*
G75*
G02*
X204365404Y-101906471I1999999J1D01*
G01*
%TO.C,SW16*%
X71137500Y-95325000D02*
X76237500Y-95325000D01*
X75037500Y-99525000D02*
X80137500Y-99525000D01*
X69137500Y-97325000D02*
G75*
G02*
X71137500Y-95325000I1999999J1D01*
G01*
X73037500Y-101525000D02*
G75*
G02*
X75037500Y-99525000I1999999J1D01*
G01*
%TO.C,SW15*%
X52087500Y-97706250D02*
X57187500Y-97706250D01*
X55987500Y-101906250D02*
X61087500Y-101906250D01*
X50087500Y-99706250D02*
G75*
G02*
X52087500Y-97706250I1999999J1D01*
G01*
X53987500Y-103906250D02*
G75*
G02*
X55987500Y-101906250I1999999J1D01*
G01*
%TO.C,SW38*%
X257615404Y-102468971D02*
X262715404Y-102468971D01*
X261515404Y-106668971D02*
X266615404Y-106668971D01*
X255615404Y-104468971D02*
G75*
G02*
X257615404Y-102468971I1999999J1D01*
G01*
X259515404Y-108668971D02*
G75*
G02*
X261515404Y-106668971I1999999J1D01*
G01*
%TO.C,SW9*%
X52087500Y-78656250D02*
X57187500Y-78656250D01*
X55987500Y-82856250D02*
X61087500Y-82856250D01*
X50087500Y-80656250D02*
G75*
G02*
X52087500Y-78656250I1999999J1D01*
G01*
X53987500Y-84856250D02*
G75*
G02*
X55987500Y-82856250I1999999J1D01*
G01*
%TO.C,SW30*%
X219515404Y-76275221D02*
X224615404Y-76275221D01*
X223415404Y-80475221D02*
X228515404Y-80475221D01*
X217515404Y-78275221D02*
G75*
G02*
X219515404Y-76275221I1999999J1D01*
G01*
X221415404Y-82475221D02*
G75*
G02*
X223415404Y-80475221I1999999J1D01*
G01*
%TO.C,SW27*%
X276665404Y-64368971D02*
X281765404Y-64368971D01*
X280565404Y-68568971D02*
X285665404Y-68568971D01*
X274665404Y-66368971D02*
G75*
G02*
X276665404Y-64368971I1999999J1D01*
G01*
X278565404Y-70568971D02*
G75*
G02*
X280565404Y-68568971I1999999J1D01*
G01*
%TO.C,SW26*%
X257615404Y-64368971D02*
X262715404Y-64368971D01*
X261515404Y-68568971D02*
X266615404Y-68568971D01*
X255615404Y-66368971D02*
G75*
G02*
X257615404Y-64368971I1999999J1D01*
G01*
X259515404Y-70568971D02*
G75*
G02*
X261515404Y-68568971I1999999J1D01*
G01*
%TO.C,SW4*%
X71137500Y-57225000D02*
X76237500Y-57225000D01*
X75037500Y-61425000D02*
X80137500Y-61425000D01*
X69137500Y-59225000D02*
G75*
G02*
X71137500Y-57225000I1999999J1D01*
G01*
X73037500Y-63425000D02*
G75*
G02*
X75037500Y-61425000I1999999J1D01*
G01*
%TO.C,SW18*%
X109237500Y-100087500D02*
X114337500Y-100087500D01*
X113137500Y-104287500D02*
X118237500Y-104287500D01*
X107237500Y-102087500D02*
G75*
G02*
X109237500Y-100087500I1999999J1D01*
G01*
X111137500Y-106287500D02*
G75*
G02*
X113137500Y-104287500I1999999J1D01*
G01*
%TO.C,SW42*%
X219515404Y-119137721D02*
X224615404Y-119137721D01*
X223415404Y-123337721D02*
X228515404Y-123337721D01*
X217515404Y-121137721D02*
G75*
G02*
X219515404Y-119137721I1999999J1D01*
G01*
X221415404Y-125337721D02*
G75*
G02*
X223415404Y-123337721I1999999J1D01*
G01*
%TO.C,SW31*%
X238565404Y-78656471D02*
X243665404Y-78656471D01*
X242465404Y-82856471D02*
X247565404Y-82856471D01*
X236565404Y-80656471D02*
G75*
G02*
X238565404Y-78656471I1999999J1D01*
G01*
X240465404Y-84856471D02*
G75*
G02*
X242465404Y-82856471I1999999J1D01*
G01*
%TO.C,SW32*%
X257615404Y-83418971D02*
X262715404Y-83418971D01*
X261515404Y-87618971D02*
X266615404Y-87618971D01*
X255615404Y-85418971D02*
G75*
G02*
X257615404Y-83418971I1999999J1D01*
G01*
X259515404Y-89618971D02*
G75*
G02*
X261515404Y-87618971I1999999J1D01*
G01*
%TO.C,SW40*%
X168989700Y-134018396D02*
X173406429Y-131468396D01*
X174467199Y-135705702D02*
X178883928Y-133155702D01*
X168257649Y-136750447D02*
G75*
G02*
X168989699Y-134018395I1732047J1000002D01*
G01*
X173735148Y-138437753D02*
G75*
G02*
X174467199Y-135705702I1732047J1000001D01*
G01*
%TO.C,SW39*%
X276665404Y-102468971D02*
X281765404Y-102468971D01*
X280565404Y-106668971D02*
X285665404Y-106668971D01*
X274665404Y-104468971D02*
G75*
G02*
X276665404Y-102468971I1999999J1D01*
G01*
X278565404Y-108668971D02*
G75*
G02*
X280565404Y-106668971I1999999J1D01*
G01*
%TO.C,SW10*%
X71137500Y-76275000D02*
X76237500Y-76275000D01*
X75037500Y-80475000D02*
X80137500Y-80475000D01*
X69137500Y-78275000D02*
G75*
G02*
X71137500Y-76275000I1999999J1D01*
G01*
X73037500Y-82475000D02*
G75*
G02*
X75037500Y-80475000I1999999J1D01*
G01*
%TO.C,SW33*%
X276665404Y-83418971D02*
X281765404Y-83418971D01*
X280565404Y-87618971D02*
X285665404Y-87618971D01*
X274665404Y-85418971D02*
G75*
G02*
X276665404Y-83418971I1999999J1D01*
G01*
X278565404Y-89618971D02*
G75*
G02*
X280565404Y-87618971I1999999J1D01*
G01*
%TO.C,SW14*%
X33037500Y-102468750D02*
X38137500Y-102468750D01*
X36937500Y-106668750D02*
X42037500Y-106668750D01*
X31037500Y-104468750D02*
G75*
G02*
X33037500Y-102468750I1999999J1D01*
G01*
X34937500Y-108668750D02*
G75*
G02*
X36937500Y-106668750I1999999J1D01*
G01*
%TO.C,SW41*%
X194056757Y-122815241D02*
X198982978Y-121495264D01*
X198910907Y-125862735D02*
X203837129Y-124542758D01*
X192642543Y-125264731D02*
G75*
G02*
X194056757Y-122815240I1931851J517639D01*
G01*
X197496694Y-128312225D02*
G75*
G02*
X198910907Y-125862735I1931850J517639D01*
G01*
%TO.C,SW8*%
X33037500Y-83418750D02*
X38137500Y-83418750D01*
X36937500Y-87618750D02*
X42037500Y-87618750D01*
X31037500Y-85418750D02*
G75*
G02*
X33037500Y-83418750I1999999J1D01*
G01*
X34937500Y-89618750D02*
G75*
G02*
X36937500Y-87618750I1999999J1D01*
G01*
%TO.C,SW29*%
X200465404Y-78656471D02*
X205565404Y-78656471D01*
X204365404Y-82856471D02*
X209465404Y-82856471D01*
X198465404Y-80656471D02*
G75*
G02*
X200465404Y-78656471I1999999J1D01*
G01*
X202365404Y-84856471D02*
G75*
G02*
X204365404Y-82856471I1999999J1D01*
G01*
D12*
%TO.C,U3*%
X155194154Y-60632721D02*
X155194154Y-93652721D01*
X155194154Y-93652721D02*
X172974154Y-93652721D01*
X157734154Y-63172721D02*
X155194154Y-63172721D01*
X157734154Y-63172721D02*
X157734154Y-65712721D01*
X157734154Y-65712721D02*
X155194154Y-65712721D01*
X172974154Y-60632721D02*
X155194154Y-60632721D01*
X172974154Y-93652721D02*
X172974154Y-60632721D01*
D10*
X170428789Y-69161751D02*
X169928789Y-69161751D01*
X169928789Y-69061751D01*
X170428789Y-69061751D01*
X170428789Y-69161751D01*
G36*
X170428789Y-69161751D02*
G01*
X169928789Y-69161751D01*
X169928789Y-69061751D01*
X170428789Y-69061751D01*
X170428789Y-69161751D01*
G37*
X170028789Y-69361751D02*
X169928789Y-69361751D01*
X169928789Y-69061751D01*
X170028789Y-69061751D01*
X170028789Y-69361751D01*
G36*
X170028789Y-69361751D02*
G01*
X169928789Y-69361751D01*
X169928789Y-69061751D01*
X170028789Y-69061751D01*
X170028789Y-69361751D01*
G37*
X170028789Y-69861751D02*
X169928789Y-69861751D01*
X169928789Y-69661751D01*
X170028789Y-69661751D01*
X170028789Y-69861751D01*
G36*
X170028789Y-69861751D02*
G01*
X169928789Y-69861751D01*
X169928789Y-69661751D01*
X170028789Y-69661751D01*
X170028789Y-69861751D01*
G37*
X170228789Y-69561751D02*
X170128789Y-69561751D01*
X170128789Y-69461751D01*
X170228789Y-69461751D01*
X170228789Y-69561751D01*
G36*
X170228789Y-69561751D02*
G01*
X170128789Y-69561751D01*
X170128789Y-69461751D01*
X170228789Y-69461751D01*
X170228789Y-69561751D01*
G37*
X170428789Y-69861751D02*
X170328789Y-69861751D01*
X170328789Y-69061751D01*
X170428789Y-69061751D01*
X170428789Y-69861751D01*
G36*
X170428789Y-69861751D02*
G01*
X170328789Y-69861751D01*
X170328789Y-69061751D01*
X170428789Y-69061751D01*
X170428789Y-69861751D01*
G37*
D11*
%TO.C,SW17*%
X90187500Y-97706250D02*
X95287500Y-97706250D01*
X94087500Y-101906250D02*
X99187500Y-101906250D01*
X88187500Y-99706250D02*
G75*
G02*
X90187500Y-97706250I1999999J1D01*
G01*
X92087500Y-103906250D02*
G75*
G02*
X94087500Y-101906250I1999999J1D01*
G01*
%TO.C,SW6*%
X109237500Y-61987500D02*
X114337500Y-61987500D01*
X113137500Y-66187500D02*
X118237500Y-66187500D01*
X107237500Y-63987500D02*
G75*
G02*
X109237500Y-61987500I1999999J1D01*
G01*
X111137500Y-68187500D02*
G75*
G02*
X113137500Y-66187500I1999999J1D01*
G01*
%TO.C,SW12*%
X109237500Y-81037500D02*
X114337500Y-81037500D01*
X113137500Y-85237500D02*
X118237500Y-85237500D01*
X107237500Y-83037500D02*
G75*
G02*
X109237500Y-81037500I1999999J1D01*
G01*
X111137500Y-87237500D02*
G75*
G02*
X113137500Y-85237500I1999999J1D01*
G01*
%TO.C,SW28*%
X181415404Y-81037721D02*
X186515404Y-81037721D01*
X185315404Y-85237721D02*
X190415404Y-85237721D01*
X179415404Y-83037721D02*
G75*
G02*
X181415404Y-81037721I1999999J1D01*
G01*
X183315404Y-87237721D02*
G75*
G02*
X185315404Y-85237721I1999999J1D01*
G01*
%TO.C,SW2*%
X33037500Y-64368750D02*
X38137500Y-64368750D01*
X36937500Y-68568750D02*
X42037500Y-68568750D01*
X31037500Y-66368750D02*
G75*
G02*
X33037500Y-64368750I1999999J1D01*
G01*
X34937500Y-70568750D02*
G75*
G02*
X36937500Y-68568750I1999999J1D01*
G01*
%TO.C,SW19*%
X71137500Y-119137500D02*
X76237500Y-119137500D01*
X75037500Y-123337500D02*
X80137500Y-123337500D01*
X69137500Y-121137500D02*
G75*
G02*
X71137500Y-119137500I1999999J1D01*
G01*
X73037500Y-125337500D02*
G75*
G02*
X75037500Y-123337500I1999999J1D01*
G01*
%TO.C,SW7*%
X13987500Y-83418750D02*
X19087500Y-83418750D01*
X17887500Y-87618750D02*
X22987500Y-87618750D01*
X11987500Y-85418750D02*
G75*
G02*
X13987500Y-83418750I1999999J1D01*
G01*
X15887500Y-89618750D02*
G75*
G02*
X17887500Y-87618750I1999999J1D01*
G01*
%TO.C,SW24*%
X219515404Y-57225221D02*
X224615404Y-57225221D01*
X223415404Y-61425221D02*
X228515404Y-61425221D01*
X217515404Y-59225221D02*
G75*
G02*
X219515404Y-57225221I1999999J1D01*
G01*
X221415404Y-63425221D02*
G75*
G02*
X223415404Y-61425221I1999999J1D01*
G01*
%TO.C,SW11*%
X90187500Y-78656250D02*
X95287500Y-78656250D01*
X94087500Y-82856250D02*
X99187500Y-82856250D01*
X88187500Y-80656250D02*
G75*
G02*
X90187500Y-78656250I1999999J1D01*
G01*
X92087500Y-84856250D02*
G75*
G02*
X94087500Y-82856250I1999999J1D01*
G01*
%TO.C,SW13*%
X13987500Y-102468750D02*
X19087500Y-102468750D01*
X17887500Y-106668750D02*
X22987500Y-106668750D01*
X11987500Y-104468750D02*
G75*
G02*
X13987500Y-102468750I1999999J1D01*
G01*
X15887500Y-108668750D02*
G75*
G02*
X17887500Y-106668750I1999999J1D01*
G01*
%TO.C,SW3*%
X52087500Y-59606250D02*
X57187500Y-59606250D01*
X55987500Y-63806250D02*
X61087500Y-63806250D01*
X50087500Y-61606250D02*
G75*
G02*
X52087500Y-59606250I1999999J1D01*
G01*
X53987500Y-65806250D02*
G75*
G02*
X55987500Y-63806250I1999999J1D01*
G01*
%TO.C,SW5*%
X90187500Y-59606250D02*
X95287500Y-59606250D01*
X94087500Y-63806250D02*
X99187500Y-63806250D01*
X88187500Y-61606250D02*
G75*
G02*
X90187500Y-59606250I1999999J1D01*
G01*
X92087500Y-65806250D02*
G75*
G02*
X94087500Y-63806250I1999999J1D01*
G01*
%TO.C,SW25*%
X238565404Y-59606471D02*
X243665404Y-59606471D01*
X242465404Y-63806471D02*
X247565404Y-63806471D01*
X236565404Y-61606471D02*
G75*
G02*
X238565404Y-59606471I1999999J1D01*
G01*
X240465404Y-65806471D02*
G75*
G02*
X242465404Y-63806471I1999999J1D01*
G01*
%TO.C,SW34*%
X181415404Y-100087721D02*
X186515404Y-100087721D01*
X185315404Y-104287721D02*
X190415404Y-104287721D01*
X179415404Y-102087721D02*
G75*
G02*
X181415404Y-100087721I1999999J1D01*
G01*
X183315404Y-106287721D02*
G75*
G02*
X185315404Y-104287721I1999999J1D01*
G01*
%TO.C,SW20*%
X96875555Y-120692702D02*
X101801777Y-122012681D01*
X99555626Y-125758987D02*
X104481848Y-127078963D01*
X94426066Y-122106917D02*
G75*
G02*
X96875555Y-120692701I1931852J-517636D01*
G01*
X97106137Y-127173200D02*
G75*
G02*
X99555626Y-125758987I1931849J-517635D01*
G01*
D10*
%TO.C,D33*%
X280515404Y-99443971D02*
X280515404Y-100243971D01*
X280515404Y-99843971D02*
X280015404Y-99843971D01*
X280515404Y-100243971D02*
X281115404Y-99843971D01*
X281115404Y-99843971D02*
X280515404Y-99443971D01*
X281115404Y-99843971D02*
X281115404Y-99293971D01*
X281115404Y-99843971D02*
X281115404Y-100393971D01*
X281515404Y-99843971D02*
X281115404Y-99843971D01*
%TO.C,D36*%
X223365404Y-111350221D02*
X223365404Y-112150221D01*
X223365404Y-111750221D02*
X222865404Y-111750221D01*
X223365404Y-112150221D02*
X223965404Y-111750221D01*
X223965404Y-111750221D02*
X223365404Y-111350221D01*
X223965404Y-111750221D02*
X223965404Y-111200221D01*
X223965404Y-111750221D02*
X223965404Y-112300221D01*
X224365404Y-111750221D02*
X223965404Y-111750221D01*
%TO.C,D23*%
X204315404Y-75631471D02*
X204315404Y-76431471D01*
X204315404Y-76031471D02*
X203815404Y-76031471D01*
X204315404Y-76431471D02*
X204915404Y-76031471D01*
X204915404Y-76031471D02*
X204315404Y-75631471D01*
X204915404Y-76031471D02*
X204915404Y-75481471D01*
X204915404Y-76031471D02*
X204915404Y-76581471D01*
X205315404Y-76031471D02*
X204915404Y-76031471D01*
%TO.C,D10*%
X74987500Y-92300000D02*
X74987500Y-93100000D01*
X74987500Y-92700000D02*
X74487500Y-92700000D01*
X74987500Y-93100000D02*
X75587500Y-92700000D01*
X75587500Y-92700000D02*
X74987500Y-92300000D01*
X75587500Y-92700000D02*
X75587500Y-92150000D01*
X75587500Y-92700000D02*
X75587500Y-93250000D01*
X75987500Y-92700000D02*
X75587500Y-92700000D01*
%TO.C,D13*%
X17837500Y-118493750D02*
X17837500Y-119293750D01*
X17837500Y-118893750D02*
X17337500Y-118893750D01*
X17837500Y-119293750D02*
X18437500Y-118893750D01*
X18437500Y-118893750D02*
X17837500Y-118493750D01*
X18437500Y-118893750D02*
X18437500Y-118343750D01*
X18437500Y-118893750D02*
X18437500Y-119443750D01*
X18837500Y-118893750D02*
X18437500Y-118893750D01*
%TO.C,D26*%
X261465404Y-80793971D02*
X260965404Y-80793971D01*
X261465404Y-81193970D02*
X262065402Y-80793972D01*
X261465405Y-80393971D02*
X261465404Y-81193970D01*
X262065402Y-80793972D02*
X261465405Y-80393971D01*
X262065402Y-80793972D02*
X262065404Y-80243970D01*
X262065402Y-80793972D02*
X262065405Y-81343974D01*
X262465404Y-80793971D02*
X262065402Y-80793972D01*
%TO.C,D40*%
X170811398Y-128197559D02*
X171211398Y-128890381D01*
X171011398Y-128543971D02*
X170578385Y-128793971D01*
X171211398Y-128890381D02*
X171531013Y-128243971D01*
X171531013Y-128243971D02*
X170811398Y-128197559D01*
X171531013Y-128243971D02*
X171256012Y-127767656D01*
X171531013Y-128243971D02*
X171806013Y-128720285D01*
X171877423Y-128043971D02*
X171531013Y-128243971D01*
%TO.C,D38*%
X261465404Y-118493971D02*
X261465404Y-119293971D01*
X261465404Y-118893971D02*
X260965404Y-118893971D01*
X261465404Y-119293971D02*
X262065404Y-118893971D01*
X262065404Y-118893971D02*
X261465404Y-118493971D01*
X262065404Y-118893971D02*
X262065404Y-118343971D01*
X262065404Y-118893971D02*
X262065404Y-119443971D01*
X262465404Y-118893971D02*
X262065404Y-118893971D01*
%TO.C,D29*%
X204315404Y-94681471D02*
X204315404Y-95481471D01*
X204315404Y-95081471D02*
X203815404Y-95081471D01*
X204315404Y-95481471D02*
X204915404Y-95081471D01*
X204915404Y-95081471D02*
X204315404Y-94681471D01*
X204915404Y-95081471D02*
X204915404Y-94531471D01*
X204915404Y-95081471D02*
X204915404Y-95631471D01*
X205315404Y-95081471D02*
X204915404Y-95081471D01*
%TO.C,D39*%
X280515404Y-118493971D02*
X280515404Y-119293971D01*
X280515404Y-118893971D02*
X280015404Y-118893971D01*
X280515404Y-119293971D02*
X281115404Y-118893971D01*
X281115404Y-118893971D02*
X280515404Y-118493971D01*
X281115404Y-118893971D02*
X281115404Y-118343971D01*
X281115404Y-118893971D02*
X281115404Y-119443971D01*
X281515404Y-118893971D02*
X281115404Y-118893971D01*
%TO.C,D35*%
X204315404Y-113731471D02*
X204315404Y-114531471D01*
X204315404Y-114131471D02*
X203815404Y-114131471D01*
X204315404Y-114531471D02*
X204915404Y-114131471D01*
X204915404Y-114131471D02*
X204315404Y-113731471D01*
X204915404Y-114131471D02*
X204915404Y-113581471D01*
X204915404Y-114131471D02*
X204915404Y-114681471D01*
X205315404Y-114131471D02*
X204915404Y-114131471D01*
%TO.C,D16*%
X74987500Y-111350000D02*
X74987500Y-112150000D01*
X74987500Y-111750000D02*
X74487500Y-111750000D01*
X74987500Y-112150000D02*
X75587500Y-111750000D01*
X75587500Y-111750000D02*
X74987500Y-111350000D01*
X75587500Y-111750000D02*
X75587500Y-111200000D01*
X75587500Y-111750000D02*
X75587500Y-112300000D01*
X75987500Y-111750000D02*
X75587500Y-111750000D01*
%TO.C,D24*%
X223365404Y-73250221D02*
X223365404Y-74050221D01*
X223365404Y-73650221D02*
X222865404Y-73650221D01*
X223365404Y-74050221D02*
X223965404Y-73650221D01*
X223965404Y-73650221D02*
X223365404Y-73250221D01*
X223965404Y-73650221D02*
X223965404Y-73100221D01*
X223965404Y-73650221D02*
X223965404Y-74200221D01*
X224365404Y-73650221D02*
X223965404Y-73650221D01*
%TO.C,D28*%
X185265404Y-94681471D02*
X185265404Y-95481471D01*
X185265404Y-95081471D02*
X184765404Y-95081471D01*
X185265404Y-95481471D02*
X185865404Y-95081471D01*
X185865404Y-95081471D02*
X185265404Y-94681471D01*
X185865404Y-95081471D02*
X185865404Y-94531471D01*
X185865404Y-95081471D02*
X185865404Y-95631471D01*
X186265404Y-95081471D02*
X185865404Y-95081471D01*
%TO.C,D14*%
X36887500Y-118493750D02*
X36887500Y-119293750D01*
X36887500Y-118893750D02*
X36387500Y-118893750D01*
X36887500Y-119293750D02*
X37487500Y-118893750D01*
X37487500Y-118893750D02*
X36887500Y-118493750D01*
X37487500Y-118893750D02*
X37487500Y-118343750D01*
X37487500Y-118893750D02*
X37487500Y-119443750D01*
X37887500Y-118893750D02*
X37487500Y-118893750D01*
%TO.C,D18*%
X113087500Y-116112500D02*
X113087500Y-116912500D01*
X113087500Y-116512500D02*
X112587500Y-116512500D01*
X113087500Y-116912500D02*
X113687500Y-116512500D01*
X113687500Y-116512500D02*
X113087500Y-116112500D01*
X113687500Y-116512500D02*
X113687500Y-115962500D01*
X113687500Y-116512500D02*
X113687500Y-117062500D01*
X114087500Y-116512500D02*
X113687500Y-116512500D01*
%TO.C,D20*%
X96323741Y-138265416D02*
X97006824Y-138034337D01*
X96427269Y-137879045D02*
X95944306Y-137749636D01*
X96530796Y-137492675D02*
X96323741Y-138265416D01*
X97006824Y-138034337D02*
X96530796Y-137492675D01*
X97006824Y-138034337D02*
X96864473Y-138565597D01*
X97006824Y-138034337D02*
X97149175Y-137503076D01*
X97393194Y-138137864D02*
X97006824Y-138034337D01*
%TO.C,D1*%
X17837500Y-80393750D02*
X17837500Y-81193750D01*
X17837500Y-80793750D02*
X17337500Y-80793750D01*
X17837500Y-81193750D02*
X18437500Y-80793750D01*
X18437500Y-80793750D02*
X17837500Y-80393750D01*
X18437500Y-80793750D02*
X18437500Y-80243750D01*
X18437500Y-80793750D02*
X18437500Y-81343750D01*
X18837500Y-80793750D02*
X18437500Y-80793750D01*
%TO.C,D17*%
X94037500Y-113731250D02*
X94037500Y-114531250D01*
X94037500Y-114131250D02*
X93537500Y-114131250D01*
X94037500Y-114531250D02*
X94637500Y-114131250D01*
X94637500Y-114131250D02*
X94037500Y-113731250D01*
X94637500Y-114131250D02*
X94637500Y-113581250D01*
X94637500Y-114131250D02*
X94637500Y-114681250D01*
X95037500Y-114131250D02*
X94637500Y-114131250D01*
%TO.C,D21*%
X127208494Y-128640162D02*
X127928108Y-128593749D01*
X127408494Y-128293750D02*
X126975481Y-128043750D01*
X127608494Y-127947340D02*
X127208494Y-128640162D01*
X127928108Y-128593749D02*
X127608494Y-127947340D01*
X127928108Y-128593749D02*
X127653108Y-129070065D01*
X127928108Y-128593749D02*
X128203109Y-128117435D01*
X128274519Y-128793750D02*
X127928108Y-128593749D01*
%TO.C,D42*%
X223365404Y-135162721D02*
X223365404Y-135962721D01*
X223365404Y-135562721D02*
X222865404Y-135562721D01*
X223365404Y-135962721D02*
X223965404Y-135562721D01*
X223965404Y-135562721D02*
X223365404Y-135162721D01*
X223965404Y-135562721D02*
X223965404Y-135012721D01*
X223965404Y-135562721D02*
X223965404Y-136112721D01*
X224365404Y-135562721D02*
X223965404Y-135562721D01*
%TO.C,D41*%
X201839145Y-137622305D02*
X202046200Y-138395046D01*
X201942673Y-138008676D02*
X201459710Y-138138085D01*
X202046200Y-138395046D02*
X202522228Y-137853384D01*
X202522228Y-137853384D02*
X201839145Y-137622305D01*
X202522228Y-137853384D02*
X202379877Y-137322124D01*
X202522228Y-137853384D02*
X202664579Y-138384645D01*
X202908598Y-137749857D02*
X202522228Y-137853384D01*
%TO.C,D9*%
X55937500Y-92300000D02*
X55937500Y-93100000D01*
X55937500Y-92700000D02*
X55437500Y-92700000D01*
X55937500Y-93100000D02*
X56537500Y-92700000D01*
X56537500Y-92700000D02*
X55937500Y-92300000D01*
X56537500Y-92700000D02*
X56537500Y-92150000D01*
X56537500Y-92700000D02*
X56537500Y-93250000D01*
X56937500Y-92700000D02*
X56537500Y-92700000D01*
%TO.C,D12*%
X113087500Y-97062500D02*
X113087500Y-97862500D01*
X113087500Y-97462500D02*
X112587500Y-97462500D01*
X113087500Y-97862500D02*
X113687500Y-97462500D01*
X113687500Y-97462500D02*
X113087500Y-97062500D01*
X113687500Y-97462500D02*
X113687500Y-96912500D01*
X113687500Y-97462500D02*
X113687500Y-98012500D01*
X114087500Y-97462500D02*
X113687500Y-97462500D01*
%TO.C,D5*%
X94037500Y-75631250D02*
X94037500Y-76431250D01*
X94037500Y-76031250D02*
X93537500Y-76031250D01*
X94037500Y-76431250D02*
X94637500Y-76031250D01*
X94637500Y-76031250D02*
X94037500Y-75631250D01*
X94637500Y-76031250D02*
X94637500Y-75481250D01*
X94637500Y-76031250D02*
X94637500Y-76581250D01*
X95037500Y-76031250D02*
X94637500Y-76031250D01*
%TO.C,D4*%
X74987500Y-73250000D02*
X74987500Y-74050000D01*
X74987500Y-73650000D02*
X74487500Y-73650000D01*
X74987500Y-74050000D02*
X75587500Y-73650000D01*
X75587500Y-73650000D02*
X74987500Y-73250000D01*
X75587500Y-73650000D02*
X75587500Y-73100000D01*
X75587500Y-73650000D02*
X75587500Y-74200000D01*
X75987500Y-73650000D02*
X75587500Y-73650000D01*
%TO.C,D6*%
X113087500Y-78012500D02*
X113087500Y-78812500D01*
X113087500Y-78412500D02*
X112587500Y-78412500D01*
X113087500Y-78812500D02*
X113687500Y-78412500D01*
X113687500Y-78412500D02*
X113087500Y-78012500D01*
X113687500Y-78412500D02*
X113687500Y-77862500D01*
X113687500Y-78412500D02*
X113687500Y-78962500D01*
X114087500Y-78412500D02*
X113687500Y-78412500D01*
%TO.C,D7*%
X17837500Y-99443750D02*
X17837500Y-100243750D01*
X17837500Y-99843750D02*
X17337500Y-99843750D01*
X17837500Y-100243750D02*
X18437500Y-99843750D01*
X18437500Y-99843750D02*
X17837500Y-99443750D01*
X18437500Y-99843750D02*
X18437500Y-99293750D01*
X18437500Y-99843750D02*
X18437500Y-100393750D01*
X18837500Y-99843750D02*
X18437500Y-99843750D01*
%TO.C,D31*%
X242415404Y-94681471D02*
X242415404Y-95481471D01*
X242415404Y-95081471D02*
X241915404Y-95081471D01*
X242415404Y-95481471D02*
X243015404Y-95081471D01*
X243015404Y-95081471D02*
X242415404Y-94681471D01*
X243015404Y-95081471D02*
X243015404Y-94531471D01*
X243015404Y-95081471D02*
X243015404Y-95631471D01*
X243415404Y-95081471D02*
X243015404Y-95081471D01*
%TO.C,D37*%
X242415404Y-113731471D02*
X242415404Y-114531471D01*
X242415404Y-114131471D02*
X241915404Y-114131471D01*
X242415404Y-114531471D02*
X243015404Y-114131471D01*
X243015404Y-114131471D02*
X242415404Y-113731471D01*
X243015404Y-114131471D02*
X243015404Y-113581471D01*
X243015404Y-114131471D02*
X243015404Y-114681471D01*
X243415404Y-114131471D02*
X243015404Y-114131471D01*
%TO.C,D19*%
X74987500Y-135162500D02*
X74987500Y-135962500D01*
X74987500Y-135562500D02*
X74487500Y-135562500D01*
X74987500Y-135962500D02*
X75587500Y-135562500D01*
X75587500Y-135562500D02*
X74987500Y-135162500D01*
X75587500Y-135562500D02*
X75587500Y-135012500D01*
X75587500Y-135562500D02*
X75587500Y-136112500D01*
X75987500Y-135562500D02*
X75587500Y-135562500D01*
%TO.C,D8*%
X36887500Y-99443750D02*
X36887500Y-100243750D01*
X36887500Y-99843750D02*
X36387500Y-99843750D01*
X36887500Y-100243750D02*
X37487500Y-99843750D01*
X37487500Y-99843750D02*
X36887500Y-99443750D01*
X37487500Y-99843750D02*
X37487500Y-99293750D01*
X37487500Y-99843750D02*
X37487500Y-100393750D01*
X37887500Y-99843750D02*
X37487500Y-99843750D01*
%TO.C,D2*%
X36887500Y-80393750D02*
X36887500Y-81193750D01*
X36887500Y-80793750D02*
X36387500Y-80793750D01*
X36887500Y-81193750D02*
X37487500Y-80793750D01*
X37487500Y-80793750D02*
X36887500Y-80393750D01*
X37487500Y-80793750D02*
X37487500Y-80243750D01*
X37487500Y-80793750D02*
X37487500Y-81343750D01*
X37887500Y-80793750D02*
X37487500Y-80793750D01*
%TO.C,D15*%
X55937500Y-113731250D02*
X55937500Y-114531250D01*
X55937500Y-114131250D02*
X55437500Y-114131250D01*
X55937500Y-114531250D02*
X56537500Y-114131250D01*
X56537500Y-114131250D02*
X55937500Y-113731250D01*
X56537500Y-114131250D02*
X56537500Y-113581250D01*
X56537500Y-114131250D02*
X56537500Y-114681250D01*
X56937500Y-114131250D02*
X56537500Y-114131250D01*
%TO.C,D22*%
X185265404Y-78012721D02*
X185265404Y-78812721D01*
X185265404Y-78412721D02*
X184765404Y-78412721D01*
X185265404Y-78812721D02*
X185865404Y-78412721D01*
X185865404Y-78412721D02*
X185265404Y-78012721D01*
X185865404Y-78412721D02*
X185865404Y-77862721D01*
X185865404Y-78412721D02*
X185865404Y-78962721D01*
X186265404Y-78412721D02*
X185865404Y-78412721D01*
%TO.C,D32*%
X261465404Y-99443971D02*
X261465404Y-100243971D01*
X261465404Y-99843971D02*
X260965404Y-99843971D01*
X261465404Y-100243971D02*
X262065404Y-99843971D01*
X262065404Y-99843971D02*
X261465404Y-99443971D01*
X262065404Y-99843971D02*
X262065404Y-99293971D01*
X262065404Y-99843971D02*
X262065404Y-100393971D01*
X262465404Y-99843971D02*
X262065404Y-99843971D01*
%TO.C,D11*%
X94037500Y-94681250D02*
X94037500Y-95481250D01*
X94037500Y-95081250D02*
X93537500Y-95081250D01*
X94037500Y-95481250D02*
X94637500Y-95081250D01*
X94637500Y-95081250D02*
X94037500Y-94681250D01*
X94637500Y-95081250D02*
X94637500Y-94531250D01*
X94637500Y-95081250D02*
X94637500Y-95631250D01*
X95037500Y-95081250D02*
X94637500Y-95081250D01*
%TO.C,D30*%
X223365404Y-92300221D02*
X223365404Y-93100221D01*
X223365404Y-92700221D02*
X222865404Y-92700221D01*
X223365404Y-93100221D02*
X223965404Y-92700221D01*
X223965404Y-92700221D02*
X223365404Y-92300221D01*
X223965404Y-92700221D02*
X223965404Y-92150221D01*
X223965404Y-92700221D02*
X223965404Y-93250221D01*
X224365404Y-92700221D02*
X223965404Y-92700221D01*
%TO.C,D25*%
X242415404Y-75631471D02*
X242415404Y-76431471D01*
X242415404Y-76031471D02*
X241915404Y-76031471D01*
X242415404Y-76431471D02*
X243015404Y-76031471D01*
X243015404Y-76031471D02*
X242415404Y-75631471D01*
X243015404Y-76031471D02*
X243015404Y-75481471D01*
X243015404Y-76031471D02*
X243015404Y-76581471D01*
X243415404Y-76031471D02*
X243015404Y-76031471D01*
%TO.C,D27*%
X280515404Y-80393971D02*
X280515404Y-81193971D01*
X280515404Y-80793971D02*
X280015404Y-80793971D01*
X280515404Y-81193971D02*
X281115404Y-80793971D01*
X281115404Y-80793971D02*
X280515404Y-80393971D01*
X281115404Y-80793971D02*
X281115404Y-80243971D01*
X281115404Y-80793971D02*
X281115404Y-81343971D01*
X281515404Y-80793971D02*
X281115404Y-80793971D01*
%TO.C,D34*%
X185265404Y-116112721D02*
X185265404Y-116912721D01*
X185265404Y-116512721D02*
X184765404Y-116512721D01*
X185265404Y-116912721D02*
X185865404Y-116512721D01*
X185865404Y-116512721D02*
X185265404Y-116112721D01*
X185865404Y-116512721D02*
X185865404Y-115962721D01*
X185865404Y-116512721D02*
X185865404Y-117062721D01*
X186265404Y-116512721D02*
X185865404Y-116512721D01*
%TO.C,D3*%
X55937500Y-73250000D02*
X55937500Y-74050000D01*
X55937500Y-73650000D02*
X55437500Y-73650000D01*
X55937500Y-74050000D02*
X56537500Y-73650000D01*
X56537500Y-73650000D02*
X55937500Y-73250000D01*
X56537500Y-73650000D02*
X56537500Y-73100000D01*
X56537500Y-73650000D02*
X56537500Y-74200000D01*
X56937500Y-73650000D02*
X56537500Y-73650000D01*
%TD*%
D13*
%TO.C,U2*%
X127148750Y-64442500D03*
D14*
X127148750Y-66982500D03*
X127148750Y-69522500D03*
X127148750Y-72062500D03*
X127148750Y-74602500D03*
X127148750Y-77142500D03*
X127148750Y-79682500D03*
X127148750Y-82222500D03*
X127148750Y-84762500D03*
X127148750Y-87302500D03*
X127148750Y-89842500D03*
X127148750Y-92382500D03*
X142388750Y-92382500D03*
X142388750Y-89842500D03*
X142388750Y-87302500D03*
X142388750Y-84762500D03*
X142388750Y-82222500D03*
X142388750Y-79682500D03*
X142388750Y-77142500D03*
X142388750Y-74602500D03*
X142388750Y-72062500D03*
X142388750Y-69522500D03*
X142388750Y-66982500D03*
X142388750Y-64442500D03*
%TD*%
D13*
%TO.C,U3*%
X156464154Y-64442721D03*
D14*
X156464154Y-66982721D03*
X156464154Y-69522721D03*
X156464154Y-72062721D03*
X156464154Y-74602721D03*
X156464154Y-77142721D03*
X156464154Y-79682721D03*
X156464154Y-82222721D03*
X156464154Y-84762721D03*
X156464154Y-87302721D03*
X156464154Y-89842721D03*
X156464154Y-92382721D03*
X171704154Y-92382721D03*
X171704154Y-89842721D03*
X171704154Y-87302721D03*
X171704154Y-84762721D03*
X171704154Y-82222721D03*
X171704154Y-79682721D03*
X171704154Y-77142721D03*
X171704154Y-74602721D03*
X171704154Y-72062721D03*
X171704154Y-69522721D03*
X171704154Y-66982721D03*
X171704154Y-64442721D03*
%TD*%
M02*
